<?xml version="1.0" encoding="UTF-8"?>
<svg width="48px" height="48px" viewBox="0 0 48 48" version="1.1" xmlns="http://www.w3.org/2000/svg" xmlns:xlink="http://www.w3.org/1999/xlink">
    <title>5A70669D-1E21-40A9-86B4-822B1DCB4692</title>
    <g id="OSM-Quality-Site" stroke="none" stroke-width="1" fill="none" fill-rule="evenodd">
        <g id="Quick-Stats-" transform="translate(-849.000000, -330.000000)">
            <g id="Group" transform="translate(824.000000, 143.000000)">
                <g id="Card-Content" transform="translate(24.000000, 24.000000)">
                    <g id="Building-Error" transform="translate(1.000000, 159.000000)">
                        <g id="buildings" transform="translate(0.000000, 4.000000)">
                            <rect id="Rectangle" x="0" y="0" width="48" height="48"></rect>
                            <path d="M27.4989013,4.4968425 C29.0965821,4.4968425 30.4025621,5.74576246 30.4938086,7.32056971 L30.4989013,7.4968425 L30.498,38.9998425 L32.0001787,39.0000596 C32.8286058,39.0001583 33.5,39.6718112 33.5,40.5002383 C33.5,41.2799344 32.9049427,41.9206161 32.1442821,41.9932102 L31.9998213,42.0000596 L4.99982127,41.9968425 C4.17139415,41.9967438 3.50000001,41.3250909 3.50000001,40.4966638 C3.50000001,39.7169677 4.09505734,39.076286 4.8557179,39.0036919 L5.00017873,38.9968425 L6.49800001,38.9968425 L6.49890125,7.4968425 C6.49890125,5.89916162 7.74782121,4.59318162 9.32262846,4.50193519 L9.49890125,4.4968425 L27.4989013,4.4968425 Z M27.4989013,7.4968425 L9.49890125,7.4968425 L9.49800001,38.9968425 L17.171,38.9978425 L17.171875,36.265625 C17.171875,35.4371979 17.8434479,34.765625 18.671875,34.765625 C19.4515711,34.765625 20.0923237,35.3605131 20.1650084,36.121165 L20.171875,36.265625 L20.171,38.9978425 L27.498,38.9988425 L27.4989013,7.4968425 Z M38.25,29 C39.4926407,29 40.5,30.0073593 40.5,31.25 C40.5,32.4926407 39.4926407,33.5 38.25,33.5 C37.0073593,33.5 36,32.4926407 36,31.25 C36,30.0073593 37.0073593,29 38.25,29 Z M23,29.84375 C23.8284271,29.84375 24.5,30.5153229 24.5,31.34375 C24.5,32.1234461 23.9051119,32.7641987 23.14446,32.8368834 L23,32.84375 L21,32.84375 C20.1715729,32.84375 19.5,32.1721771 19.5,31.34375 C19.5,30.5640539 20.0948881,29.9233013 20.85554,29.8506166 L21,29.84375 L23,29.84375 Z M16,29.84375 C16.8284271,29.84375 17.5,30.5153229 17.5,31.34375 C17.5,32.1234461 16.9051119,32.7641987 16.14446,32.8368834 L16,32.84375 L14,32.84375 C13.1715729,32.84375 12.5,32.1721771 12.5,31.34375 C12.5,30.5640539 13.0948881,29.9233013 13.85554,29.8506166 L14,29.84375 L16,29.84375 Z M23,23.59375 C23.8284271,23.59375 24.5,24.2653229 24.5,25.09375 C24.5,25.8734461 23.9051119,26.5141987 23.14446,26.5868834 L23,26.59375 L21,26.59375 C20.1715729,26.59375 19.5,25.9221771 19.5,25.09375 C19.5,24.3140539 20.0948881,23.6733013 20.85554,23.6006166 L21,23.59375 L23,23.59375 Z M16,23.59375 C16.8284271,23.59375 17.5,24.2653229 17.5,25.09375 C17.5,25.8734461 16.9051119,26.5141987 16.14446,26.5868834 L16,26.59375 L14,26.59375 C13.1715729,26.59375 12.5,25.9221771 12.5,25.09375 C12.5,24.3140539 13.0948881,23.6733013 13.85554,23.6006166 L14,23.59375 L16,23.59375 Z M38.25,12.4842105 C39.0406392,12.4842105 39.6898956,13.0895425 39.7595949,13.8620323 L39.7657895,14 L39.7657895,24.5 C39.7657895,25.3371474 39.0871474,26.0157895 38.25,26.0157895 C37.4593608,26.0157895 36.8101044,25.4104575 36.7404051,24.6379677 L36.7342105,24.5 L36.7342105,14 C36.7342105,13.1628526 37.4128526,12.4842105 38.25,12.4842105 Z M23,17.34375 C23.8284271,17.34375 24.5,18.0153229 24.5,18.84375 C24.5,19.6234461 23.9051119,20.2641987 23.14446,20.3368834 L23,20.34375 L21,20.34375 C20.1715729,20.34375 19.5,19.6721771 19.5,18.84375 C19.5,18.0640539 20.0948881,17.4233013 20.85554,17.3506166 L21,17.34375 L23,17.34375 Z M16,17.34375 C16.8284271,17.34375 17.5,18.0153229 17.5,18.84375 C17.5,19.6234461 16.9051119,20.2641987 16.14446,20.3368834 L16,20.34375 L14,20.34375 C13.1715729,20.34375 12.5,19.6721771 12.5,18.84375 C12.5,18.0640539 13.0948881,17.4233013 13.85554,17.3506166 L14,17.34375 L16,17.34375 Z M23,11.09375 C23.8284271,11.09375 24.5,11.7653229 24.5,12.59375 C24.5,13.3734461 23.9051119,14.0141987 23.14446,14.0868834 L23,14.09375 L21,14.09375 C20.1715729,14.09375 19.5,13.4221771 19.5,12.59375 C19.5,11.8140539 20.0948881,11.1733013 20.85554,11.1006166 L21,11.09375 L23,11.09375 Z M16,11.09375 C16.8284271,11.09375 17.5,11.7653229 17.5,12.59375 C17.5,13.3734461 16.9051119,14.0141987 16.14446,14.0868834 L16,14.09375 L14,14.09375 C13.1715729,14.09375 12.5,13.4221771 12.5,12.59375 C12.5,11.8140539 13.0948881,11.1733013 13.85554,11.1006166 L14,11.09375 L16,11.09375 Z" id="Combined-Shape" fill-opacity="0.5" fill="#000000" fill-rule="nonzero"></path>
                        </g>
                    </g>
                </g>
            </g>
        </g>
    </g>
</svg>