<?xml version="1.0" encoding="utf-8"?>
<!-- Generator: Adobe Illustrator 22.1.0, SVG Export Plug-In . SVG Version: 6.00 Build 0)  -->
<svg version="1.1" id="Layer_1" xmlns="http://www.w3.org/2000/svg" xmlns:xlink="http://www.w3.org/1999/xlink" x="0px" y="0px"
	 viewBox="0 0 32 33" style="enable-background:new 0 0 32 33;" xml:space="preserve">
<style type="text/css">
	.st0{clip-path:url(#SVGID_2_);fill:none;stroke:#FFFFFF;stroke-width:4;stroke-miterlimit:10;}
	.st1{clip-path:url(#SVGID_4_);fill:#FFFFFF;}
</style>
<g>
	<defs>
		<circle id="SVGID_1_" cx="15.5" cy="16.5" r="11.5"/>
	</defs>
	<clipPath id="SVGID_2_">
		<use xlink:href="#SVGID_1_"  style="overflow:visible;"/>
	</clipPath>
	<circle class="st0" cx="15.5" cy="16.5" r="11.5"/>
</g>
<g>
	<defs>
		<path id="SVGID_3_" d="M20.7,21.7h-2.3v-3.7c0-1-0.4-1.6-1.2-1.6c-0.6,0-0.9,0.4-1.1,0.9c-0.1,0.2,0,0.4,0,0.6v3.8h-2.3
			c0,0,0-6.5,0-7.1h2.3v1.1c0.1-0.5,0.9-1.2,2-1.2c1.4,0,2.6,1,2.6,3.2V21.7z M11.5,13.7L11.5,13.7c-0.8,0-1.2-0.5-1.2-1.2
			c0-0.7,0.5-1.2,1.2-1.2c0.8,0,1.2,0.5,1.2,1.2C12.7,13.2,12.3,13.7,11.5,13.7z M10.5,14.6h2v7.1h-2V14.6z"/>
	</defs>
	<clipPath id="SVGID_4_">
		<use xlink:href="#SVGID_3_"  style="overflow:visible;"/>
	</clipPath>
	<rect x="5.3" y="6.3" class="st1" width="20.5" height="20.5"/>
</g>
</svg>
