<svg enable-background="new 0 0 32 33" viewBox="0 0 32 33" xmlns="http://www.w3.org/2000/svg" xmlns:xlink="http://www.w3.org/1999/xlink"><clipPath id="a"><circle cx="15.5" cy="18.5" r="11.5"/></clipPath><clipPath id="b"><path d="m19.7 21.7c0 .6-.4 1-1 1h-6.4c-.6 0-1-.4-1-1v-4.3h1.6c-.1.3-.2.7-.2 1.1 0 1.6 1.3 2.9 2.9 2.9s2.9-1.3 2.9-2.9c0-.4-.1-.7-.2-1.1h1.6v4.3zm-5.7-4.3c.3-.5.9-.8 1.5-.8s1.2.3 1.5.8c.2.3.3.7.3 1.1 0 1-.8 1.8-1.8 1.8s-1.8-.8-1.8-1.8c0-.4.1-.8.3-1.1zm5.3-2.9h.2v1.8h-1.8v-1.8zm-.6-1.2h-6.4c-1.1 0-2 .9-2 2v6.4c0 1.1.9 2 2 2h6.4c1.1 0 2-.9 2-2v-6.4c0-1.1-.9-2-2-2z"/></clipPath><circle clip-path="url(#a)" cx="15.5" cy="18.5" fill="none" r="11.5" stroke="#fff" stroke-miterlimit="10" stroke-width="4"/><path clip-path="url(#b)" d="m5.3 8.3h20.5v20.5h-20.5z" fill="#fff"/></svg>