<?xml version="1.0" encoding="UTF-8"?>
<svg width="657px" height="427px" viewBox="0 0 657 427" version="1.1" xmlns="http://www.w3.org/2000/svg" xmlns:xlink="http://www.w3.org/1999/xlink">
    <title>F2C44B29-85DD-42E8-8CFD-318ACA3F2155</title>
    <g id="OSM-Quality-Site" stroke="none" stroke-width="1" fill="none" fill-rule="evenodd">
        <g id="Desktop-HD-Copy-6" transform="translate(-631.000000, -164.000000)">
            <g id="Group" transform="translate(631.000000, 164.000000)">
                <rect id="Rectangle-Copy" x="0" y="0" width="657" height="427"></rect>
                <g id="undraw_city_driver_re_0x5e" transform="translate(320.000000, 213.500000) scale(-1, 1) translate(-320.000000, -213.500000) translate(12.000000, 0.000000)">
                    <path d="M605.615003,314.195214 C594.833068,336.353235 576.165258,353.306657 554.807895,366.206992 C546.048282,371.454115 536.939288,376.099458 527.54444,380.110623 C521.398306,382.761376 515.168156,385.180308 508.85399,387.367417 C477.533149,398.26116 444.392381,403.585469 411.194321,403.60274 C405.769114,403.608272 400.343919,403.469558 394.918735,403.186431 C393.362288,403.106623 391.805752,403.015415 390.249126,402.912805 C382.048319,402.371253 373.874245,401.50287 365.726905,400.307656 C365.566512,400.284853 365.400809,400.262051 365.24041,400.233549 C348.198476,397.726844 331.396914,393.804494 315.011465,388.507526 C311.83543,387.481428 308.678394,386.404025 305.540358,385.275317 C304.693385,384.978889 303.846412,384.665359 303.005059,384.357501 C299.468274,383.052076 295.958314,381.682044 292.475179,380.247407 C289.54504,379.044592 286.632139,377.796173 283.736475,376.502149 C280.886525,375.219526 278.055681,373.895099 275.243943,372.528868 C270.642796,370.282888 266.091202,367.928572 261.589161,365.465921 C258.115522,363.550507 254.687621,361.562917 251.305459,359.50315 C242.917726,354.399963 234.801393,348.8668 226.989178,342.925964 C224.230895,340.828163 221.510707,338.677157 218.828614,336.472946 C216.968707,334.9452 215.125842,333.38325 213.254477,331.866934 C209.305808,328.668928 205.242569,325.630537 200.710163,323.356019 C199.342485,322.669545 197.940514,322.053072 196.509725,321.509008 C191.161674,319.537906 185.527418,318.446255 179.827563,318.276799 C170.104683,317.894862 160.066883,319.696235 150.664215,322.36409 C146.194961,323.623911 141.77684,325.071849 137.358724,326.553991 C135.544645,327.163949 133.732427,327.775808 131.922072,328.389567 C128.179366,329.660788 124.436894,330.903507 120.659794,332.037916 C119.400666,332.414152 118.141823,332.784687 116.876829,333.132421 C111.827374,334.580546 106.681186,335.670183 101.476984,336.393133 C89.8549016,337.865065 78.0511331,336.840701 66.8596837,333.388945 L65.9040175,333.092517 C64.3017502,332.590869 62.7165254,332.043616 61.1368917,331.445088 L60.1812255,331.080253 C58.6591574,330.493097 57.1654953,329.864136 55.7002393,329.193372 L54.7445731,328.760131 C53.3367663,328.104568 51.9575104,327.420503 50.6014205,326.696533 C50.4868502,326.639528 50.3781515,326.582522 50.2635869,326.519816 C49.7371301,326.24619 49.2165506,325.949762 48.7012647,325.670435 C40.3923078,321.038197 32.8363694,315.177959 26.2910001,308.289472 C26.1021022,308.101354 25.9246613,307.907535 25.7187209,307.719417 C24.8086081,306.738923 23.9158182,305.741328 23.0518082,304.72093 C22.7312975,304.344694 22.4107869,303.968458 22.0961478,303.580821 C21.0717451,302.332401 20.0817135,301.057379 19.126053,299.755755 C18.9829832,299.567637 18.8454989,299.373818 18.7082892,299.1857 C14.8001776,293.797819 11.558635,287.960118 9.05387045,281.799036 C8.97367125,281.610918 8.89935507,281.4171 8.83060145,281.228982 C8.06943196,279.273694 7.37317801,277.284204 6.7418396,275.26051 C6.48420522,274.41683 6.23830257,273.550347 6.02062473,272.706666 C5.94629139,272.455842 5.87755493,272.199317 5.81467862,271.948493 C2.68447163,259.566908 2.34666667,246.689342 2.34666667,233.885951 L2.34666667,229.411022 C2.43831718,208.70094 2.75882787,187.637424 5.82616426,167.212369 C5.83834604,167.070596 5.85934513,166.929712 5.88904058,166.790529 C6.91920274,159.915032 8.31563901,153.098959 10.0724359,146.371175 C11.9173031,139.313508 14.2716849,132.397844 17.1171928,125.678194 C24.1734411,109.146612 34.4345102,94.1028722 45.8284002,80.1593376 C74.4996396,45.0952817 112.138454,15.6177605 156.192495,4.62140806 C203.66317,-7.2528284 256.421555,4.12546059 294.712567,34.4922669 C306.003905,43.4421235 316.184774,53.9881328 328.700303,61.0910127 C329.123927,61.3361361 329.553136,61.575559 329.987931,61.8092814 C331.641898,62.7042328 333.332005,63.5175107 335.058251,64.2491149 C337.345715,65.222473 339.699949,66.0321037 342.103042,66.6718468 C349.708632,68.7069416 357.657688,68.889359 365.240387,66.3640173 C365.858495,66.1530971 366.476602,65.9307759 367.088849,65.6856524 C368.387923,65.1726033 369.629734,64.6937575 370.825712,64.2491149 C378.986557,61.2221252 385.270171,59.7513844 395.187815,60.2815352 C418.740235,61.6032861 441.959431,66.4439188 464.067259,74.6412095 C464.960049,74.9661406 465.852839,75.3024728 466.739763,75.638805 C524.374001,97.6144367 573.927823,141.252085 599.66893,197.328352 C600.355497,198.810494 601.017382,200.304036 601.654585,201.80898 C617.008887,237.505757 622.548653,279.387683 605.615003,314.195214 Z" id="Background" fill="#F7F8F6"></path>
                    <circle id="Oval" fill="#FFFFFF" cx="130" cy="159.5" r="59.5"></circle>
                    <g id="Buildings" transform="translate(251.093333, 33.926027)" fill-rule="nonzero">
                        <rect id="Rectangle" fill="#E4E4E4" x="77.4935684" y="0" width="13.421124" height="33.4465493"></rect>
                        <path d="M114.081694,30.8102149 L114.081694,367.470606 C97.0178108,364.958859 80.1946092,361.028618 63.7880564,355.720993 C60.6079307,354.692831 57.4468292,353.61326 54.3047518,352.482281 C53.4566877,352.185257 52.6086236,351.871096 51.7661866,351.562619 C48.2248467,350.254567 44.710366,348.88178 41.2227445,347.444256 C38.2888325,346.239022 35.3721797,344.98809 32.4727861,343.691463 C29.6191651,342.40626 26.7846752,341.079169 23.9693164,339.71019 C19.3622426,337.45969 14.8047864,335.100638 10.2969476,332.633033 C6.81883439,330.713766 3.38651851,328.722177 0,326.658266 L0,30.8102149 L114.081694,30.8102149 Z" id="Path" fill="#E4E4E4"></path>
                        <path d="M160.094792,30.8102149 L160.094792,370.846575 C154.662598,370.852118 149.230415,370.713126 143.798244,370.429429 C142.239792,370.349461 140.681251,370.258069 139.12262,370.155253 C130.911251,369.612611 122.726649,368.742481 114.568815,367.544862 C114.408216,367.522014 114.242299,367.499166 114.081694,367.470606 L114.081694,30.8102149 L160.094792,30.8102149 Z" id="Path" fill="#CACACA"></path>
                        <rect id="Rectangle" fill="#FFFFFF" x="20.6116989" y="64.2557417" width="17.2557317" height="17.2010789"></rect>
                        <rect id="Rectangle" fill="#FFFFFF" x="48.4126031" y="64.2557417" width="17.2557317" height="17.2010789"></rect>
                        <rect id="Rectangle" fill="#FFFFFF" x="76.2135131" y="64.2557417" width="17.2557317" height="17.2010789"></rect>
                        <rect id="Rectangle" fill="#FFFFFF" x="21.091027" y="103.435982" width="17.2557317" height="17.2010789"></rect>
                        <rect id="Rectangle" fill="#FFFFFF" x="48.8919312" y="103.435982" width="17.2557317" height="17.2010789"></rect>
                        <rect id="Rectangle" fill="#FFFFFF" x="76.6928355" y="103.435982" width="17.2557317" height="17.2010789"></rect>
                        <rect id="Rectangle" fill="#FFFFFF" x="21.5703551" y="142.616228" width="17.2557317" height="17.2010789"></rect>
                        <rect id="Rectangle" fill="#FFFFFF" x="49.3712593" y="142.616228" width="17.2557317" height="17.2010789"></rect>
                        <rect id="Rectangle" fill="#FFFFFF" x="77.1721636" y="142.616228" width="17.2557317" height="17.2010789"></rect>
                        <rect id="Rectangle" fill="#FFFFFF" x="22.0496775" y="181.796468" width="17.2557317" height="17.2010789"></rect>
                        <rect id="Rectangle" fill="#FFFFFF" x="49.8505817" y="181.796468" width="17.2557317" height="17.2010789"></rect>
                        <rect id="Rectangle" fill="#FFFFFF" x="77.651486" y="181.796468" width="17.2557317" height="17.2010789"></rect>
                        <rect id="Rectangle" fill="#FFFFFF" x="22.5290056" y="220.976709" width="17.2557317" height="17.2010789"></rect>
                        <rect id="Rectangle" fill="#FFFFFF" x="50.3299098" y="220.976709" width="17.2557317" height="17.2010789"></rect>
                        <rect id="Rectangle" fill="#FFFFFF" x="78.1308141" y="220.976709" width="17.2557317" height="17.2010789"></rect>
                        <rect id="Rectangle" fill="#FFFFFF" x="23.008328" y="260.156949" width="17.2557317" height="17.2010789"></rect>
                        <rect id="Rectangle" fill="#FFFFFF" x="50.8092379" y="260.156949" width="17.2557317" height="17.2010789"></rect>
                        <rect id="Rectangle" fill="#FFFFFF" x="78.6101422" y="260.156949" width="17.2557317" height="17.2010789"></rect>
                        <rect id="Rectangle" fill="#FFFFFF" x="23.4876561" y="299.337189" width="17.2557317" height="17.2010789"></rect>
                        <rect id="Rectangle" fill="#FFFFFF" x="51.2885603" y="299.337189" width="17.2557317" height="17.2010789"></rect>
                        <rect id="Rectangle" fill="#FFFFFF" x="79.0894646" y="299.337189" width="17.2557317" height="17.2010789"></rect>
                        <path d="M41.2227331,338.516413 L41.2227331,347.444291 C38.288821,346.239056 35.3721682,344.988125 32.4727746,343.691498 C29.6191536,342.406294 26.7846637,341.079203 23.9693049,339.710224 L23.9693049,338.516413 L41.2227331,338.516413 Z" id="Path" fill="#FFFFFF"></path>
                        <path d="M69.0254939,338.516384 L69.0254939,355.720999 L63.788045,355.720999 C60.6079193,354.692836 57.4468177,353.613266 54.3047403,352.482287 C53.4566762,352.185262 52.6086122,351.871102 51.7661751,351.562624 L51.7661751,338.516384 L69.0254939,338.516384 Z" id="Path" fill="#FFFFFF"></path>
                        <rect id="Rectangle" fill="#FFFFFF" x="79.5687927" y="338.51743" width="17.2557317" height="17.2010789"></rect>
                        <rect id="Rectangle" fill="#E4E4E4" x="233.91175" y="170.329081" width="13.421124" height="19.823019"></rect>
                        <path d="M257.880242,188.450365 L257.880242,354.578579 C226.519061,365.494238 193.335609,370.829259 160.094792,370.846564 C154.662598,370.852107 149.230415,370.713114 143.798244,370.429418 L143.798244,188.450365 L257.880242,188.450365 Z" id="Path" fill="#E4E4E4"></path>
                        <path d="M303.893333,188.450365 L303.893333,333.375583 C295.122438,338.633263 286.001712,343.287951 276.594764,347.307185 C270.440714,349.963272 264.20254,352.38707 257.880242,354.578579 L257.880242,188.450365 L303.893333,188.450365 Z" id="Path" fill="#CACACA"></path>
                        <rect id="Rectangle" fill="#FFFFFF" x="166.326791" y="220.976709" width="17.2557317" height="17.2010789"></rect>
                        <rect id="Rectangle" fill="#FFFFFF" x="194.127695" y="220.976709" width="17.2557317" height="17.2010789"></rect>
                        <rect id="Rectangle" fill="#FFFFFF" x="221.928599" y="220.976709" width="17.2557317" height="17.2010789"></rect>
                        <rect id="Rectangle" fill="#FFFFFF" x="166.806113" y="260.156949" width="17.2557317" height="17.2010789"></rect>
                        <rect id="Rectangle" fill="#FFFFFF" x="194.607017" y="260.156949" width="17.2557317" height="17.2010789"></rect>
                        <rect id="Rectangle" fill="#FFFFFF" x="222.407927" y="260.156949" width="17.2557317" height="17.2010789"></rect>
                        <rect id="Rectangle" fill="#FFFFFF" x="167.285441" y="299.337189" width="17.2557317" height="17.2010789"></rect>
                        <rect id="Rectangle" fill="#FFFFFF" x="195.086345" y="299.337189" width="17.2557317" height="17.2010789"></rect>
                        <rect id="Rectangle" fill="#FFFFFF" x="222.88725" y="299.337189" width="17.2557317" height="17.2010789"></rect>
                        <rect id="Rectangle" fill="#FFFFFF" x="167.764769" y="338.51743" width="17.2557317" height="17.2010789"></rect>
                        <rect id="Rectangle" fill="#FFFFFF" x="195.565674" y="338.51743" width="17.2557317" height="17.2010789"></rect>
                        <rect id="Rectangle" fill="#FFFFFF" x="223.366578" y="338.51743" width="17.2557317" height="17.2010789"></rect>
                    </g>
                    <g id="Car" transform="translate(64.533333, 312.677346)" fill-rule="nonzero">
                        <path d="M187.733333,94.0038046 C187.733333,94.0038046 190.967284,105.036366 204.511516,104.534896 C218.055748,104.033425 223.911111,93.8032037 223.911111,93.8032037 L187.733333,94.0038046 Z" id="Path" fill="#3F3D56"></path>
                        <polygon id="Path" fill="#2F2E41" points="4.76892217 51.205686 0.977777778 58.0897211 1.59326939 71.0106291 92.4402453 97.7737963 132 102.597254 124.265983 55.8224115 97.2023935 51.0713834 56.6036086 52.2214594 22.1836968 45.9244851"></polygon>
                        <path d="M17.2291144,96.7345538 L14.8225342,96.7345538 C10.0721238,96.7507941 5.74501307,94.0815544 3.73696862,89.8960381 C0.0268756575,82.0217595 1.12589132,71.1331417 1.14216258,70.9778459 C1.98288984,61.5663545 7.28835231,55.4261018 14.3451255,55.7047573 C22.1354985,56.0101615 28.7785035,82.2067991 29.0574792,83.3218282 C29.5204167,85.2022447 29.3986329,87.1739562 28.7075667,88.9870019 C26.9460032,93.6653208 22.3533681,96.7650972 17.2291144,96.7345538 L17.2291144,96.7345538 Z" id="Path" fill="#3F3D56"></path>
                        <path d="M113.505987,114.322654 C113.1003,114.313276 112.695846,114.274791 112.29584,114.207505 C106.063507,113.240645 100.742807,109.251698 98.1373124,103.592811 C97.1759276,101.533862 96.2510579,99.4257048 95.3883937,97.3267099 C91.9241786,88.8978668 94.828252,74.1630831 99.5469698,68.4597818 C103.711715,63.425865 107.903466,63.4657078 114.24915,63.5246783 C114.900627,63.5308628 115.575514,63.5370296 116.276095,63.5382253 C123.321652,63.5495812 130.770171,89.0741775 133.217829,97.4617819 C133.412636,98.1291727 133.573759,98.6814144 133.69838,99.0955949 C134.081869,100.37021 134.03629,101.89465 133.562895,103.62628 C132.069388,109.089518 127.14747,113.141274 121.31529,113.708857 C117.126335,114.116072 114.498878,114.322654 113.505987,114.322654 Z" id="Path" fill="#3F3D56"></path>
                        <path d="M0.873925246,70.4975241 C0.873925246,70.4975241 -1.80246997,58.7140751 2.21212137,50.6891404 L6.25832338,41.0389016 L21.548308,55.0571526 L25.0397064,76.9922296 L84.8715122,85.9378956 C84.8715122,85.9378956 81.1657431,49.9780625 104.429776,48.5559214 C127.693809,47.1337803 138.732529,85.9378956 138.732529,85.9378956 L150.340224,94.2675763 L231.249666,88.3758518 C231.249666,88.3758518 232.677977,92.2359461 230.625625,94.2675733 C228.573273,96.2992005 130.370213,102.597254 130.370213,102.597254 C130.370213,102.597254 125.429188,54.4476459 105.870918,58.9172293 C86.312648,63.3868127 92.162311,97.2651773 92.162311,97.2651773 L22.2850662,85.1252435 C22.2850662,85.1252435 20.0204241,52.4160158 8.49134292,52.4160158 C-3.03773822,52.4160158 0.873925246,70.4975241 0.873925246,70.4975241 Z" id="Path" fill="#3F3D56"></path>
                        <polygon id="Path" fill="#3F3D56" points="15.8909537 29.313554 29.0166012 9.08709808 84.9810497 5.86270023 147.095343 6.66887242 176 33.0694844 86.6208308 38.1075515 14.6666667 34.2785972"></polygon>
                        <path d="M15.3483112,29.3135011 C15.3483112,29.3135011 4.16513264,29.5465596 2.93333333,50.6779588 C2.93333333,50.6779588 14.8407207,29.1362409 25.105709,77.1434975 L86.3876906,87.0937206 C86.3876906,87.0937206 84.1293948,47.087672 107.328267,50.1650589 C130.527139,53.2424459 136.070227,89.9659482 136.070227,89.9659482 C136.070227,89.9659482 140.586822,98.9929558 165.428096,97.5568405 C190.26937,96.1207252 227.428629,93.8639755 231.329323,88.7349952 C231.329323,88.7349952 240.362512,58.1662699 212.236443,38.470986 L175.693096,33.1368464 L92.957281,34.7781181 L15.3483112,29.3135011 Z" id="Path" fill="#7AC14B"></path>
                        <path d="M43.557263,43.9702517 L36.6313504,43.9702517 C36.1206268,43.9722357 35.6478663,43.6933186 35.3919427,43.2390211 C35.1360191,42.7847237 35.1360191,42.2244297 35.3919427,41.7701322 C35.6478663,41.3158347 36.1206268,41.0369177 36.6313504,41.0389016 L43.557263,41.0389016 C44.3426632,41.0419795 44.9777778,41.6972806 44.9777778,42.5045767 C44.9777778,43.3118727 44.3426632,43.9671738 43.557263,43.9702517 L43.557263,43.9702517 Z" id="Path" fill="#CACACA"></path>
                        <ellipse id="Oval" fill="#FFFFFF" cx="149.6" cy="83.5434783" rx="4.88888889" ry="4.39702517"></ellipse>
                        <path d="M147.718501,61.5583524 C144.630605,61.5583524 140.944099,60.2690321 137.644337,57.7828171 C131.821755,53.3953243 129.375513,46.9171839 132.191284,43.3419782 C135.007052,39.7665758 142.035011,40.4274816 147.857543,44.8145951 C150.671411,46.9350044 152.790016,49.5998119 153.823069,52.3180808 C154.862228,55.0526042 154.680244,57.5162946 153.310548,59.2552371 C152.090554,60.8044218 150.079406,61.5583524 147.718501,61.5583524 Z" id="Path" fill="#FFFFFF"></path>
                        <path d="M227.937227,56.6679159 C225.601838,56.6679159 221.40709,54.400576 217.253811,50.7211312 C214.764377,48.5155425 212.701989,46.1515224 211.446568,44.0643488 C210.171392,41.9442299 209.880897,40.349383 210.628695,39.5734743 C211.376493,38.7975656 213.057624,38.9493169 215.362552,40.0006981 C217.631673,41.0359013 220.252309,42.8205671 222.741847,45.0261412 C227.995573,49.6806015 230.905663,54.5773848 229.367066,56.1739936 C228.985141,56.5257096 228.465344,56.7052678 227.937227,56.6679159 Z" id="Path" fill="#FFFFFF"></path>
                        <path d="M36.8669571,29.3135011 C36.8184585,29.3135011 36.7697105,29.3112282 36.7207132,29.3066823 L21.9728992,27.9259565 C21.4257609,27.8747184 20.9439154,27.5420376 20.6992589,27.0465967 C20.4546024,26.5511558 20.4819785,25.9635144 20.7716207,25.4933108 L29.0879719,11.9923835 C29.3640838,11.5437819 29.8425418,11.2615851 30.3661765,11.2384925 L41.365866,10.7498376 C41.8790055,10.7270578 42.3713446,10.9558405 42.6870794,11.363786 C43.0028141,11.7717315 43.1028692,12.3083525 42.9555815,12.8038317 L38.3874077,28.1740388 C38.184827,28.8493779 37.5675712,29.3119642 36.8669571,29.3135011 Z" id="Path" fill="#FFFFFF"></path>
                        <path d="M76.211626,32.2448513 C76.0646945,32.2448513 75.9166912,32.2377382 75.7676161,32.2235121 L50.0116781,29.7316216 C48.6940549,29.6041734 47.5005521,28.9124891 46.7493667,27.8409771 C45.9981813,26.7694651 45.7656721,25.4270457 46.1138279,24.1716183 L49.8190758,10.8097814 C50.3310735,8.93797418 52.0293699,7.61613641 54.0005723,7.55519047 L74.786738,6.84182155 C77.1242177,6.77332535 79.1291832,8.46783201 79.4103229,10.7494675 L81.125499,25.2914607 C81.1829197,25.7765833 81.1579485,26.2677106 81.0516049,26.7447906 L80.6008552,28.7698002 C80.1490859,30.7970896 78.3232778,32.2426227 76.211626,32.2448513 Z" id="Path" fill="#FFFFFF"></path>
                        <path d="M95.8883805,33.221968 C94.3352573,33.2169844 92.9886687,32.144621 92.6336346,30.6300329 L88.0859836,10.939941 C87.8564755,9.94620198 88.0920059,8.90186682 88.7256967,8.10347137 C89.3593874,7.30507591 90.322026,6.83981693 91.340274,6.83981693 L145.26766,6.83981693 C146.170827,6.84183941 147.035108,7.20820275 147.665384,7.85619723 L165.279589,26.0479914 C166.204301,27.003031 166.476302,28.4161169 165.972372,29.6470922 C165.468441,30.8780674 164.284335,31.6930228 162.956478,31.7227667 L95.9624755,33.2211658 C95.9377672,33.221968 95.9129488,33.221968 95.8883805,33.221968 Z" id="Path" fill="#FFFFFF"></path>
                        <path d="M27.3777778,9.47481596 L27.8382979,8.78390493 C27.8382979,8.78390493 30.5201867,1.67562056 67.4477552,0.490908878 C104.375324,-0.693802808 138.827297,-0.10144839 146.666667,6.41447871 L82.9201986,6.21702629 L29.0760911,9.77116705 L27.3777778,9.47481596 Z" id="Path" fill="#7AC14B"></path>
                        <path d="M10.7555556,61.5583524 C6.97544195,61.5583524 3.91111111,67.9016602 3.91111111,75.7265461 C3.91111111,83.5514173 6.97544195,89.8947368 10.7555556,89.8947368 C14.5356692,89.8947368 17.6,83.5514173 17.6,75.7265461 C17.6,67.9016602 14.5356575,61.5583524 10.7555556,61.5583524 Z M11.057515,64.5943952 C11.8913487,64.5943952 12.567321,66.2255247 12.567321,68.2376435 C12.567321,70.2497624 11.8913487,71.8808919 11.057515,71.8808919 C10.2236813,71.8808919 9.54771191,70.2497507 9.54771191,68.2376435 C9.54771191,66.2255364 10.2236842,64.5943952 11.057515,64.5943952 Z M11.9633992,75.7265373 C11.9633992,76.3972417 11.512718,76.9409544 10.9568628,76.9409544 C10.4010076,76.9409544 9.95032646,76.3972417 9.95032646,75.7265373 C9.95032646,75.055833 10.4010076,74.5121202 10.9568628,74.5121202 C11.512718,74.5121202 11.9633992,75.0558388 11.9633992,75.7265461 L11.9633992,75.7265373 Z M6.70426081,76.5059684 C5.4098188,76.6065022 4.32681175,76.2484177 4.28513271,75.7061658 C4.24345367,75.163914 5.25893787,74.6428226 6.55337698,74.5422888 C7.84772019,74.441755 8.93073014,74.7998367 8.97240047,75.3421031 C9.01407079,75.8843695 7.99858949,76.4054434 6.70424919,76.5059772 L6.70426081,76.5059684 Z M11.0575266,86.858697 C10.2236959,86.858697 9.54772353,85.2275441 9.54772353,83.2154369 C9.54772353,81.2033298 10.2236959,79.5721886 11.0575266,79.5721886 C11.8913574,79.5721886 12.5673327,81.203321 12.5673327,83.2154369 C12.5673327,85.2275529 11.8913487,86.858697 11.057515,86.858697 L11.0575266,86.858697 Z M14.9578533,76.5059684 C13.6634142,76.6065022 12.5804042,76.2484177 12.5387281,75.7061658 C12.4970519,75.163914 13.5125303,74.6428226 14.8069724,74.5422888 C16.1013156,74.441755 17.1843226,74.7998367 17.2259958,75.3421031 C17.2676691,75.8843695 16.2521849,76.4054434 14.9578417,76.5059772 L14.9578533,76.5059684 Z" id="Shape" fill="#E4E4E4"></path>
                        <path d="M108.044444,72.3066362 C101.834339,72.3066362 96.8,80.399826 96.8,90.3832952 C96.8,100.36675 101.834339,108.459954 108.044444,108.459954 C114.25455,108.459954 119.288889,100.36675 119.288889,90.3832952 C119.288889,80.399826 114.254553,72.3066362 108.044444,72.3066362 Z M101.326829,91.7398018 C99.5132499,91.8756737 97.9956987,91.3916663 97.9373367,90.6587158 C97.8789747,89.9257653 99.3018179,89.2214267 101.115394,89.0855401 C102.928969,88.9496536 104.446521,89.4336756 104.504883,90.1666144 C104.563308,90.8995707 103.140404,91.6039036 101.326829,91.7398018 Z M108.051055,105.531333 C106.882756,105.531333 105.935656,103.32656 105.935656,100.606841 C105.935656,97.8871215 106.882756,95.6823482 108.051055,95.6823482 C109.219402,95.6823482 110.166505,97.8871215 110.166505,100.606841 C110.166505,103.32656 109.219402,105.531333 108.051055,105.531333 L108.051055,105.531333 Z M106.378603,90.4842807 C106.378603,89.4134289 107.124438,88.5453354 108.044444,88.5453354 C108.964451,88.5453354 109.710289,89.4134377 109.710289,90.4842807 C109.710289,91.5551238 108.964451,92.423226 108.044444,92.423226 C107.124438,92.423226 106.378603,91.5551354 106.378603,90.4842807 Z M108.051055,85.2862045 C106.882756,85.2862045 105.935656,83.0814428 105.935656,80.3617119 C105.935656,77.641981 106.882756,75.437231 108.051055,75.437231 C109.219402,75.437231 110.166505,77.6419927 110.166505,80.3617119 C110.166505,83.0814312 109.219402,85.2862045 108.051055,85.2862045 L108.051055,85.2862045 Z M115.181726,91.335848 C113.36815,91.47172 111.850599,90.9877126 111.792237,90.2547621 C111.733875,89.5218116 113.156766,88.8174729 114.970345,88.6815864 C116.783924,88.5456998 118.301421,89.0297218 118.359783,89.7626607 C118.418145,90.4955995 116.995305,91.1999556 115.181726,91.335848 Z" id="Shape" fill="#E4E4E4"></path>
                        <path d="M69.4222222,35.5281775 L72.0296305,40.8292031 C72.0296305,40.8292031 76.3753077,42.3437826 79.2,37.2320795 L73.4761936,32.2448513 L69.4222222,35.5281775 Z" id="Path" fill="#CACACA"></path>
                        <path d="M65.9999985,36.1533181 C61.4172435,36.1533181 57.6888889,33.7425825 57.6888889,30.7791777 C57.6888889,27.8158654 61.4172435,25.4050343 65.9999985,25.4050343 C70.5827534,25.4050343 74.3111111,27.8158714 74.3111111,30.7791777 C74.3111111,33.7425915 70.5827534,36.1533181 65.9999985,36.1533181 Z" id="Path" fill="#CACACA"></path>
                        <path d="M221.433941,55.6956522 L175.375038,57.0217391 C175.375038,57.0217391 165.29522,59.8065232 164.266667,67.7630479 C164.266667,67.7630479 165.70663,74.2608696 169.409436,74.2608696 C173.112241,74.2608696 229.888338,71.3434753 229.888338,71.3434753 C229.888338,71.3434753 233.591143,65.7739072 230.50547,61.7956463 C227.419797,57.8173854 221.433941,55.6956522 221.433941,55.6956522 Z" id="Path" fill="#3F3D56"></path>
                        <polygon id="Rectangle" fill="#E4E4E4" transform="translate(197.694393, 58.962092) rotate(-1.893620) translate(-197.694393, -58.962092) " points="170.718872 58.6493847 224.669765 58.6624004 224.669914 59.2747986 170.71902 59.261783"></polygon>
                        <polygon id="Rectangle" fill="#E4E4E4" transform="translate(197.297806, 61.336379) rotate(-2.594090) translate(-197.297806, -61.336379) " points="167.94544 61.0205367 226.649969 61.0399257 226.650172 61.6522222 167.945644 61.6328332"></polygon>
                        <polygon id="Rectangle" fill="#E4E4E4" transform="translate(197.230133, 64.329494) rotate(-3.073800) translate(-197.230133, -64.329494) " points="165.739832 64.0108983 228.720193 64.0355327 228.720434 64.6480893 165.740073 64.6234549"></polygon>
                    </g>
                    <g id="fa69add6-ae6a-462f-9f4a-a8964149f7d7" transform="translate(0.000000, 198.876712)"></g>
                </g>
            </g>
        </g>
    </g>
</svg>