<?xml version="1.0" encoding="utf-8"?>
<!-- Generator: Adobe Illustrator 22.1.0, SVG Export Plug-In . SVG Version: 6.00 Build 0)  -->
<svg version="1.1" id="Layer_1" xmlns="http://www.w3.org/2000/svg" xmlns:xlink="http://www.w3.org/1999/xlink" x="0px" y="0px"
	 viewBox="0 0 357 354" style="enable-background:new 0 0 357 354;" xml:space="preserve">
<style type="text/css">
	.st0{fill:#FFFFFF;}
	.st1{fill:#E57430;}
	.st2{fill:#D8D4AD;}
	.st3{fill:#543425;}
	.st4{fill:#DB5131;stroke:#FFFFFF;stroke-width:1.2478;stroke-miterlimit:10;}
	.st5{fill:#FF7900;stroke:#FFFFFF;stroke-width:1.2478;stroke-miterlimit:10;}
	.st6{fill:#F6B30B;stroke:#FFFFFF;stroke-width:1.2478;stroke-miterlimit:10;}
</style>
<g>
	<path class="st0" d="M62.8,314.2l-4.5-1.9l-2.8-1.9l-9.9-9.8l-1.9-2.8l-1.9-4.5L41,290l-0.3-51.5l-6.8-6.8l-1.9-2.8l-1.9-4.5
		l-0.7-3.3l-0.1-16.9l0.6-3.3l1.9-4.5l1.9-2.8l7.7-7.8c-6.3-10.7-9.5-22.8-9.5-35.9c-0.1-16.4,4.6-31,14.1-43.6
		c-0.7-0.6-1.3-1.2-2-1.9c-10.1-9.9-15.2-22.1-15.3-36.2c-0.1-14.1,4.9-26.3,14.8-36.4c9.9-10,22.1-15.2,36.2-15.2l0.3,0
		c4.6,0,9.1,0.6,13.5,1.8L96,18l5.2,0c6.9,0,13.5,1.4,19.3,4.2l2.7-1.8l4.5-1.9l3.3-0.7l9.9-0.1l3.3,0.6l4.5,1.9l2.8,1.9l2.8,2.7
		l2.7-2.8l2.8-1.9l4.5-1.9l3.3-0.7l9.9-0.1l3.3,0.6l4.5,1.9l0.4,0.2c6.3-2.8,13.2-4.2,20.5-4.3l3.3,0.6l4.5,1.9l2.8,1.9l1.6,1.6
		c6-3.1,12.7-4.7,19.7-4.7l5.5,0l0.8,0.2l0.8-0.2l0.8,0c3.5,0,7,0.1,10.2,0.4c2.2,0.2,4.4,0.5,6.5,1l1.8-0.8l3.3-0.7L278,17l3.3,0.6
		l4.5,1.9l2.8,1.9l9.9,9.8l1.9,2.8l1.9,4.5l0.7,3.3l0.3,50l-0.6,3.3l-1.9,4.5l-1.9,2.8l-7.1,7.1c9,12.4,13.5,26.6,13.6,42.5
		l0.2,42.4l-0.6,3.3l-0.5,1.2l0.2,0.4l0.7,3.3l0.5,85.6l-0.6,3.3l-1.9,4.5l-1.9,2.8l-9.8,9.9L289,311l-4.5,1.9l-3.3,0.7l-16.9,0.1
		L261,313l-2.9-1.2l-2.9,1.2l-3.3,0.7l-16.8,0.1l-3.3-0.6l-4.5-1.9l-2.8-1.9l-0.4-0.4l-0.4,0.4l-2.8,1.9l-4.5,1.9l-3.3,0.7
		l-16.9,0.1l-1-0.2l-1,0.2l-16.8,0.1l-3.3-0.6l-4.5-1.9l-2.8-1.9l-1.6-1.5l-1.5,1.6l-2.8,1.9l-4.5,1.9l-3.3,0.7l-16.8,0.1l-1.1-0.2
		l-1.1,0.2l-9.6,0.1c-9.7,0-18.6-3-26.2-8.8l-4.6,4.6l-2.8,1.9l-4.5,1.9l-3.3,0.7l-16.9,0.1L62.8,314.2z M105.2,143.8
		c-1.7,0-2.4,0.3-3.7,1.5c-1.3,1.3-1.6,2.1-1.6,3.9c0,1.8,0.3,2.5,1.5,3.7c1.2,1.2,2,1.5,3.7,1.5c1.8,0,2.6-0.3,3.8-1.6
		c1.2-1.2,1.5-1.9,1.5-3.7c0-1.7-0.3-2.5-1.6-3.8C107.7,144.1,106.9,143.8,105.2,143.8z"/>
	<path class="st0" d="M296.9,202.9l-1.6-3.8l1.8-4.5l-0.2-42.4c-0.1-17.1-6-32-17.6-44.3l3.8-1.6l9.8-9.9l1.9-4.5l-0.3-50l-1.9-4.5
		l-9.9-9.8l-4.5-1.9l-9.9,0.1l-4.5,1.9c-2.6-0.8-5.2-1.2-7.9-1.4c-3.3-0.2-6.7-0.4-10.3-0.3l-0.8,0.3l-0.8-0.3l-5.5,0
		c-7.8,0-14.9,2.5-21,7l-6.5-6.4l-4.5-1.9c-7.9,0-15.2,2-21.6,5.9l-2.6-2.6l-4.5-1.9l-9.9,0.1l-4.5,1.9l-8.8,8.9l-8.9-8.8l-4.5-1.9
		l-9.9,0.1l-4.5,1.9l-4.6,4.7c-5.8-4.3-13-6.5-20.9-6.4l-5,0l-2.4,1c-0.6-0.2-1.1-0.4-1.7-0.6c-4-1.2-8.1-1.8-12.2-1.7
		C68,25.4,57.9,29.7,49.7,38c-8.2,8.3-12.4,18.5-12.3,30.2C37.4,80,41.6,90.1,50,98.3c2.6,2.6,5.5,4.8,8.5,6.6
		c-12,12.5-18.1,27.6-18,45c0.1,14.4,4.4,27.2,12.9,38.3l-3.7,1.6l-9.8,9.9l-1.9,4.5l0.1,16.9l1.9,4.5l9.4,9.3l0.3,55.1l1.9,4.5
		l9.9,9.8l4.5,1.9l16.9-0.1l4.5-1.9l9.8-9.9l0.4-1c0.7,0.8,1.4,1.6,2.2,2.4c6.8,6.6,15.3,10.1,24.7,10.1l9.3-0.1l1.1-0.5l1.1,0.5
		l16.8-0.1l4.5-1.9l7.7-7.7l7.7,7.7l4.5,1.9l16.8-0.1l1-0.4l1,0.4l16.9-0.1l4.5-1.9l6.5-6.5l6.5,6.5l4.5,1.9l16.8-0.1l4.5-1.9
		l1.7-1.7l1.7,1.7l4.5,1.9l16.9-0.1l4.5-1.9l9.8-9.9l1.9-4.5L296.9,202.9z M95.3,139.2c2.9-2.9,5.8-4.1,9.8-4.1c4,0,7,1.2,9.9,4.1
		c2.9,2.9,4.1,5.9,4.1,9.9c0,4-1.2,7-4.1,9.8c-2.9,2.9-5.9,4.1-10,4.1c-4,0-7-1.2-9.9-4.1c-2.9-2.9-4.1-5.8-4.1-9.9
		C91.2,145.1,92.5,142.1,95.3,139.2z"/>
	<path class="st1" d="M80.5,100.2c-9,0-16.8-3.2-23.2-9.6c-6.4-6.4-9.6-14.1-9.6-23.1c0-9,3.2-16.8,9.6-23.2
		c6.4-6.4,14.2-9.6,23.2-9.6c3.2,0,6.3,0.5,9.4,1.4c3,0.9,5.9,2.3,8.6,4l1.8,8.9l-5.4,8.2l-9,1.8c-0.8-0.5-1.6-0.9-2.4-1.1
		c-1-0.3-2-0.4-3-0.4c-2.9,0-5.1,0.9-7.1,3s-3,4.3-3,7.1c0,2.9,0.9,5.1,3,7.2c2,2,4.3,3,7.1,3c1,0,2-0.1,3-0.5
		c1-0.3,1.9-0.8,2.7-1.4l8.9,1.6l5.7,8l-1.5,8.9c-2.8,2-5.8,3.4-9,4.4C87.1,99.7,83.8,100.2,80.5,100.2z"/>
	<path class="st1" d="M119.3,99.1l-5-2.4l-2.3-2.9l-5.3,5.3h-9.9l-6.4-6.4V42.6l6.4-6.4h5c7.8,0,14.1,2.7,18.8,8.1
		c2.1,2.5,3.8,5.1,4.9,7.9v-9.6l6.4-6.4h9.9l6.4,6.4v50l-6.4,6.4H132l0,0.1H119.3z M125.5,74.3v-3c-0.3,0.6-0.6,1.3-0.9,1.9
		L125.5,74.3z"/>
	<polygon class="st2" points="149.7,109 145.1,107.2 135.2,97.4 133.3,92.8 133.1,61.7 128.4,57.1 126.5,52.6 126.5,42.7 
		128.3,38.2 138.2,28.2 142.7,26.3 165.7,26.2 170.3,28.1 180.2,37.9 182.1,42.4 182.1,52.3 180.3,56.8 175.6,61.6 175.7,92.6 
		173.9,97.1 164.1,107.1 159.5,109 	"/>
	<polygon class="st1" points="150,99.1 143.6,92.7 143.6,58.8 143.4,58.8 137,52.4 137,42.5 143.4,36.1 166.5,36.1 172.9,42.5 
		172.9,52.4 166.5,58.8 166.2,58.8 166.2,92.7 159.8,99.1 	"/>
	<polygon class="st1" points="168.6,99 162.2,92.6 162.2,42.6 168.6,36.1 178.5,36.1 184.9,42.6 184.9,92.6 178.5,99 	"/>
	<path class="st1" d="M207.2,100.2c-8.9,0-16.7-3.2-23.1-9.6c-6.4-6.4-9.6-14.1-9.6-23.1c0-9,3.2-16.8,9.6-23.2
		c6.4-6.4,14.2-9.6,23.1-9.6l6.4,6.4v7.1h4.8l6.4,6.4v37l-5,6.2c-0.1,0-0.3,0.1-0.6,0.2c-0.7,0.3-1.5,0.5-2.4,0.7l-0.4,0.1
		c0,0-1.1,0.3-1.1,0.3l-0.4,0.1c-1.2,0.3-2.5,0.5-3.7,0.7C209.9,100.1,208.6,100.2,207.2,100.2z M197.1,67.5c0,2.9,0.9,5.1,3,7.1
		c0.7,0.7,1.4,1.3,2.2,1.7V71h-1.5l-3.7-3.7C197.1,67.4,197.1,67.5,197.1,67.5z"/>
	<path class="st1" d="M239.1,99c-4.7,0-8.9-1.8-12.2-5.1c-3.4-3.3-5.1-7.6-5.1-12.2c0-0.5,0-0.9,0.1-1.4c-1.9-1.8-3.5-3.8-4.9-6.2
		c-2.2-3.8-3.3-8-3.3-12.6c0-7,2.5-13,7.5-18c5-5,11-7.5,18.1-7.5h5.5l6.4,6.4v9.8l-6.4,6.4h-5.5c-0.9,0-1.4,0.2-2.1,0.9
		c-0.6,0.6-0.8,1.1-0.8,2c0,0.9,0.3,1.6,0.8,2.3c0.4,0.5,0.6,0.5,0.9,0.5h6.6l6.4,6.4v9.8l-1.1,1.1l1.1,1.1v9.8l-6.4,6.4H239.1z"/>
	<path class="st1" d="M268.9,99l-6.4-6.4V69.5c0-0.5,0-1-0.1-1.5v24.7L256,99h-9.8l-6.4-6.4v-50l6.4-6.4c3.3,0,6.5,0.1,9.5,0.4
		c3.4,0.3,6.8,1.2,10.1,2.7l3.1-3.1h9.9l6.4,6.4v50l-6.4,6.4H268.9z"/>
	<path class="st1" d="M105.2,203.8c-14.9,0-27.9-5.4-38.6-16c-10.7-10.6-16.1-23.6-16.1-38.6c0-15,5.4-28,16.1-38.7
		c10.7-10.6,23.7-16,38.6-16c15,0,28,5.4,38.7,16c10.6,10.6,16,23.7,16,38.7c0,14.9-5.4,27.9-16,38.5
		C133.2,198.4,120.2,203.8,105.2,203.8z M105.2,125.2c-6.6,0-12.1,2.3-16.8,7c-4.7,4.7-7,10.3-7,16.9c0,6.6,2.3,12.2,7,16.8
		c4.7,4.7,10.2,7,16.8,7c6.6,0,12.2-2.3,16.9-7c4.7-4.7,7-10.2,7-16.8c0-6.6-2.3-12.2-7-16.9C117.3,127.5,111.8,125.2,105.2,125.2z"
		/>
	<path class="st1" d="M157.2,207.2l-7.7-16.1l3-8.5c2.7-1.3,4.7-3.2,6.3-5.7c1.5-2.5,2.3-5.1,2.3-7.9c0-0.5,0-1-0.1-1.5
		c-0.1-0.5-0.1-1-0.3-1.6c-0.1-0.5-0.3-1-0.4-1.5c-0.2-0.5-0.4-1.1-0.7-1.7l-6.3-13.2c-0.9-2.1-1.8-4.2-2.4-6.3
		c-0.7-2.2-1.2-4.4-1.5-6.6l0-0.3l-0.3-2.8c-0.1-1.1-0.2-2.2-0.2-3.4c0-8.5,2.3-16.6,6.9-24c4.6-7.5,11-13.2,19.1-17.1l8.6,3
		l7.7,16.3L188,117c-1.8,0.8-3.2,1.9-4.5,3.3c-1.3,1.5-2.3,3-2.9,4.9l-0.1,0.2c-0.3,0.7-0.4,1.3-0.5,2c-0.1,0.8-0.2,1.7-0.2,2.5
		c0,2.3,0.4,4.4,1.3,6.5c1.2,2.7,2.5,5.5,3.8,8.2c0.2,0.5,0.4,0.9,0.6,1.3l0.3,0.5c0.3,0.6,0.6,1.2,0.8,1.8c0.2,0.5,0.5,1,0.7,1.4
		l0.1,0.2c1.1,2.3,1.9,4.7,2.6,7c0.7,2.4,1.2,4.8,1.5,7.3c0.1,0.8,0.2,1.6,0.2,2.5c0.1,0.9,0.1,1.7,0.1,2.5
		c-0.1,8.5-2.4,16.6-6.9,24c-4.6,7.5-11,13.3-19.2,17.2L157.2,207.2z"/>
	<path class="st1" d="M262.6,201.7l-6.4-6.4V153c0-5.8-1.7-10.8-5.2-15.3c-1.7-2.1-3.5-3.9-5.6-5.3v63l-6.4,6.4h-18l-6.4-6.4v-62.5
		c-0.2-0.1-0.3-0.2-0.5-0.3v62.8l-6.4,6.4h-18.1l-6.4-6.4v-91.7l6.4-6.4h2.2c2.6,0,5.2,0,7.6,0.1c2.6,0,5.3,0.3,7.9,0.6
		c2.6,0.3,5.3,0.8,8,1.5c0.9,0.2,1.8,0.5,2.7,0.8l3-3h10.4c15.3,0,28.5,5.5,39.4,16.4c10.9,10.9,16.4,24.1,16.4,39.4v42.4l-6.4,6.4
		H262.6z"/>
	<polygon class="st1" points="65.3,295.7 58.9,289.3 58.9,226.8 54.1,226.8 47.7,220.4 47.7,203.5 54.1,197.1 93.5,197.1 
		99.9,203.5 99.9,220.4 93.5,226.8 88.6,226.8 88.6,289.3 82.2,295.7 	"/>
	<path class="st1" d="M123.8,295.6c-6.8,0-12.8-2.5-17.7-7.3c-4.9-4.9-7.4-10.8-7.4-17.7c0-1.4,0.1-2.8,0.4-4.2
		c-3.7-3-6.8-6.7-9.3-11c-3.3-5.8-5-12.3-5-19.2c0-10.7,3.8-20,11.4-27.5c7.6-7.6,16.9-11.4,27.7-11.4h9.3l6.4,6.4v16.8l-6.4,6.4
		h-9.3c-2.7,0-4.8,0.9-6.7,2.8c-1.9,1.9-2.8,4-2.8,6.6c0,2.6,0.8,4.8,2.5,6.8c1.5,1.8,3,2.5,5,2.5h11.3l6.4,6.4v16.8l-1.9,1.9
		l1.9,1.9v16.8l-6.4,6.4H123.8z"/>
	<path class="st1" d="M176.6,295.6l-6.4-6.4v-8.9h-11.6v8.9l-6.4,6.4h-16.8l-6.4-6.4v-84.8l5.9-6.4l11-0.8l0.5,0
		c14.6,0,27.3,5.3,37.7,15.7c10.4,10.4,15.7,23.1,15.7,37.7v38.6l-6.4,6.4H176.6z M170.2,250.7L170.2,250.7c0-5.8-1.8-10.8-5.4-15.2
		c-1.8-2.2-3.9-4-6.2-5.3v20.5H170.2z"/>
	<path class="st2" d="M296.9,202.9l-1.6-3.8l1.8-4.5l-0.2-42.4c-0.1-17.1-6-32-17.6-44.3l3.8-1.6l9.8-9.9l1.9-4.5l-0.3-50l-1.9-4.5
		l-9.9-9.8l-4.5-1.9l-9.9,0.1l-4.5,1.9c-2.6-0.8-5.2-1.2-7.9-1.4c-3.3-0.2-6.7-0.4-10.3-0.3l-0.8,0.3l-0.8-0.3l-5.5,0
		c-7.8,0-14.9,2.5-21,7l-6.5-6.4l-4.5-1.9c-7.9,0-15.2,2-21.6,5.9l-2.6-2.6l-4.5-1.9l-9.9,0.1l-4.5,1.9l-8.8,8.9l-8.9-8.8l-4.5-1.9
		l-9.9,0.1l-4.5,1.9l-4.6,4.7c-5.8-4.3-13-6.5-20.9-6.4l-5,0l-2.4,1c-0.6-0.2-1.1-0.4-1.7-0.6c-4-1.2-8.1-1.8-12.2-1.7
		C68,25.4,57.9,29.7,49.7,38c-8.2,8.3-12.4,18.5-12.3,30.2C37.4,80,41.6,90.1,50,98.3c2.6,2.6,5.5,4.8,8.5,6.6
		c-12,12.5-18.1,27.6-18,45c0.1,14.4,4.4,27.2,12.9,38.3l-3.7,1.6l-9.8,9.9l-1.9,4.5l0.1,16.9l1.9,4.5l9.4,9.3l0.3,55.1l1.9,4.5
		l9.9,9.8l4.5,1.9l16.9-0.1l4.5-1.9l9.8-9.9l0.4-1c0.7,0.8,1.4,1.6,2.2,2.4c6.8,6.6,15.3,10.1,24.7,10.1l9.3-0.1l1.1-0.5l1.1,0.5
		l16.8-0.1l4.5-1.9l7.7-7.7l7.7,7.7l4.5,1.9l16.8-0.1l1-0.4l1,0.4l16.9-0.1l4.5-1.9l6.5-6.5l6.5,6.5l4.5,1.9l16.8-0.1l4.5-1.9
		l1.7-1.7l1.7,1.7l4.5,1.9l16.9-0.1l4.5-1.9l9.8-9.9l1.9-4.5L296.9,202.9z M95.3,139.2c2.9-2.9,5.8-4.1,9.8-4.1c4,0,7,1.2,9.9,4.1
		c2.9,2.9,4.1,5.9,4.1,9.9c0,4-1.2,7-4.1,9.8c-2.9,2.9-5.9,4.1-10,4.1c-4,0-7-1.2-9.9-4.1c-2.9-2.9-4.1-5.8-4.1-9.9
		C91.2,145.1,92.5,142.1,95.3,139.2z"/>
	<path class="st1" d="M263.5,295.6l-6.2-6.2l-6.2,6.2h-16.8l-6.4-6.4v-57.9c-1.6,1.2-3.1,2.7-4.4,4.4c-3.3,4.2-4.8,8.7-4.8,14v39.5
		l-6.4,6.4h-16.9l-6.4-6.4v-39.5c0-14.4,5.2-26.8,15.4-37.1c10.2-10.2,22.7-15.4,37.1-15.4h9.7l2.8,2.8c0.8-0.3,1.6-0.5,2.4-0.7
		c2.5-0.7,5-1.1,7.5-1.4c2.5-0.3,5-0.5,7.5-0.6c2.3,0,4.7-0.1,7.1-0.1h2l6.4,6.4v85.6l-6.4,6.4H263.5z"/>
	<path class="st1" d="M80.5,103.7c-9.9,0-18.6-3.6-25.6-10.6c-7.1-7-10.6-15.6-10.6-25.6c0-9.9,3.6-18.6,10.6-25.6
		c7-7,15.7-10.6,25.6-10.6c3.5,0,7,0.5,10.4,1.5c3.3,1,6.5,2.5,9.5,4.5l2.8,13.7l-5.4,8.2l-13.9,2.7c-0.4-0.3-0.9-0.5-1.4-0.7
		c-0.7-0.2-1.3-0.3-2-0.3c-1.9,0-3.3,0.6-4.7,1.9c-1.4,1.4-1.9,2.7-1.9,4.7c0,1.9,0.6,3.4,2,4.7c1.4,1.4,2.7,1.9,4.7,1.9
		c0.7,0,1.3-0.1,1.9-0.3c0.6-0.2,1.2-0.5,1.8-0.9l13.7,2.4l5.7,8l-2.4,13.8c-3.1,2.2-6.4,3.8-10,4.9
		C87.8,103.2,84.2,103.7,80.5,103.7z"/>
	<path class="st1" d="M80.5,93.8c2.7,0,5.3-0.4,7.9-1.2c2.6-0.8,4.9-2,7.1-3.5l-5.7-8c-1.4,1-2.9,1.7-4.5,2.2
		c-1.6,0.5-3.2,0.8-4.9,0.8c-4.6,0-8.4-1.6-11.7-4.9C65.6,76,64,72.1,64,67.5c0-4.6,1.6-8.4,4.8-11.7C72,52.7,75.9,51,80.5,51
		c1.6,0,3.2,0.2,4.7,0.7c1.5,0.4,3,1.1,4.3,2l5.4-8.2c-2.2-1.4-4.5-2.5-6.9-3.2c-2.4-0.7-4.9-1.1-7.5-1.1c-7.3,0-13.5,2.6-18.6,7.7
		c-5.2,5.2-7.7,11.4-7.7,18.6c0,7.3,2.6,13.5,7.7,18.6C67,91.3,73.2,93.8,80.5,93.8z"/>
	<path class="st1" d="M119.3,102.5l-7.7-3.7l-0.5-0.7l-4.4,4.4h-9.9L87,92.7V42.6l9.9-9.9h5c8.6,0,15.8,3.1,21.1,9l9-9h9.9l9.9,9.9
		v50l-9.9,9.9H132l0,0.1H119.3z"/>
	<path class="st1" d="M106.7,76.8l12.6,15.9H132l-0.1-0.1h9.9v-50h-9.9v50l-15.2-19c1.5-1.7,2.5-3.6,3.2-5.7c0.7-2,1-4.1,1-6.1
		c0-4.9-1.7-9.3-5.1-13.3c-3.4-4-8.1-5.9-14-5.9h-5v50.1h9.9V76.8z M106.7,53.8c1.4,0.8,2.4,1.9,3.1,3.1c0.7,1.3,1.1,2.6,1.2,3.9
		c0,0.1,0,0.2,0,0.2c0,0.1,0,0.2,0,0.2c0,1.5-0.3,3-1.1,4.4c-0.8,1.4-1.9,2.6-3.3,3.7V53.8z"/>
	<polygon class="st1" points="150,102.5 140.1,92.7 140.1,58.9 133.5,52.4 133.5,42.5 143.4,32.6 166.5,32.6 176.3,42.5 176.3,52.4 
		169.7,59 169.7,92.7 159.8,102.5 	"/>
	<polygon class="st1" points="150,92.7 159.8,92.7 159.8,52.4 166.5,52.4 166.5,42.5 143.4,42.5 143.4,52.4 150,52.4 	"/>
	<polygon class="st1" points="168.6,102.5 158.7,92.6 158.7,42.6 168.6,32.7 178.5,32.7 188.4,42.6 188.4,92.6 178.5,102.5 	"/>
	<rect x="168.6" y="42.6" class="st1" width="9.9" height="50"/>
	<path class="st1" d="M207.2,103.7c-9.9,0-18.5-3.6-25.6-10.6c-7.1-7-10.7-15.7-10.7-25.6c0-10,3.6-18.6,10.7-25.6
		c7.1-7,15.7-10.6,25.6-10.6l9.9,9.9v3.6h1.4l9.9,9.9v37l-7.7,9.6c0,0-0.1,0-0.2,0.1c-0.9,0.3-1.8,0.6-2.8,0.8l-0.4,0.1l-0.9,0.3
		l-0.6,0.1c-1.3,0.3-2.7,0.5-4,0.7C210.2,103.6,208.7,103.7,207.2,103.7z"/>
	<path class="st1" d="M207.2,93.8c1.1,0,2.2-0.1,3.2-0.2c1.1-0.1,2.1-0.3,3.1-0.6c0.3-0.1,0.6-0.2,1-0.3c0.3-0.1,0.6-0.2,0.9-0.2
		c0.6-0.1,1.1-0.3,1.7-0.5c0.5-0.2,1-0.3,1.4-0.4v-37h-17.7v9.9h7.9V84c-0.2,0-0.5,0.1-0.7,0.1c-0.3,0-0.5,0-0.7,0
		c-4.6,0-8.4-1.6-11.7-4.8c-3.2-3.2-4.8-7.1-4.8-11.7c0-4.6,1.6-8.5,4.8-11.7c3.2-3.2,7.1-4.9,11.7-4.9v-9.8
		c-7.2,0-13.4,2.6-18.6,7.7c-5.2,5.2-7.8,11.4-7.8,18.6c0,7.2,2.6,13.4,7.8,18.6C193.8,91.2,200,93.8,207.2,93.8z"/>
	<path class="st1" d="M239.1,102.5c-5.6,0-10.7-2.1-14.7-6.1c-4-4-6.2-9.1-6.2-14.7c-1.7-1.7-3.1-3.7-4.4-5.8
		c-2.5-4.3-3.8-9.1-3.8-14.3c0-7.8,2.9-14.9,8.5-20.4c5.6-5.6,12.6-8.5,20.5-8.5h5.5l9.9,9.9v9.8l-9.2,9.2l9.2,9.2v9.8l-1.1,1.1
		l1.1,1.1v9.8l-9.9,9.9H239.1z"/>
	<path class="st1" d="M228.9,77.7c-0.2,0.6-0.4,1.2-0.6,1.9c-0.1,0.7-0.2,1.3-0.2,2c0,3,1.1,5.6,3.2,7.7c2.2,2.1,4.7,3.2,7.7,3.2
		h5.5v-9.8h-5.5c-0.3,0-0.6-0.1-0.8-0.3c-0.2-0.2-0.3-0.5-0.3-0.8c0-0.3,0.1-0.6,0.2-0.7c0.1-0.2,0.3-0.3,0.4-0.3
		c0.1,0,0.2-0.1,0.3-0.1c0.1,0,0.2,0,0.2,0h5.5v-9.8H238c-2.3,0-4.2-0.9-5.8-2.8c-1.6-1.9-2.3-4-2.3-6.4c0-2.6,0.9-4.8,2.8-6.6
		c1.8-1.8,4-2.7,6.6-2.7h5.5v-9.8h-5.5c-5.3,0-9.8,1.9-13.5,5.6c-3.7,3.7-5.6,8.2-5.6,13.5c0,3.4,0.8,6.5,2.5,9.4
		C224.1,73.8,226.3,76,228.9,77.7z"/>
	<path class="st1" d="M268.9,102.5l-6.5-6.5l-6.5,6.5h-9.8l-9.9-9.9v-50l9.9-9.9c3.4,0,6.7,0.1,9.8,0.4c3.4,0.3,6.8,1.1,10,2.5
		l2.9-2.9h9.9l9.9,9.9v50l-9.9,9.9H268.9z"/>
	<path class="st1" d="M256,52.9c3.8,1,6.9,3,9.3,6.1c2.4,3.1,3.6,6.6,3.6,10.5v23.1h9.9v-50h-9.9v6.1c-0.9-0.7-1.8-1.4-2.7-1.9
		c-0.9-0.6-1.8-1.1-2.7-1.5c-2.8-1.3-5.6-2.1-8.4-2.3c-2.8-0.2-5.8-0.3-9-0.3v50h9.8V52.9z"/>
	<path class="st1" d="M105.2,207.2c-15.9,0-29.7-5.7-41.1-17c-11.4-11.3-17.1-25.1-17.1-41c0-16,5.8-29.8,17.1-41.1
		c11.4-11.3,25.2-17,41.1-17c16,0,29.8,5.7,41.1,17.1c11.3,11.3,17.1,25.2,17.1,41.1c0,15.9-5.7,29.7-17.1,41
		C135,201.5,121.1,207.2,105.2,207.2z M105.2,128.7c-5.7,0-10.3,1.9-14.4,6c-4.1,4.1-6,8.7-6,14.5c0,5.8,1.9,10.3,6,14.4
		c4.1,4.1,8.6,6,14.4,6c5.8,0,10.4-1.9,14.5-6c4.1-4.1,6-8.6,6-14.4c0-5.7-1.9-10.3-6-14.4C115.5,130.6,110.9,128.7,105.2,128.7z"/>
	<path class="st1" d="M105.2,100.9c-13.2,0-24.6,4.7-34.1,14.2c-9.5,9.4-14.2,20.8-14.2,34.1c0,13.2,4.7,24.6,14.2,34
		c9.5,9.4,20.8,14.2,34.1,14.2c13.3,0,24.7-4.7,34.1-14.2c9.4-9.4,14.2-20.8,14.2-34c0-13.3-4.7-24.7-14.2-34.1
		C129.9,105.6,118.5,100.9,105.2,100.9z M126.6,170.5c-5.9,5.9-13.1,8.9-21.4,8.9c-8.3,0-15.5-3-21.4-8.9c-5.9-5.9-8.9-13-8.9-21.4
		c0-8.3,2.9-15.5,8.9-21.4c5.9-5.9,13-8.9,21.4-8.9c8.3,0,15.5,3,21.4,8.9s8.9,13.1,8.9,21.4C135.5,157.5,132.5,164.6,126.6,170.5z"
		/>
	<path class="st1" d="M154,208.7l-7.7-16.1l4.6-13.2c2.1-1,3.6-2.4,4.8-4.3c1.2-2,1.8-4,1.8-6.1c0-0.4,0-0.7-0.1-1.1
		c0-0.4-0.1-0.8-0.2-1.2c-0.1-0.4-0.2-0.7-0.3-1.1c-0.2-0.4-0.3-0.9-0.5-1.4l-6.3-13.2c-1-2.2-1.9-4.5-2.6-6.7
		c-0.8-2.4-1.3-4.8-1.6-7.2l0-0.4l-0.3-2.8c-0.1-1.2-0.2-2.4-0.2-3.7c0-9.2,2.5-17.9,7.4-25.8c4.9-8.1,11.9-14.3,20.6-18.5l13.2,4.7
		l7.7,16.3l-4.7,13.2c-1.3,0.6-2.4,1.4-3.4,2.5c-1,1.1-1.7,2.3-2.2,3.7l-0.1,0.3c-0.2,0.4-0.3,0.8-0.3,1.2c-0.1,0.7-0.1,1.3-0.1,2
		c0,1.8,0.3,3.5,1,5.1c1.1,2.7,2.4,5.4,3.7,8.1c0.2,0.5,0.4,0.9,0.6,1.3l0.3,0.5c0.3,0.6,0.6,1.2,0.9,1.9c0.2,0.5,0.4,0.9,0.6,1.3
		l0.1,0.3c1.1,2.5,2.1,5,2.8,7.5c0.7,2.6,1.3,5.2,1.6,7.8c0.1,0.8,0.2,1.8,0.2,2.7c0.1,0.9,0.1,1.8,0.1,2.7l0,0.1
		c-0.1,9.1-2.6,17.7-7.4,25.7c-4.9,8.1-11.9,14.3-20.7,18.5L154,208.7z"/>
	<path class="st1" d="M155.2,188.4l7.7,16.1c7.1-3.4,12.6-8.3,16.5-14.7c3.9-6.4,5.9-13.3,6-20.7c0-0.7,0-1.4-0.1-2.1
		c0-0.7-0.1-1.4-0.2-2.1c-0.3-2.1-0.7-4.2-1.3-6.3c-0.6-2.1-1.3-4.1-2.3-6.1c-0.3-0.5-0.5-1-0.8-1.6c-0.3-0.5-0.5-1.1-0.8-1.6
		c-0.2-0.3-0.3-0.5-0.4-0.8c-0.1-0.3-0.3-0.6-0.4-0.9c-1.4-2.9-2.8-5.7-4-8.6c-1.2-2.9-1.8-5.9-1.8-9c0-1.2,0.1-2.3,0.3-3.5
		c0.2-1.1,0.5-2.3,0.9-3.4c0.9-2.6,2.3-5,4.2-7c1.9-2.1,4-3.7,6.6-4.9l-7.7-16.3c-7,3.4-12.5,8.3-16.4,14.7
		c-4,6.5-5.9,13.3-5.9,20.7c0,0.9,0,1.9,0.1,2.8c0.1,0.9,0.2,1.9,0.3,2.8c0.3,1.9,0.7,3.7,1.3,5.6c0.6,1.9,1.3,3.7,2.1,5.6l6.3,13.2
		c0.3,0.8,0.6,1.5,0.9,2.2c0.3,0.7,0.5,1.5,0.6,2.2c0.2,0.8,0.3,1.5,0.4,2.2c0.1,0.7,0.1,1.5,0.1,2.2c0,4-1.1,7.7-3.2,11.3
		C162,183.8,159,186.5,155.2,188.4z"/>
	<path class="st1" d="M262.6,205.2l-9.9-9.9V153c0-4.6-1.3-8.7-3.9-12.3v54.7l-9.9,9.9h-18l-6.6-6.6l-6.6,6.6h-18.1l-9.9-9.9v-91.7
		l9.9-9.9h2.2c2.7,0,5.2,0,7.7,0.1c2.8,0.1,5.5,0.3,8.3,0.6c2.8,0.3,5.6,0.8,8.4,1.6c0.6,0.2,1.3,0.4,1.9,0.6l2.9-2.9h10.4
		c16.2,0,30.3,5.8,41.8,17.4c11.5,11.5,17.4,25.6,17.4,41.8v42.4l-9.9,9.9H262.6z"/>
	<path class="st1" d="M266.2,118.1c-9.7-9.7-21.3-14.5-34.8-14.5H221v4.7c-2.5-1.2-5-2.1-7.3-2.7c-2.4-0.6-4.7-1.1-7.1-1.3
		c-2.4-0.3-4.9-0.5-7.3-0.6c-2.4,0-4.9-0.1-7.5-0.1c-0.3,0-0.7,0-1.1,0c-0.4,0-0.7,0-1.1,0v91.7h18.1v-72.7c2.4,0.6,4.8,1.5,7.1,2.8
		c2.3,1.3,4.3,2.7,6.2,4.4v65.5h18v-72.7c7,1.8,12.7,5.5,17.1,11.1c4.4,5.6,6.6,12.1,6.6,19.2v42.4h18.1V153
		C280.7,139.4,275.9,127.8,266.2,118.1z"/>
	<polygon class="st1" points="65.3,299.2 55.4,289.3 55.4,230.2 54.1,230.2 44.2,220.4 44.2,203.5 54.1,193.6 93.5,193.6 
		103.4,203.5 103.4,220.4 93.5,230.2 92,230.2 92,289.3 82.2,299.2 	"/>
	<polygon class="st1" points="93.5,203.5 54.1,203.5 54.1,220.4 65.3,220.4 65.3,289.3 82.2,289.3 82.2,220.4 93.5,220.4 	"/>
	<path class="st1" d="M123.8,299.1c-7.7,0-14.7-2.9-20.2-8.3c-5.5-5.5-8.5-12.5-8.5-20.2c0-0.9,0-1.8,0.1-2.8
		c-3.4-3-6.2-6.6-8.6-10.7c-3.7-6.3-5.5-13.4-5.5-20.9c0-11.6,4.2-21.7,12.5-30c8.3-8.3,18.4-12.5,30.1-12.5h9.3l9.9,9.9v16.8
		l-9.9,9.9h-9.3c-1.8,0-3,0.5-4.3,1.8c-1.2,1.2-1.7,2.4-1.7,4.1c0,1.8,0.5,3.2,1.7,4.6c1,1.2,1.6,1.3,2.4,1.3h11.3l9.9,9.9v16.8
		l-1.9,1.9l1.9,1.9v16.8l-9.9,9.9H123.8z"/>
	<path class="st1" d="M100.7,213.2c-6.4,6.4-9.6,14-9.6,23c0,5.8,1.4,11.2,4.2,16c2.8,4.8,6.5,8.7,11,11.6c-0.4,1-0.7,2.1-0.9,3.2
		c-0.2,1.1-0.4,2.3-0.4,3.5c0,5.1,1.8,9.5,5.5,13.2c3.7,3.7,8.1,5.5,13.2,5.5h9.3v-16.8h-9.3c-0.6,0-1-0.2-1.4-0.6
		c-0.4-0.4-0.6-0.8-0.6-1.3c0-0.5,0.1-1,0.4-1.2c0.2-0.3,0.5-0.5,0.7-0.5c0.2-0.1,0.3-0.1,0.5-0.1c0.2,0,0.3,0,0.4,0h9.3v-16.8
		h-11.3c-3.9,0-7.2-1.6-9.9-4.8c-2.7-3.2-4-6.8-4-10.9c0-4.4,1.6-8.1,4.7-11.2c3.1-3.1,6.9-4.6,11.2-4.6h9.3v-16.8h-9.3
		C114.8,203.6,107.1,206.8,100.7,213.2z"/>
	<path class="st1" d="M176.6,299.1l-9.9-9.9v-5.5H162v5.5l-9.9,9.9h-16.8l-9.9-9.9v-84.8l9.1-9.9l11-0.8l0.7,0
		c15.6,0,29.1,5.6,40.2,16.7c11.1,11.1,16.7,24.6,16.7,40.2v38.6l-9.9,9.9H176.6z M166.5,247.2c-0.6-3.5-2-6.6-4.4-9.5
		c0,0,0,0,0-0.1v9.5H166.5z"/>
	<path class="st1" d="M146.4,203.6l-11,0.8v7.7v77.1h16.8v-15.3h24.4v15.3h16.8v-38.6c0-12.9-4.6-24-13.8-33.2
		C170.3,208.2,159.3,203.6,146.4,203.6z M176.6,257.1h-24.4v-36c7.1,1.3,12.9,4.8,17.5,10.3c4.6,5.5,6.9,11.9,6.9,19.2V257.1z"/>
	<path class="st1" d="M263.5,299.1l-6.2-6.2l-6.2,6.2h-16.8l-9.9-9.9v-48.7c-1.6,2.8-2.3,5.8-2.3,9.2v39.5l-9.9,9.9h-16.9l-9.9-9.9
		v-39.5c0-15.3,5.5-28.6,16.4-39.5c10.9-10.9,24.2-16.4,39.5-16.4h9.7l2.6,2.6c0.6-0.2,1.1-0.3,1.6-0.5c2.6-0.7,5.3-1.2,8-1.5
		c2.6-0.4,5.2-0.6,7.8-0.6c2.3,0,4.7-0.1,7.2-0.1h2l9.9,9.9v85.6l-9.9,9.9H263.5z"/>
	<path class="st1" d="M278.4,203.6c-2.4,0-4.8,0-7,0.1c-2.2,0-4.5,0.2-6.8,0.5c-2.2,0.2-4.4,0.6-6.6,1.2c-2.2,0.6-4.5,1.4-6.8,2.5
		v-4.4h-9.7c-12.7,0-23.5,4.5-32.5,13.5c-9,9-13.5,19.9-13.5,32.5v39.5h16.9v-39.5c0-6.7,2.1-12.7,6.2-17.9
		c4.1-5.3,9.4-8.7,15.9-10.4v67.9h16.8V228c1.8-1.6,3.8-3,5.8-4.1c2.1-1.2,4.3-2,6.6-2.6v67.9h16.9v-85.6c-0.3,0-0.6,0-1,0
		S278.7,203.6,278.4,203.6z"/>
	<path class="st3" d="M80.5,103.7c-9.9,0-18.6-3.6-25.6-10.6c-7.1-7-10.6-15.6-10.6-25.6c0-9.9,3.6-18.6,10.6-25.6
		c7-7,15.7-10.6,25.6-10.6c3.5,0,7,0.5,10.4,1.5c3.3,1,6.5,2.5,9.5,4.5l2.8,13.7l-5.4,8.2l-13.9,2.7c-0.4-0.3-0.9-0.5-1.4-0.7
		c-0.7-0.2-1.3-0.3-2-0.3c-1.9,0-3.3,0.6-4.7,1.9c-1.4,1.4-1.9,2.7-1.9,4.7c0,1.9,0.6,3.4,2,4.7c1.4,1.4,2.7,1.9,4.7,1.9
		c0.7,0,1.3-0.1,1.9-0.3c0.6-0.2,1.2-0.5,1.8-0.9l13.7,2.4l5.7,8l-2.4,13.8c-3.1,2.2-6.4,3.8-10,4.9
		C87.8,103.2,84.2,103.7,80.5,103.7z"/>
	<polygon class="st3" points="150,92.7 159.8,92.7 159.8,52.4 166.5,52.4 166.5,42.5 143.4,42.5 143.4,52.4 150,52.4 	"/>
	<rect x="168.6" y="42.6" class="st3" width="9.9" height="50"/>
	<path class="st3" d="M207.2,93.8c1.1,0,2.2-0.1,3.2-0.2c1.1-0.1,2.1-0.3,3.1-0.6c0.3-0.1,0.6-0.2,1-0.3c0.3-0.1,0.6-0.2,0.9-0.2
		c0.6-0.1,1.1-0.3,1.7-0.5c0.5-0.2,1-0.3,1.4-0.4v-37h-17.7v9.9h7.9V84c-0.2,0-0.5,0.1-0.7,0.1c-0.3,0-0.5,0-0.7,0
		c-4.6,0-8.4-1.6-11.7-4.8c-3.2-3.2-4.8-7.1-4.8-11.7c0-4.6,1.6-8.5,4.8-11.7c3.2-3.2,7.1-4.9,11.7-4.9v-9.8
		c-7.2,0-13.4,2.6-18.6,7.7c-5.2,5.2-7.8,11.4-7.8,18.6c0,7.2,2.6,13.4,7.8,18.6C193.8,91.2,200,93.8,207.2,93.8z"/>
	<path class="st3" d="M228.9,77.7c-0.2,0.6-0.4,1.2-0.6,1.9c-0.1,0.7-0.2,1.3-0.2,2c0,3,1.1,5.6,3.2,7.7c2.2,2.1,4.7,3.2,7.7,3.2
		h5.5v-9.8h-5.5c-0.3,0-0.6-0.1-0.8-0.3c-0.2-0.2-0.3-0.5-0.3-0.8c0-0.3,0.1-0.6,0.2-0.7c0.1-0.2,0.3-0.3,0.4-0.3
		c0.1,0,0.2-0.1,0.3-0.1c0.1,0,0.2,0,0.2,0h5.5v-9.8H238c-2.3,0-4.2-0.9-5.8-2.8c-1.6-1.9-2.3-4-2.3-6.4c0-2.6,0.9-4.8,2.8-6.6
		c1.8-1.8,4-2.7,6.6-2.7h5.5v-9.8h-5.5c-5.3,0-9.8,1.9-13.5,5.6c-3.7,3.7-5.6,8.2-5.6,13.5c0,3.4,0.8,6.5,2.5,9.4
		C224.1,73.8,226.3,76,228.9,77.7z"/>
	<path class="st3" d="M256,52.9c3.8,1,6.9,3,9.3,6.1c2.4,3.1,3.6,6.6,3.6,10.5v23.1h9.9v-50h-9.9v6.1c-0.9-0.7-1.8-1.4-2.7-1.9
		c-0.9-0.6-1.8-1.1-2.7-1.5c-2.8-1.3-5.6-2.1-8.4-2.3c-2.8-0.2-5.8-0.3-9-0.3v50h9.8V52.9z"/>
	<path class="st3" d="M105.2,100.9c-13.2,0-24.6,4.7-34.1,14.2c-9.5,9.4-14.2,20.8-14.2,34.1c0,13.2,4.7,24.6,14.2,34
		c9.5,9.4,20.8,14.2,34.1,14.2c13.3,0,24.7-4.7,34.1-14.2c9.4-9.4,14.2-20.8,14.2-34c0-13.3-4.7-24.7-14.2-34.1
		C129.9,105.6,118.5,100.9,105.2,100.9z M126.6,170.5c-5.9,5.9-13.1,8.9-21.4,8.9c-8.3,0-15.5-3-21.4-8.9c-5.9-5.9-8.9-13-8.9-21.4
		c0-8.3,2.9-15.5,8.9-21.4c5.9-5.9,13-8.9,21.4-8.9c8.3,0,15.5,3,21.4,8.9s8.9,13.1,8.9,21.4C135.5,157.5,132.5,164.6,126.6,170.5z"
		/>
	<path class="st3" d="M155.2,188.4l7.7,16.1c7.1-3.4,12.6-8.3,16.5-14.7c3.9-6.4,5.9-13.3,6-20.7c0-0.7,0-1.4-0.1-2.1
		c0-0.7-0.1-1.4-0.2-2.1c-0.3-2.1-0.7-4.2-1.3-6.3c-0.6-2.1-1.3-4.1-2.3-6.1c-0.3-0.5-0.5-1-0.8-1.6c-0.3-0.5-0.5-1.1-0.8-1.6
		c-0.2-0.3-0.3-0.5-0.4-0.8c-0.1-0.3-0.3-0.6-0.4-0.9c-1.4-2.9-2.8-5.7-4-8.6c-1.2-2.9-1.8-5.9-1.8-9c0-1.2,0.1-2.3,0.3-3.5
		c0.2-1.1,0.5-2.3,0.9-3.4c0.9-2.6,2.3-5,4.2-7c1.9-2.1,4-3.7,6.6-4.9l-7.7-16.3c-7,3.4-12.5,8.3-16.4,14.7
		c-4,6.5-5.9,13.3-5.9,20.7c0,0.9,0,1.9,0.1,2.8c0.1,0.9,0.2,1.9,0.3,2.8c0.3,1.9,0.7,3.7,1.3,5.6c0.6,1.9,1.3,3.7,2.1,5.6l6.3,13.2
		c0.3,0.8,0.6,1.5,0.9,2.2c0.3,0.7,0.5,1.5,0.6,2.2c0.2,0.8,0.3,1.5,0.4,2.2c0.1,0.7,0.1,1.5,0.1,2.2c0,4-1.1,7.7-3.2,11.3
		C162,183.8,159,186.5,155.2,188.4z"/>
	<path class="st3" d="M266.2,118.1c-9.7-9.7-21.3-14.5-34.8-14.5H221v4.7c-2.5-1.2-5-2.1-7.3-2.7c-2.4-0.6-4.7-1.1-7.1-1.3
		c-2.4-0.3-4.9-0.5-7.3-0.6c-2.4,0-4.9-0.1-7.5-0.1c-0.3,0-0.7,0-1.1,0c-0.4,0-0.7,0-1.1,0v91.7h18.1v-72.7c2.4,0.6,4.8,1.5,7.1,2.8
		c2.3,1.3,4.3,2.7,6.2,4.4v65.5h18v-72.7c7,1.8,12.7,5.5,17.1,11.1c4.4,5.6,6.6,12.1,6.6,19.2v42.4h18.1V153
		C280.7,139.4,275.9,127.8,266.2,118.1z"/>
	<polygon class="st3" points="93.5,203.5 54.1,203.5 54.1,220.4 65.3,220.4 65.3,289.3 82.2,289.3 82.2,220.4 93.5,220.4 	"/>
	<path class="st3" d="M100.7,213.2c-6.4,6.4-9.6,14-9.6,23c0,5.8,1.4,11.2,4.2,16c2.8,4.8,6.5,8.7,11,11.6c-0.4,1-0.7,2.1-0.9,3.2
		c-0.2,1.1-0.4,2.3-0.4,3.5c0,5.1,1.8,9.5,5.5,13.2c3.7,3.7,8.1,5.5,13.2,5.5h9.3v-16.8h-9.3c-0.6,0-1-0.2-1.4-0.6
		c-0.4-0.4-0.6-0.8-0.6-1.3c0-0.5,0.1-1,0.4-1.2c0.2-0.3,0.5-0.5,0.7-0.5c0.2-0.1,0.3-0.1,0.5-0.1c0.2,0,0.3,0,0.4,0h9.3v-16.8
		h-11.3c-3.9,0-7.2-1.6-9.9-4.8c-2.7-3.2-4-6.8-4-10.9c0-4.4,1.6-8.1,4.7-11.2c3.1-3.1,6.9-4.6,11.2-4.6h9.3v-16.8h-9.3
		C114.8,203.6,107.1,206.8,100.7,213.2z"/>
	<path class="st3" d="M146.4,203.6l-11,0.8v7.7v77.1h16.8v-15.3h24.4v15.3h16.8v-38.6c0-12.9-4.6-24-13.8-33.2
		C170.3,208.2,159.3,203.6,146.4,203.6z M176.6,257.1h-24.4v-36c7.1,1.3,12.9,4.8,17.5,10.3c4.6,5.5,6.9,11.9,6.9,19.2V257.1z"/>
	<path class="st3" d="M290.6,153c0-16.2-5.8-30.3-17.4-41.8c-4.6-4.6-9.5-8.2-14.8-11l4.1-4.1l6.5,6.5h9.9l9.9-9.9v-50l-9.9-9.9
		h-9.9l-2.9,2.9c-3.3-1.4-6.6-2.2-10-2.5c-3.1-0.3-6.4-0.4-9.8-0.4l-0.8,0.8l-0.8-0.8h-5.5c-7.9,0-15,2.9-20.5,8.5
		c-0.6,0.6-1.1,1.1-1.6,1.7v-1.7l-9.9-9.9c-8.4,0-15.9,2.6-22.3,7.7l-6.4-6.4h-9.9l-1,1l-1.1-1.1h-23l-0.9,0.9l-0.8-0.8h-9.9l-9,9
		c-5.3-5.9-12.6-9-21.1-9h-5l-9.4,9.4c-2.2-0.6-4.5-0.9-6.9-0.9c-7.3,0-13.5,2.6-18.6,7.7c-5.2,5.2-7.7,11.4-7.7,18.6
		c0,7.3,2.6,13.5,7.7,18.6c5.2,5.1,11.4,7.7,18.6,7.7c2.3,0,4.6-0.3,6.8-0.9l0.6,0.6c-8.8,2.7-16.7,7.5-23.7,14.5
		C52.7,119.3,47,133.2,47,149.2c0,15.9,5.8,29.7,17.1,41c1.2,1.2,2.4,2.3,3.7,3.4H54.1l-9.9,9.9v16.9l9.9,9.9h1.3v59.1l9.9,9.9h16.9
		l9.9-9.9v-24.9c1,1.2,2.1,2.3,3.3,3.4c-0.1,0.9-0.1,1.8-0.1,2.8c0,7.7,2.9,14.7,8.5,20.2c5.5,5.5,12.5,8.3,20.2,8.3h9.3l1.1-1.1
		l1.1,1.1h16.8l9.9-9.9v-5.5h4.7v5.5l9.9,9.9h16.8l1-1l1,1h16.9l9.9-9.9v-39.5c0-3.4,0.8-6.4,2.3-9.2v48.7l9.9,9.9h16.8l6.2-6.2
		l6.2,6.2h16.9l9.9-9.9v-85.6l-4-4l4.3-4.3V153z M194.1,219.7c-2.2-3.2-4.7-6.3-7.6-9.3c-2.1-2.1-4.3-4-6.6-5.7
		c1.6-1.5,3-3.1,4.4-4.8l5.3,5.3h17.8c-1.9,1.5-3.8,3.1-5.6,4.9C198.9,213.1,196.3,216.3,194.1,219.7z M141.8,102.5l4.1-4.1l4.1,4.1
		h4.1c-0.4,0.6-0.9,1.3-1.3,1.9c-1.4,2.2-2.5,4.5-3.5,6.8c-1-1.1-1.9-2.2-3-3.2c-2-2-4.2-3.9-6.4-5.6H141.8z M80.5,84.1
		c-4.6,0-8.4-1.6-11.7-4.9C65.6,76,64,72.1,64,67.5c0-4.6,1.6-8.4,4.8-11.7C72,52.7,75.9,51,80.5,51c1.6,0,3.2,0.2,4.7,0.7
		c0.6,0.2,1.2,0.4,1.7,0.7v30.4c-0.5,0.2-1,0.5-1.5,0.6C83.8,83.8,82.2,84.1,80.5,84.1z M90.8,134.7c4.1-4.1,8.6-6,14.4-6
		c5.7,0,10.3,1.9,14.4,6c4.1,4.1,6,8.7,6,14.4c0,5.7-1.9,10.3-6,14.4c-4.1,4.1-8.7,6-14.5,6c-5.7,0-10.3-1.9-14.4-6
		c-4.1-4.1-6-8.6-6-14.4C84.8,143.4,86.7,138.8,90.8,134.7z M121.8,242c-0.7,0-1.4-0.1-2.4-1.3c-1.2-1.4-1.7-2.8-1.7-4.6
		c0-1.7,0.5-2.9,1.7-4.1c1.3-1.3,2.6-1.8,4.3-1.8h1.7V242H121.8z M145.6,193.7l-3.5,0.3c1.4-1.2,2.8-2.5,4.2-3.8
		c0.5-0.5,0.9-1,1.4-1.5l-1.4,4l0.5,1.1c-0.2,0-0.3,0-0.5,0L145.6,193.7z M162,247.2v-9.5c0,0,0,0,0,0.1c2.4,2.9,3.8,6,4.4,9.5H162z
		 M208.6,204.4l5.8-5.8l1.3,1.3C213.2,201.2,210.8,202.7,208.6,204.4z M251.1,193.7h-2.3v-53.1c2.6,3.7,3.9,7.7,3.9,12.3v42.4l1,1
		c0,0,0,0,0,0L251.1,193.7z"/>
	<path class="st3" d="M278.4,203.6c-2.4,0-4.8,0-7,0.1c-2.2,0-4.5,0.2-6.8,0.5c-2.2,0.2-4.4,0.6-6.6,1.2c-2.2,0.6-4.5,1.4-6.8,2.5
		v-4.4h-9.7c-12.7,0-23.5,4.5-32.5,13.5c-9,9-13.5,19.9-13.5,32.5v39.5h16.9v-39.5c0-6.7,2.1-12.7,6.2-17.9
		c4.1-5.3,9.4-8.7,15.9-10.4v67.9h16.8V228c1.8-1.6,3.8-3,5.8-4.1c2.1-1.2,4.3-2,6.6-2.6v67.9h16.9v-85.6c-0.3,0-0.6,0-1,0
		S278.7,203.6,278.4,203.6z"/>
	<g>
		<path class="st4" d="M88.4,92.7c-2.6,0.8-5.2,1.2-7.9,1.2c-7.3,0-13.5-2.6-18.6-7.7c-5.2-5.1-7.7-11.3-7.7-18.6
			c0-7.3,2.6-13.5,7.7-18.6c5.2-5.2,11.4-7.7,18.6-7.7c2.6,0,5.1,0.4,7.5,1.1c2.4,0.7,4.7,1.8,6.9,3.2l-5.4,8.2
			c-1.3-0.9-2.8-1.6-4.3-2c-1.5-0.4-3.1-0.7-4.7-0.7c-4.6,0-8.4,1.6-11.7,4.8C65.6,59.1,64,63,64,67.5c0,4.6,1.6,8.5,4.8,11.7
			c3.2,3.2,7.1,4.9,11.7,4.9c1.7,0,3.3-0.3,4.9-0.8c1.6-0.5,3.1-1.2,4.5-2.2l5.7,8C93.3,90.7,90.9,91.9,88.4,92.7z"/>
		<path class="st4" d="M119.3,92.7l-12.6-15.9v15.9h-9.9V42.6h5c5.9,0,10.5,2,14,5.9c3.4,4,5.1,8.4,5.1,13.3c0,2.1-0.3,4.1-1,6.1
			c-0.7,2-1.7,3.9-3.2,5.7L132,92.7H119.3z M110,65.7c0.8-1.4,1.1-2.9,1.1-4.4c0-0.1,0-0.2,0-0.2c0-0.1,0-0.1,0-0.2
			c-0.1-1.3-0.5-2.6-1.2-3.9c-0.7-1.3-1.8-2.3-3.1-3.1v15.6C108.1,68.4,109.2,67.2,110,65.7z"/>
		<path class="st4" d="M131.9,92.6v-50h9.9v50H131.9z"/>
		<path class="st4" d="M159.8,52.4v40.3H150V52.4h-6.6v-9.9h23v9.9H159.8z"/>
		<path class="st4" d="M168.6,92.6v-50h9.9v50H168.6z"/>
		<path class="st4" d="M217.1,92.1c-0.5,0.2-1.1,0.3-1.7,0.5c-0.3,0-0.6,0.1-0.9,0.2c-0.3,0.1-0.6,0.2-1,0.3c-1,0.2-2,0.4-3.1,0.6
			c-1.1,0.1-2.1,0.2-3.2,0.2c-7.2,0-13.4-2.6-18.6-7.7c-5.2-5.2-7.8-11.3-7.8-18.6c0-7.3,2.6-13.5,7.8-18.6
			c5.2-5.2,11.4-7.7,18.6-7.7V51c-4.6,0-8.4,1.6-11.7,4.9c-3.2,3.2-4.8,7.1-4.8,11.7c0,4.6,1.6,8.4,4.8,11.7
			c3.2,3.2,7.1,4.8,11.7,4.8c0.2,0,0.5,0,0.7,0c0.3,0,0.5,0,0.7-0.1V64.6h-7.9v-9.9h17.7v37C218,91.8,217.6,91.9,217.1,92.1z"/>
		<path class="st4" d="M239.1,92.6c-3,0-5.6-1.1-7.7-3.2c-2.2-2.1-3.2-4.7-3.2-7.7c0-0.7,0.1-1.4,0.2-2c0.1-0.7,0.3-1.3,0.6-1.9
			c-2.7-1.7-4.8-4-6.5-6.8c-1.6-2.8-2.5-5.9-2.5-9.4c0-5.2,1.9-9.7,5.6-13.5c3.7-3.7,8.2-5.6,13.5-5.6h5.5v9.8h-5.5
			c-2.5,0-4.7,0.9-6.6,2.7c-1.8,1.8-2.8,4-2.8,6.6c0,2.4,0.8,4.5,2.3,6.4c1.6,1.9,3.5,2.8,5.8,2.8h6.6v9.8h-5.5c0,0-0.1,0-0.2,0
			c-0.1,0-0.2,0-0.3,0.1c-0.1,0-0.3,0.1-0.4,0.3c-0.1,0.2-0.2,0.4-0.2,0.7c0,0.3,0.1,0.5,0.3,0.8c0.2,0.2,0.5,0.3,0.8,0.3h5.5v9.8
			H239.1z"/>
		<path class="st4" d="M268.9,92.6V69.5c0-3.9-1.2-7.4-3.6-10.5c-2.4-3.1-5.5-5.1-9.3-6.1v39.7h-9.8v-50c3.2,0,6.2,0.1,9,0.3
			c2.8,0.2,5.6,1,8.4,2.3c0.9,0.5,1.8,1,2.7,1.5c0.9,0.6,1.8,1.2,2.7,1.9v-6.1h9.9v50H268.9z"/>
		<path class="st5" d="M139.3,183.2c-9.4,9.4-20.8,14.2-34.1,14.2c-13.2,0-24.6-4.7-34.1-14.2c-9.5-9.4-14.2-20.8-14.2-34
			c0-13.3,4.7-24.7,14.2-34.1c9.5-9.4,20.8-14.2,34.1-14.2c13.3,0,24.7,4.7,34.1,14.2c9.4,9.4,14.2,20.8,14.2,34.1
			C153.5,162.4,148.7,173.7,139.3,183.2z M126.6,127.7c-5.9-5.9-13.1-8.9-21.4-8.9c-8.3,0-15.5,3-21.4,8.9
			c-5.9,5.9-8.9,13.1-8.9,21.4c0,8.3,2.9,15.5,8.9,21.4c5.9,5.9,13,8.9,21.4,8.9c8.3,0,15.5-3,21.4-8.9c5.9-5.9,8.9-13,8.9-21.4
			C135.5,140.8,132.5,133.7,126.6,127.7z"/>
		<path class="st5" d="M173.7,126.5c-0.2,1.1-0.3,2.3-0.3,3.5c0,3.1,0.6,6.1,1.8,9c1.2,2.9,2.5,5.7,4,8.6c0.2,0.3,0.3,0.7,0.4,0.9
			c0.1,0.3,0.3,0.6,0.4,0.8c0.3,0.5,0.5,1,0.8,1.6c0.3,0.5,0.5,1.1,0.8,1.6c0.9,2,1.7,4.1,2.3,6.1c0.6,2.1,1,4.2,1.3,6.3
			c0.1,0.7,0.1,1.4,0.2,2.1c0,0.7,0.1,1.4,0.1,2.1c-0.1,7.3-2.1,14.2-6,20.7c-3.9,6.4-9.4,11.4-16.5,14.7l-7.7-16.1
			c3.8-1.9,6.8-4.6,8.9-8.1c2.1-3.5,3.2-7.3,3.2-11.3c0-0.8,0-1.5-0.1-2.2c-0.1-0.7-0.2-1.5-0.4-2.2c-0.2-0.8-0.4-1.5-0.6-2.2
			c-0.3-0.7-0.5-1.5-0.9-2.2L159,147c-0.8-1.9-1.6-3.7-2.1-5.6c-0.6-1.9-1-3.7-1.3-5.6c-0.1-0.9-0.2-1.9-0.3-2.8
			c-0.1-0.9-0.1-1.9-0.1-2.8c0-7.3,2-14.2,5.9-20.7c4-6.4,9.4-11.4,16.4-14.7l7.7,16.3c-2.5,1.2-4.7,2.8-6.6,4.9
			c-1.9,2.1-3.2,4.4-4.2,7C174.2,124.2,173.9,125.3,173.7,126.5z"/>
		<path class="st5" d="M262.6,195.3V153c0-7.2-2.2-13.6-6.6-19.2c-4.4-5.6-10.1-9.4-17.1-11.1v72.7h-18v-65.5
			c-1.9-1.7-3.9-3.2-6.2-4.4c-2.3-1.3-4.6-2.2-7.1-2.8v72.7h-18.1v-91.7c0.3,0,0.7,0,1.1,0c0.4,0,0.7,0,1.1,0c2.6,0,5.1,0,7.5,0.1
			c2.4,0,4.8,0.2,7.3,0.6c2.4,0.3,4.7,0.7,7.1,1.3c2.4,0.6,4.8,1.5,7.3,2.7v-4.7h10.4c13.6,0,25.2,4.8,34.8,14.5
			c9.7,9.7,14.5,21.3,14.5,34.8v42.4H262.6z"/>
		<path class="st6" d="M93.5,203.5v16.9H82.2v68.9H65.3v-68.9H54.1v-16.9H93.5z"/>
		<path class="st6" d="M123.8,289.2c-5.1,0-9.5-1.8-13.2-5.5c-3.7-3.7-5.5-8-5.5-13.2c0-1.2,0.1-2.3,0.4-3.5
			c0.2-1.1,0.5-2.2,0.9-3.2c-4.6-2.9-8.2-6.8-11-11.6c-2.8-4.8-4.2-10.2-4.2-16c0-9,3.2-16.6,9.6-23c6.4-6.4,14.1-9.6,23.1-9.6h9.3
			v16.8h-9.3c-4.3,0-8.1,1.5-11.2,4.6c-3.1,3.1-4.7,6.8-4.7,11.2c0,4.1,1.3,7.7,4,10.9c2.7,3.2,6,4.8,9.9,4.8h11.3v16.8h-9.3
			c-0.1,0-0.2,0-0.4,0c-0.2,0-0.4,0-0.5,0.1c-0.2,0.1-0.5,0.3-0.7,0.5c-0.2,0.3-0.4,0.7-0.4,1.2c0,0.5,0.2,0.9,0.6,1.3
			c0.4,0.4,0.9,0.6,1.4,0.6h9.3v16.8H123.8z"/>
		<path class="st6" d="M176.6,289.2v-15.3h-24.4v15.3h-16.8v-77.1v-7.7l11-0.8c12.9,0,24,4.6,33.2,13.8c9.2,9.2,13.8,20.3,13.8,33.2
			v38.6H176.6z M176.6,250.6c0-7.2-2.3-13.6-6.9-19.2c-4.6-5.5-10.4-9-17.5-10.3v36h24.4V250.6z"/>
		<path class="st6" d="M263.5,289.2v-67.9c-2.3,0.6-4.5,1.4-6.6,2.6c-2.1,1.2-4,2.6-5.8,4.1v61.2h-16.8v-67.9
			c-6.5,1.7-11.7,5.1-15.9,10.4c-4.1,5.3-6.2,11.3-6.2,17.9v39.5h-16.9v-39.5c0-12.7,4.5-23.5,13.5-32.5c9-9,19.9-13.5,32.5-13.5
			h9.7v4.4c2.4-1.1,4.6-1.9,6.8-2.5c2.2-0.6,4.4-1,6.6-1.2c2.3-0.3,4.5-0.5,6.8-0.5c2.2,0,4.6-0.1,7-0.1c0.3,0,0.6,0,1,0s0.7,0,1,0
			v85.6H263.5z"/>
	</g>
</g>
</svg>
