<?xml version="1.0" encoding="utf-8"?>
<!-- Generator: Adobe Illustrator 22.1.0, SVG Export Plug-In . SVG Version: 6.00 Build 0)  -->
<svg version="1.1" id="Layer_1" xmlns="http://www.w3.org/2000/svg" xmlns:xlink="http://www.w3.org/1999/xlink" x="0px" y="0px"
	 viewBox="0 0 230 250" style="enable-background:new 0 0 230 250;" xml:space="preserve">
<style type="text/css">
	.st0{fill:#FFFFFF;}
	.st1{fill:#E57430;}
	.st2{fill:#543425;}
	.st3{fill:#F6B30B;stroke:#FFFFFF;stroke-width:1.0575;stroke-miterlimit:10;}
	.st4{fill:#FF7900;stroke:#FFFFFF;stroke-width:1.0575;stroke-miterlimit:10;}
</style>
<g>
	<path class="st0" d="M39.6,76.3c-9.9,0-18.5-3.5-25.5-10.5c-7-7-10.6-15.6-10.6-25.5c0-9.9,3.6-18.5,10.6-25.5
		c7-7,15.6-10.6,25.5-10.6c3.5,0,7,0.5,10.4,1.5c3.3,1,6.5,2.5,9.5,4.4l2.3,3.4l2.4,11.6l-0.8,4.1l-4.6,7l-3.5,2.3l-8.4,1.7l8.4,1.5
		l3.5,2.2l4.8,6.8l0.9,4l-2,11.7l-2.2,3.5c-3.1,2.2-6.4,3.8-10,4.9C46.9,75.8,43.3,76.3,39.6,76.3z M39.6,40.5l1.2-0.3l-1.4-0.3
		c0,0,0.1,0.1,0.2,0.1c0,0,0,0,0,0c0,0,0,0,0,0c0.1,0,0.2,0.1,0.2,0.1c-0.1,0-0.1,0-0.2,0c0,0-0.1,0-0.1,0c0,0-0.1,0.1-0.1,0.1
		c0,0,0,0.1,0,0.2C39.5,40.4,39.6,40.5,39.6,40.5C39.6,40.5,39.6,40.5,39.6,40.5z"/>
	<path class="st1" d="M39.6,68C32,68,25.4,65.2,20,59.9c-5.4-5.4-8.1-12-8.1-19.6c0-7.6,2.7-14.2,8.1-19.6c5.4-5.4,12-8.1,19.6-8.1
		c2.7,0,5.4,0.4,7.9,1.2c2.6,0.8,5,1.9,7.3,3.4l1.6,7.5l-4.6,7L44.2,33c-0.6-0.4-1.3-0.8-2.1-1c-0.8-0.2-1.7-0.3-2.5-0.3
		c-2.4,0-4.3,0.8-6,2.5s-2.5,3.6-2.5,6c0,2.4,0.8,4.4,2.5,6.1c1.7,1.7,3.6,2.5,6,2.5c0.9,0,1.7-0.1,2.5-0.4c0.8-0.3,1.6-0.6,2.3-1.1
		l7.5,1.3l4.8,6.8L55.5,63c-2.3,1.7-4.9,2.9-7.6,3.7C45.3,67.5,42.5,68,39.6,68z"/>
	<path class="st0" d="M72.6,75.3l-2.4-0.5L66.5,73l-0.8,0.8l-3.8,1.6h-8.4l-3.8-1.6l-8.4-8.4l-1.6-3.8V19.1l1.6-3.8l8.4-8.4l3.8-1.6
		h4.2c6.7,0,12.8,1.9,17.7,5.6l4-4l3.8-1.6h8.4l3.8,1.6l8.4,8.4l1.6,3.8v42.4l-1.6,3.8l-8.4,8.4l-3.8,1.6h-8.2l-0.1,0.1H72.6z"/>
	<path class="st1" d="M72.6,67l-4.2-2l-2-2.5L61.9,67h-8.4l-5.4-5.4V19.1l5.4-5.4h4.2c6.6,0,12,2.3,15.9,6.9
		c1.8,2.1,3.2,4.3,4.1,6.7v-8.1l5.4-5.4h8.4l5.4,5.4v42.4l-5.4,5.4h-8.3l0,0.1H72.6z M77.8,46v-2.5C77.6,44,77.3,44.5,77,45L77.8,46
		z"/>
	<polygon class="st0" points="98.5,75.3 94.7,73.8 86.3,65.4 84.7,61.5 84.7,35.2 80.8,31.2 79.2,27.4 79.2,19 80.8,15.2 89.1,6.8 
		93,5.2 112.5,5.2 116.4,6.8 124.7,15.2 126.3,19 126.3,27.4 124.7,31.2 120.7,35.2 120.7,61.5 119.1,65.4 110.7,73.8 106.9,75.3 	
		"/>
	<polygon class="st1" points="98.5,67 93.1,61.5 93.1,32.8 93,32.8 87.6,27.4 87.6,19 93,13.6 112.5,13.6 117.9,19 117.9,27.4 
		112.5,32.8 112.3,32.8 112.3,61.5 106.9,67 	"/>
	<polygon class="st0" points="114.3,75.3 110.5,73.7 102.1,65.3 100.5,61.5 100.5,19.1 102.1,15.2 110.5,6.9 114.3,5.3 122.7,5.3 
		126.5,6.9 134.9,15.2 136.5,19.1 136.5,61.5 134.9,65.3 126.5,73.7 122.7,75.3 	"/>
	<polygon class="st1" points="114.3,66.9 108.9,61.5 108.9,19.1 114.3,13.7 122.7,13.7 128.1,19.1 128.1,61.5 122.7,66.9 	"/>
	<path class="st0" d="M147,76.3c-9.9,0-18.5-3.6-25.5-10.6c-7.1-7-10.6-15.6-10.6-25.5c0-9.9,3.6-18.5,10.6-25.6
		c7-7,15.6-10.6,25.5-10.6l3.8,1.6l8.4,8.4l1.4,3.3l8.2,8.2l1.6,3.8v31.3l-1.2,3.4l-6.5,8.2l-2.4,1.7l-0.1,0c-0.9,0.3-1.9,0.6-3,0.9
		l-0.3,0.1l-0.7,0.2l-0.6,0.2c-1.3,0.3-2.6,0.5-3.9,0.7C150.1,76.2,148.6,76.3,147,76.3z"/>
	<path class="st1" d="M147,68c-7.6,0-14.2-2.7-19.6-8.1c-5.4-5.4-8.2-12-8.2-19.6c0-7.6,2.8-14.2,8.2-19.6c5.4-5.4,12-8.1,19.6-8.1
		l5.4,5.4v6h4.1l5.4,5.4v31.3l-4.2,5.3c-0.1,0-0.2,0.1-0.5,0.2c-0.6,0.2-1.3,0.4-2,0.6l-0.4,0.1c0,0-0.9,0.3-0.9,0.3l-0.3,0.1
		c-1,0.2-2.1,0.4-3.1,0.6C149.4,67.9,148.2,68,147,68z M138.5,40.3c0,2.4,0.8,4.3,2.5,6c0.6,0.6,1.2,1.1,1.9,1.4v-4.6h-1.2l-3.1-3.1
		C138.5,40.1,138.5,40.2,138.5,40.3z"/>
	<path class="st0" d="M174.1,75.3c-6.2,0-11.8-2.3-16.3-6.7c-3.9-3.9-6.2-8.7-6.7-14.1c-1.1-1.4-2.2-2.8-3.1-4.4
		c-2.6-4.5-3.9-9.5-3.9-14.8c0-8.1,3-15.4,8.8-21.2c5.7-5.7,13.1-8.8,21.2-8.8h4.6l3.8,1.6l8.4,8.4l1.6,3.8v8.3l-1.6,3.8l-4,4l4,4
		l1.6,3.8v8.3l-0.4,0.9l0.4,0.9v8.3l-1.6,3.8l-8.4,8.4l-3.8,1.6H174.1z"/>
	<path class="st1" d="M174.1,66.9c-3.9,0-7.5-1.5-10.4-4.3c-2.9-2.8-4.4-6.4-4.4-10.4c0-0.4,0-0.8,0-1.2c-1.6-1.5-3-3.2-4.1-5.2
		c-1.9-3.2-2.8-6.8-2.8-10.6c0-5.9,2.1-11,6.3-15.2c4.2-4.2,9.3-6.3,15.3-6.3h4.6l5.4,5.4v8.3l-5.4,5.4h-4.6c-0.7,0-1.2,0.2-1.8,0.7
		c-0.5,0.5-0.7,1-0.7,1.7c0,0.7,0.2,1.3,0.7,1.9c0.4,0.4,0.5,0.4,0.8,0.4h5.6l5.4,5.4v8.3l-0.9,0.9l0.9,0.9v8.3l-5.4,5.4H174.1z"/>
	<path class="st0" d="M199.4,75.3l-3.8-1.6l-1.6-1.6l-1.6,1.6l-3.8,1.6h-8.3l-3.8-1.6l-8.4-8.4l-1.6-3.8V19.1l1.6-3.8l8.4-8.4
		l3.8-1.6c3,0,6,0.1,8.7,0.3c2.2,0.2,4.5,0.6,6.7,1.3l3.8-1.6h8.4l3.8,1.6l8.4,8.4l1.6,3.8v42.4l-1.6,3.8l-8.4,8.4l-3.8,1.6H199.4z"
		/>
	<path class="st1" d="M199.4,66.9l-5.4-5.4V41.9c0-0.4,0-0.9-0.1-1.3v20.9l-5.4,5.4h-8.3l-5.4-5.4V19.1l5.4-5.4
		c2.8,0,5.5,0.1,8.1,0.3c2.9,0.2,5.8,1,8.6,2.3l2.6-2.6h8.4l5.4,5.4v42.4l-5.4,5.4H199.4z"/>
	<path class="st0" d="M60.6,164.1c-14.9,0-27.9-5.4-38.6-16c-10.7-10.6-16.1-23.6-16.1-38.6c0-15,5.4-28.1,16.1-38.7
		c10.7-10.6,23.7-16,38.6-16c15,0,28,5.4,38.7,16c10.6,10.6,16,23.7,16,38.7c0,15-5.4,27.9-16,38.6
		C88.6,158.7,75.6,164.1,60.6,164.1z M60.6,97.5c-3.4,0-5.9,1-8.3,3.5c-2.5,2.5-3.5,5-3.5,8.4c0,3.4,1,5.9,3.5,8.4
		c2.4,2.4,4.9,3.5,8.4,3.5c3.5,0,6-1,8.4-3.5c2.4-2.4,3.5-4.9,3.5-8.3c0-3.4-1.1-5.9-3.5-8.4C66.5,98.6,64,97.5,60.6,97.5z"/>
	<path class="st1" d="M60.6,155.7c-12.7,0-23.7-4.6-32.7-13.6c-9.1-9-13.7-20-13.7-32.7c0-12.7,4.6-23.8,13.7-32.8
		c9.1-9,20.1-13.6,32.7-13.6c12.7,0,23.8,4.6,32.8,13.6c9,9,13.6,20,13.6,32.8c0,12.7-4.6,23.6-13.6,32.7
		C84.3,151.1,73.3,155.7,60.6,155.7z M60.6,89.1c-5.6,0-10.3,1.9-14.3,6c-4,4-5.9,8.7-5.9,14.3c0,5.6,1.9,10.3,5.9,14.3
		c4,4,8.6,5.9,14.3,5.9c5.6,0,10.3-1.9,14.3-5.9c4-4,6-8.6,6-14.3c0-5.6-2-10.3-6-14.3C70.9,91.1,66.2,89.1,60.6,89.1z"/>
	<path class="st0" d="M100.2,165l-3.1-2.8l-6.5-13.6l-0.2-4.1l3.9-11.1l2.7-3.1c0.9-0.4,1.4-0.9,1.8-1.6c0.5-0.8,0.7-1.6,0.7-2.4
		c0-0.1,0-0.2,0-0.3c0-0.1,0-0.3-0.1-0.5c0-0.1,0-0.2-0.1-0.3c-0.1-0.2-0.2-0.5-0.3-0.7l-5.4-11.2c-0.9-2.1-1.8-4.2-2.4-6.3
		c-0.7-2.3-1.3-4.7-1.6-7l-0.1-0.6l-0.2-2.4c-0.1-1.2-0.2-2.4-0.2-3.6c0-8.8,2.4-17.1,7.1-24.7C101,61,107.7,55,116,51l4.2-0.2
		l11.2,4l3.1,2.8l6.5,13.8l0.2,4.2l-4,11.2l-2.8,3.1c-0.5,0.2-0.8,0.5-1.1,0.8c-0.4,0.4-0.6,0.8-0.8,1.3c0,0-0.1,0.3-0.1,0.3
		c0,0.3-0.1,0.6-0.1,0.9c0,0.8,0.1,1.5,0.4,2.2c0.9,2.2,1.9,4.4,3,6.5c0.2,0.4,0.4,0.7,0.5,1.1l0.1,0.1l0.2,0.3
		c0.3,0.6,0.6,1.1,0.8,1.7c0.2,0.4,0.3,0.7,0.5,1l0.2,0.4c1.1,2.3,2,4.7,2.7,7.2c0.7,2.5,1.2,5,1.5,7.5c0.1,0.8,0.2,1.7,0.2,2.6
		c0.1,0.9,0.1,1.8,0.1,2.6l0,0.1c-0.1,8.7-2.5,17-7.1,24.5c-4.7,7.8-11.4,13.8-19.8,17.8l-4.1,0.2L100.2,165z"/>
	<path class="st1" d="M104.6,158.6L98.1,145l2.5-7.2c2.3-1.1,4-2.7,5.3-4.8c1.3-2.2,1.9-4.4,1.9-6.7c0-0.4,0-0.8-0.1-1.3
		c0-0.4-0.1-0.9-0.2-1.3c-0.1-0.4-0.2-0.8-0.4-1.2c-0.2-0.4-0.3-0.9-0.6-1.4l-5.4-11.2c-0.8-1.8-1.5-3.6-2.1-5.3
		c-0.6-1.9-1-3.7-1.3-5.6l0-0.2l-0.2-2.4c-0.1-0.9-0.1-1.9-0.1-2.8c0-7.2,2-14.1,5.8-20.4c3.9-6.3,9.3-11.2,16.2-14.5l7.3,2.6
		l6.5,13.8l-2.6,7.2c-1.5,0.7-2.7,1.6-3.8,2.8c-1.1,1.2-1.9,2.6-2.5,4.1l-0.1,0.1c-0.2,0.6-0.4,1.1-0.4,1.7
		c-0.1,0.7-0.2,1.4-0.2,2.2c0,1.9,0.4,3.7,1.1,5.5c1,2.3,2.1,4.7,3.2,7c0.2,0.4,0.4,0.7,0.5,1.1l0.3,0.4c0.2,0.5,0.5,1,0.7,1.5
		c0.2,0.4,0.4,0.8,0.6,1.2l0.1,0.2c0.9,2,1.6,4,2.2,6c0.6,2,1,4.1,1.2,6.2c0.1,0.7,0.1,1.4,0.2,2.1c0,0.7,0.1,1.4,0.1,2.1
		c-0.1,7.2-2.1,14.1-5.9,20.3c-3.9,6.4-9.3,11.3-16.3,14.6L104.6,158.6z"/>
	<path class="st0" d="M194,162.4l-3.8-1.6l-6.2-6.2l-6.2,6.2l-3.8,1.6h-15.2l-3.8-1.6l-1.8-1.8l-1.8,1.8l-3.8,1.6h-15.3l-3.8-1.6
		l-8.4-8.4l-1.6-3.8V70.9l1.6-3.8l8.4-8.4l3.8-1.6h1.8c2.3,0,4.5,0,6.6,0.1c2.5,0,5.1,0.2,7.6,0.6c2.2,0.2,4.4,0.6,6.5,1.1l0.2-0.2
		l3.8-1.6h8.8c15.2,0,28.5,5.5,39.3,16.3c10.8,10.8,16.3,24,16.3,39.3v35.9l-1.6,3.8l-8.4,8.4l-3.8,1.6H194z"/>
	<path class="st1" d="M194,154l-5.4-5.4v-35.9c0-4.9-1.5-9.1-4.4-13c-1.4-1.8-3-3.3-4.8-4.5v53.4l-5.4,5.4h-15.2l-5.4-5.4V95.6
		c-0.1-0.1-0.3-0.2-0.4-0.3v53.2l-5.4,5.4h-15.3l-5.4-5.4V70.9l5.4-5.4h1.8c2.2,0,4.4,0,6.5,0.1c2.2,0,4.5,0.2,6.7,0.5
		c2.2,0.2,4.5,0.7,6.7,1.3c0.8,0.2,1.5,0.4,2.3,0.7l2.5-2.5h8.8c12.9,0,24.2,4.7,33.4,13.9c9.2,9.2,13.9,20.4,13.9,33.4v35.9
		l-5.4,5.4H194z"/>
	<polygon class="st0" points="26.8,242 22.9,240.4 14.5,232 13,228.2 13,181.5 5,173.6 3.5,169.8 3.5,155.5 5,151.6 13.4,143.3 
		17.3,141.7 50.7,141.7 54.5,143.3 62.9,151.6 64.5,155.5 64.5,169.8 62.9,173.6 54.9,181.6 54.9,228.2 53.3,232 44.9,240.4 
		41.1,242 	"/>
	<polygon class="st1" points="26.8,233.6 21.3,228.2 21.3,175.2 17.3,175.2 11.8,169.8 11.8,155.5 17.3,150 50.7,150 56.1,155.5 
		56.1,169.8 50.7,175.2 46.5,175.2 46.5,228.2 41.1,233.6 	"/>
	<path class="st0" d="M76.4,241.9c-8,0-15.2-3-20.9-8.6c-5.8-5.7-8.8-12.9-8.8-21c0-0.1,0-0.1,0-0.2c-2.5-2.5-4.6-5.4-6.4-8.5
		c-3.6-6.2-5.4-13.1-5.4-20.5c0-11.4,4.1-21.2,12.1-29.3c8.1-8.1,17.9-12.1,29.4-12.1h7.9l3.8,1.6l8.4,8.4l1.6,3.8v14.2l-1.6,3.8
		l-8.4,8.4l-2.8,1.1l2.8,1.1l8.4,8.4l1.6,3.8v14.2l-0.7,1.6l0.7,1.6v14.2l-1.6,3.8l-8.4,8.4l-3.8,1.6H76.4z"/>
	<path class="st1" d="M76.4,233.5c-5.8,0-10.8-2.1-15-6.2c-4.2-4.1-6.3-9.2-6.3-15c0-1.2,0.1-2.4,0.3-3.5c-3.1-2.6-5.7-5.7-7.8-9.3
		c-2.8-4.9-4.3-10.4-4.3-16.3c0-9.1,3.3-16.9,9.7-23.3c6.4-6.4,14.3-9.7,23.4-9.7h7.9l5.4,5.4v14.2l-5.4,5.4h-7.9
		c-2.2,0-4.1,0.7-5.7,2.4c-1.6,1.6-2.4,3.4-2.4,5.6c0,2.2,0.7,4,2.1,5.8c1.2,1.5,2.5,2.1,4.2,2.1h9.6l5.4,5.4v14.2l-1.6,1.6l1.6,1.6
		v14.2l-5.4,5.4H76.4z"/>
	<path class="st0" d="M121.1,241.9l-3.8-1.6l-6.5-6.5l-6.5,6.5l-3.8,1.6H86.2l-3.8-1.6l-8.4-8.4l-1.6-3.8v-71.8l1.4-3.7l7.7-8.3
		l3.6-1.7l9.3-0.7l0.2,0l0.6,0l0.2,0c14.7,0,27.4,5.3,37.9,15.7c10.4,10.5,15.7,23.2,15.7,37.9v32.7l-1.6,3.8l-8.4,8.4l-3.8,1.6
		H121.1z"/>
	<path class="st1" d="M121.1,233.5l-5.4-5.4v-7.6h-9.9v7.6l-5.4,5.4H86.2l-5.4-5.4v-71.8l5-5.4l9.3-0.7l0.4,0
		c12.4,0,23.1,4.5,32,13.3c8.8,8.8,13.3,19.6,13.3,32v32.7l-5.4,5.4H121.1z M115.7,195.5L115.7,195.5c0-5-1.5-9.1-4.6-12.9
		c-1.6-1.9-3.3-3.4-5.3-4.5v17.4H115.7z"/>
	<path class="st0" d="M194.7,241.9l-3.8-1.6l-1.4-1.4l-1.4,1.4l-3.8,1.6H170l-3.8-1.6l-5.5-5.5l-5.5,5.5l-3.8,1.6H137l-3.8-1.6
		l-8.4-8.4l-1.6-3.8v-33.5c0-14.5,5.2-27,15.5-37.3c10.3-10.3,22.8-15.5,37.3-15.5h8.2l3.8,1.6l0,0c1.9-0.5,3.9-0.8,5.9-1
		c2.4-0.3,4.8-0.5,7.2-0.5c2,0,4.1-0.1,6.2-0.1h1.7l3.8,1.6l8.4,8.4l1.6,3.8v72.5l-1.6,3.8l-8.4,8.4l-3.8,1.6H194.7z"/>
	<path class="st1" d="M194.7,233.5l-5.3-5.3l-5.3,5.3H170l-5.4-5.4V179c-1.4,1-2.6,2.3-3.8,3.7c-2.8,3.5-4.1,7.4-4.1,11.9v33.5
		l-5.4,5.4H137l-5.4-5.4v-33.5c0-12.2,4.4-22.7,13-31.4c8.7-8.7,19.2-13,31.4-13h8.2l2.4,2.4c0.7-0.2,1.4-0.4,2-0.6
		c2.1-0.6,4.2-1,6.3-1.2c2.1-0.3,4.2-0.5,6.3-0.5c1.9,0,4-0.1,6.1-0.1h1.7l5.4,5.4v72.5l-5.4,5.4H194.7z"/>
	<path class="st1" d="M39.6,70.9c-8.4,0-15.7-3-21.7-9c-6-6-9-13.3-9-21.7c0-8.4,3-15.7,9-21.7c6-6,13.3-9,21.7-9
		c3,0,5.9,0.4,8.8,1.3c2.8,0.9,5.5,2.1,8,3.8l2.4,11.6l-4.6,7l-11.8,2.3c-0.4-0.3-0.8-0.4-1.2-0.6c-0.6-0.2-1.1-0.2-1.7-0.2
		c-1.6,0-2.8,0.5-4,1.6s-1.6,2.3-1.6,4c0,1.6,0.5,2.8,1.7,4c1.2,1.2,2.3,1.7,3.9,1.7c0.6,0,1.1-0.1,1.6-0.2c0.5-0.2,1-0.4,1.5-0.8
		l11.6,2l4.8,6.8l-2,11.7c-2.6,1.8-5.4,3.2-8.4,4.2C45.8,70.5,42.8,70.9,39.6,70.9z"/>
	<path class="st1" d="M39.6,62.5c2.3,0,4.5-0.3,6.7-1c2.2-0.7,4.2-1.7,6.1-3l-4.8-6.8c-1.2,0.8-2.4,1.4-3.8,1.9
		c-1.3,0.4-2.7,0.6-4.2,0.6c-3.9,0-7.2-1.4-9.9-4.1c-2.7-2.7-4.1-6.1-4.1-9.9c0-3.9,1.4-7.2,4.1-9.9c2.7-2.7,6-4.1,9.9-4.1
		c1.4,0,2.7,0.2,4,0.6c1.3,0.4,2.5,0.9,3.7,1.7l4.6-7c-1.8-1.2-3.8-2.1-5.8-2.7c-2.1-0.6-4.2-0.9-6.4-0.9c-6.2,0-11.4,2.2-15.8,6.6
		c-4.4,4.4-6.6,9.6-6.6,15.8c0,6.2,2.2,11.4,6.6,15.8C28.2,60.4,33.5,62.5,39.6,62.5z"/>
	<path class="st1" d="M72.6,69.9L66,66.8l-0.4-0.6l-3.7,3.7h-8.4l-8.4-8.4V19.1l8.4-8.4h4.2c7.2,0,13.4,2.6,17.9,7.6l7.6-7.6h8.4
		l8.4,8.4v42.4l-8.4,8.4h-8.3l0,0.1H72.6z"/>
	<path class="st1" d="M61.9,48.1l10.7,13.5h10.7l0-0.1h8.4V19.1h-8.4v42.4L70.4,45.3c1.2-1.5,2.2-3.1,2.7-4.8
		c0.6-1.7,0.8-3.5,0.8-5.2c0-4.1-1.5-7.9-4.4-11.2c-2.9-3.4-6.9-5-11.8-5h-4.2v42.5h8.4V48.1z M61.9,28.6c1.2,0.7,2.1,1.6,2.7,2.7
		c0.6,1.1,0.9,2.2,1,3.3c0,0.1,0,0.1,0,0.2c0,0.1,0,0.1,0,0.2c0,1.3-0.3,2.5-0.9,3.7c-0.6,1.2-1.6,2.2-2.8,3.1V28.6z"/>
	<polygon class="st1" points="98.5,69.9 90.2,61.5 90.2,32.9 84.6,27.4 84.6,19 93,10.6 112.5,10.6 120.9,19 120.9,27.4 115.3,33 
		115.3,61.5 106.9,69.9 	"/>
	<polygon class="st1" points="98.5,61.5 106.9,61.5 106.9,27.4 112.5,27.4 112.5,19 93,19 93,27.4 98.5,27.4 	"/>
	<polygon class="st1" points="114.3,69.9 106,61.5 106,19.1 114.3,10.7 122.7,10.7 131.1,19.1 131.1,61.5 122.7,69.9 	"/>
	<rect x="114.3" y="19.1" class="st1" width="8.4" height="42.4"/>
	<path class="st1" d="M147,70.9c-8.4,0-15.7-3-21.7-9c-6-6-9-13.3-9-21.7c0-8.4,3-15.7,9-21.7c6-6,13.3-9,21.7-9l8.4,8.4V21h1.2
		l8.4,8.4v31.3l-6.5,8.2c0,0-0.1,0-0.1,0.1c-0.7,0.3-1.5,0.5-2.4,0.7l-0.4,0.1l-0.8,0.2l-0.5,0.1c-1.1,0.3-2.3,0.5-3.4,0.6
		C149.6,70.8,148.3,70.9,147,70.9z"/>
	<path class="st1" d="M147,62.5c0.9,0,1.9-0.1,2.7-0.2c0.9-0.1,1.8-0.3,2.6-0.5c0.3-0.1,0.5-0.2,0.8-0.2c0.3-0.1,0.5-0.1,0.8-0.2
		c0.5-0.1,1-0.3,1.4-0.4c0.4-0.2,0.8-0.3,1.2-0.4V29.4h-15v8.4h6.7v16.4c-0.2,0-0.4,0.1-0.6,0.1c-0.2,0-0.4,0-0.6,0
		c-3.9,0-7.2-1.4-9.9-4.1c-2.7-2.7-4.1-6-4.1-9.9c0-3.9,1.4-7.2,4.1-9.9c2.7-2.7,6-4.1,9.9-4.1v-8.3c-6.1,0-11.4,2.2-15.8,6.6
		c-4.4,4.4-6.6,9.6-6.6,15.8c0,6.1,2.2,11.4,6.6,15.7C135.6,60.4,140.9,62.5,147,62.5z"/>
	<path class="st1" d="M174.1,69.9c-4.7,0-9-1.8-12.4-5.1c-3.4-3.4-5.2-7.7-5.2-12.4c-1.4-1.5-2.7-3.1-3.7-4.9
		c-2.1-3.7-3.2-7.8-3.2-12.1c0-6.6,2.5-12.6,7.2-17.3c4.7-4.7,10.7-7.2,17.4-7.2h4.6l8.4,8.4v8.3l-7.8,7.8l7.8,7.8v8.3l-0.9,0.9
		l0.9,0.9v8.3l-8.4,8.4H174.1z"/>
	<path class="st1" d="M165.4,48.9c-0.2,0.5-0.4,1-0.5,1.6c-0.1,0.6-0.2,1.1-0.2,1.7c0,2.5,0.9,4.7,2.7,6.5c1.8,1.8,4,2.7,6.6,2.7
		h4.6v-8.3h-4.6c-0.3,0-0.5-0.1-0.7-0.3c-0.2-0.2-0.3-0.4-0.3-0.6c0-0.3,0.1-0.5,0.2-0.6c0.1-0.1,0.2-0.2,0.4-0.3
		c0.1,0,0.2-0.1,0.3-0.1c0.1,0,0.2,0,0.2,0h4.6V43h-5.6c-2,0-3.6-0.8-4.9-2.4c-1.3-1.6-2-3.4-2-5.4c0-2.2,0.8-4,2.3-5.6
		c1.6-1.5,3.4-2.3,5.6-2.3h4.6v-8.3h-4.6c-4.5,0-8.3,1.6-11.5,4.7c-3.2,3.2-4.7,7-4.7,11.4c0,2.9,0.7,5.5,2.1,7.9
		C161.4,45.5,163.2,47.5,165.4,48.9z"/>
	<path class="st1" d="M199.4,69.9l-5.5-5.5l-5.5,5.5h-8.3l-8.4-8.4V19.1l8.4-8.4c2.9,0,5.7,0.1,8.3,0.3c2.9,0.2,5.7,0.9,8.5,2.1
		l2.4-2.4h8.4l8.4,8.4v42.4l-8.4,8.4H199.4z"/>
	<path class="st1" d="M188.4,27.9c3.2,0.8,5.9,2.5,7.9,5.1c2,2.6,3,5.6,3,8.9v19.6h8.4V19.1h-8.4v5.2c-0.7-0.6-1.5-1.2-2.3-1.6
		c-0.8-0.5-1.5-0.9-2.3-1.3c-2.3-1.1-4.7-1.8-7.1-2c-2.4-0.2-4.9-0.3-7.6-0.3v42.4h8.3V27.9z"/>
	<path class="st1" d="M60.6,158.6c-13.5,0-25.2-4.9-34.8-14.4c-9.6-9.6-14.5-21.3-14.5-34.8c0-13.5,4.9-25.3,14.5-34.9
		c9.6-9.6,21.3-14.4,34.8-14.4c13.5,0,25.3,4.9,34.9,14.5c9.6,9.6,14.5,21.3,14.5,34.9c0,13.5-4.9,25.2-14.5,34.7
		C85.8,153.8,74.1,158.6,60.6,158.6z M60.6,92.1c-4.9,0-8.7,1.6-12.2,5.1c-3.5,3.5-5.1,7.4-5.1,12.3c0,4.9,1.6,8.7,5,12.2
		c3.4,3.4,7.3,5.1,12.2,5.1c4.9,0,8.8-1.6,12.3-5.1c3.5-3.4,5.1-7.3,5.1-12.2c0-4.9-1.6-8.8-5.1-12.2C69.3,93.7,65.4,92.1,60.6,92.1
		z"/>
	<path class="st1" d="M60.6,68.5c-11.2,0-20.8,4-28.9,12c-8,8-12.1,17.6-12.1,28.9c0,11.2,4,20.8,12.1,28.8c8,8,17.7,12,28.9,12
		c11.3,0,20.9-4,28.9-12c8-8,12-17.6,12-28.8c0-11.3-4-20.9-12-28.9C81.5,72.5,71.8,68.5,60.6,68.5z M78.7,127.6
		c-5,5-11.1,7.5-18.2,7.5c-7.1,0-13.1-2.5-18.1-7.5c-5-5-7.5-11-7.5-18.1c0-7.1,2.5-13.1,7.5-18.2c5-5,11-7.6,18.1-7.6
		c7.1,0,13.1,2.5,18.2,7.6c5,5,7.6,11.1,7.6,18.2C86.3,116.5,83.8,122.6,78.7,127.6z"/>
	<path class="st1" d="M102,159.9l-6.5-13.6l3.9-11.1c1.8-0.9,3.1-2,4.1-3.7c1-1.7,1.5-3.4,1.5-5.2c0-0.3,0-0.6-0.1-0.9
		c0-0.3-0.1-0.7-0.2-1c-0.1-0.3-0.2-0.6-0.3-0.9c-0.1-0.4-0.3-0.8-0.5-1.2l-5.4-11.2c-0.9-1.9-1.6-3.8-2.2-5.7
		c-0.6-2-1.1-4.1-1.4-6.1l0-0.4l-0.2-2.4c-0.1-1-0.1-2.1-0.1-3.1c0-7.8,2.1-15.1,6.3-21.9c4.2-6.8,10.1-12.1,17.4-15.6l11.2,4
		l6.5,13.8l-4,11.2c-1.1,0.5-2.1,1.2-2.9,2.1c-0.8,0.9-1.5,2-1.9,3.2l-0.1,0.2c-0.1,0.4-0.2,0.7-0.3,1c-0.1,0.6-0.1,1.1-0.1,1.7
		c0,1.5,0.3,2.9,0.9,4.3c1,2.3,2,4.6,3.2,6.8c0.2,0.4,0.4,0.8,0.5,1.1l0.2,0.4c0.3,0.5,0.5,1,0.8,1.6c0.2,0.4,0.4,0.8,0.5,1.1
		l0.1,0.3c1,2.1,1.8,4.2,2.4,6.4c0.6,2.2,1.1,4.4,1.3,6.6c0.1,0.7,0.2,1.5,0.2,2.3c0,0.8,0.1,1.6,0.1,2.3l0,0.1
		c-0.1,7.7-2.2,15-6.3,21.8c-4.2,6.9-10.1,12.1-17.5,15.7L102,159.9z"/>
	<path class="st1" d="M103,142.7l6.5,13.6c6-2.9,10.7-7,14-12.5c3.3-5.5,5-11.3,5.1-17.5c0-0.6,0-1.2-0.1-1.8c0-0.6-0.1-1.2-0.2-1.8
		c-0.2-1.8-0.6-3.6-1.1-5.3c-0.5-1.8-1.1-3.5-1.9-5.2c-0.2-0.4-0.4-0.9-0.6-1.3c-0.2-0.5-0.4-0.9-0.6-1.3c-0.1-0.2-0.3-0.4-0.4-0.7
		c-0.1-0.2-0.2-0.5-0.4-0.8c-1.2-2.4-2.3-4.9-3.4-7.3c-1-2.4-1.6-5-1.6-7.6c0-1,0.1-2,0.2-2.9c0.1-1,0.4-1.9,0.8-2.8
		c0.8-2.2,2-4.2,3.5-5.9c1.6-1.8,3.4-3.1,5.6-4.1L122,63.5c-5.9,2.9-10.6,7-13.9,12.5c-3.4,5.5-5,11.3-5,17.5c0,0.8,0,1.6,0.1,2.4
		c0.1,0.8,0.1,1.6,0.2,2.4c0.2,1.6,0.6,3.1,1.1,4.7c0.5,1.6,1.1,3.1,1.8,4.7l5.4,11.1c0.3,0.6,0.5,1.3,0.8,1.9
		c0.2,0.6,0.4,1.2,0.5,1.9c0.1,0.6,0.2,1.3,0.3,1.9c0.1,0.6,0.1,1.2,0.1,1.9c0,3.4-0.9,6.5-2.7,9.5
		C108.7,138.8,106.2,141.1,103,142.7z"/>
	<path class="st1" d="M194,156.9l-8.4-8.4v-35.9c0-3.9-1.1-7.3-3.3-10.5v46.4l-8.4,8.4h-15.2l-5.6-5.6l-5.6,5.6h-15.3l-8.4-8.4V70.9
		l8.4-8.4h1.8c2.3,0,4.4,0,6.5,0.1c2.3,0,4.7,0.2,7,0.5c2.4,0.3,4.8,0.7,7.1,1.3c0.5,0.1,1.1,0.3,1.6,0.5l2.4-2.4h8.8
		c13.7,0,25.7,5,35.4,14.7c9.8,9.8,14.7,21.7,14.7,35.4v35.9l-8.4,8.4H194z"/>
	<path class="st1" d="M197,83.1c-8.2-8.2-18-12.3-29.5-12.3h-8.8v4c-2.1-1-4.2-1.8-6.2-2.3c-2-0.5-4-0.9-6-1.1
		c-2.1-0.3-4.1-0.4-6.2-0.5c-2,0-4.2-0.1-6.4-0.1c-0.3,0-0.6,0-0.9,0c-0.3,0-0.6,0-0.9,0v77.7h15.3V86.9c2.1,0.5,4.1,1.3,6,2.4
		c1.9,1.1,3.7,2.3,5.3,3.8v55.5h15.2V86.9c5.9,1.5,10.8,4.6,14.5,9.4c3.7,4.8,5.6,10.2,5.6,16.3v35.9h15.3v-35.9
		C209.3,101.2,205.2,91.3,197,83.1z"/>
	<polygon class="st1" points="26.8,236.6 18.4,228.2 18.4,178.1 17.3,178.1 8.9,169.8 8.9,155.5 17.3,147.1 50.7,147.1 59,155.5 
		59,169.8 50.7,178.1 49.4,178.1 49.4,228.2 41.1,236.6 	"/>
	<polygon class="st1" points="50.7,155.5 17.3,155.5 17.3,169.8 26.8,169.8 26.8,228.2 41.1,228.2 41.1,169.8 50.7,169.8 	"/>
	<path class="st1" d="M76.4,236.5c-6.5,0-12.4-2.4-17.1-7.1c-4.7-4.7-7.2-10.6-7.2-17.1c0-0.8,0-1.6,0.1-2.3c-2.8-2.6-5.3-5.6-7.3-9
		c-3.1-5.4-4.7-11.3-4.7-17.7c0-9.9,3.6-18.4,10.6-25.4c7-7,15.6-10.6,25.5-10.6h7.9l8.4,8.4v14.2l-8.4,8.4h-7.9
		c-1.5,0-2.5,0.4-3.7,1.5c-1,1-1.5,2-1.5,3.5c0,1.5,0.4,2.7,1.4,3.9c0.8,1,1.4,1.1,2,1.1h9.6l8.4,8.4v14.2l-1.6,1.6l1.6,1.6v14.2
		l-8.4,8.4H76.4z"/>
	<path class="st1" d="M56.8,163.7c-5.4,5.4-8.1,11.9-8.1,19.5c0,4.9,1.2,9.5,3.6,13.6c2.4,4.1,5.5,7.4,9.4,9.9
		c-0.3,0.9-0.6,1.8-0.8,2.8c-0.2,1-0.3,2-0.3,3c0,4.3,1.6,8.1,4.7,11.2c3.1,3.1,6.9,4.7,11.2,4.7h7.9v-14.2h-7.9
		c-0.5,0-0.9-0.2-1.2-0.5c-0.3-0.3-0.5-0.7-0.5-1.1c0-0.5,0.1-0.8,0.3-1.1c0.2-0.2,0.4-0.4,0.6-0.5c0.1-0.1,0.3-0.1,0.5-0.1
		c0.2,0,0.3,0,0.3,0h7.9v-14.2h-9.6c-3.3,0-6.1-1.4-8.4-4.1c-2.3-2.7-3.4-5.8-3.4-9.3c0-3.7,1.3-6.9,4-9.5c2.7-2.6,5.8-3.9,9.5-3.9
		h7.9v-14.2h-7.9C68.7,155.6,62.2,158.3,56.8,163.7z"/>
	<path class="st1" d="M121.1,236.5l-8.4-8.4v-4.6h-4v4.6l-8.4,8.4H86.2l-8.4-8.4v-71.8l7.7-8.3l9.3-0.7l0.6,0
		c13.2,0,24.6,4.8,34,14.2c9.4,9.4,14.2,20.8,14.2,34v32.7l-8.4,8.4H121.1z M112.5,192.5c-0.5-3-1.7-5.6-3.7-8c0,0,0,0,0,0v8.1
		H112.5z"/>
	<path class="st1" d="M95.5,155.6l-9.3,0.7v6.5v65.3h14.2v-13h20.7v13h14.2v-32.7c0-10.9-3.9-20.3-11.7-28.1
		C115.8,159.5,106.4,155.6,95.5,155.6z M121.1,200.9h-20.7v-30.5c6,1.1,11,4.1,14.9,8.8c3.9,4.7,5.9,10.1,5.9,16.3V200.9z"/>
	<path class="st1" d="M194.7,236.5l-5.3-5.3l-5.3,5.3H170l-8.4-8.4v-41.3c-1.3,2.4-2,4.9-2,7.8v33.5l-8.4,8.4H137l-8.4-8.4v-33.5
		c0-13,4.7-24.3,13.9-33.5c9.2-9.2,20.5-13.9,33.5-13.9h8.2l2.2,2.2c0.5-0.1,0.9-0.3,1.4-0.4c2.2-0.6,4.5-1,6.8-1.3
		c2.2-0.3,4.4-0.5,6.6-0.5c2,0,4-0.1,6.1-0.1h1.7l8.4,8.4v72.5l-8.4,8.4H194.7z"/>
	<path class="st1" d="M207.4,155.6c-2.1,0-4.1,0-6,0c-1.9,0-3.8,0.2-5.8,0.5c-1.9,0.2-3.7,0.6-5.6,1.1c-1.9,0.5-3.8,1.2-5.8,2.2
		v-3.7H176c-10.7,0-19.9,3.8-27.6,11.5c-7.6,7.6-11.5,16.8-11.5,27.6v33.5h14.3v-33.5c0-5.7,1.8-10.7,5.3-15.2
		c3.5-4.5,8-7.4,13.5-8.8v57.5h14.2v-51.8c1.5-1.3,3.2-2.5,5-3.5c1.8-1,3.6-1.7,5.6-2.2v57.5h14.3v-72.5c-0.3,0-0.5,0-0.9,0
		C207.9,155.6,207.6,155.6,207.4,155.6z"/>
	<path class="st2" d="M39.6,70.9c-8.4,0-15.7-3-21.7-9c-6-6-9-13.3-9-21.7c0-8.4,3-15.7,9-21.7c6-6,13.3-9,21.7-9
		c3,0,5.9,0.4,8.8,1.3c2.8,0.9,5.5,2.1,8,3.8l2.4,11.6l-4.6,7l-11.8,2.3c-0.4-0.3-0.8-0.4-1.2-0.6c-0.6-0.2-1.1-0.2-1.7-0.2
		c-1.6,0-2.8,0.5-4,1.6s-1.6,2.3-1.6,4c0,1.6,0.5,2.8,1.7,4c1.2,1.2,2.3,1.7,3.9,1.7c0.6,0,1.1-0.1,1.6-0.2c0.5-0.2,1-0.4,1.5-0.8
		l11.6,2l4.8,6.8l-2,11.7c-2.6,1.8-5.4,3.2-8.4,4.2C45.8,70.5,42.8,70.9,39.6,70.9z"/>
	<path class="st2" d="M39.6,62.5c2.3,0,4.5-0.3,6.7-1c2.2-0.7,4.2-1.7,6.1-3l-4.8-6.8c-1.2,0.8-2.4,1.4-3.8,1.9
		c-1.3,0.4-2.7,0.6-4.2,0.6c-3.9,0-7.2-1.4-9.9-4.1c-2.7-2.7-4.1-6.1-4.1-9.9c0-3.9,1.4-7.2,4.1-9.9c2.7-2.7,6-4.1,9.9-4.1
		c1.4,0,2.7,0.2,4,0.6c1.3,0.4,2.5,0.9,3.7,1.7l4.6-7c-1.8-1.2-3.8-2.1-5.8-2.7c-2.1-0.6-4.2-0.9-6.4-0.9c-6.2,0-11.4,2.2-15.8,6.6
		c-4.4,4.4-6.6,9.6-6.6,15.8c0,6.2,2.2,11.4,6.6,15.8C28.2,60.4,33.5,62.5,39.6,62.5z"/>
	<path class="st2" d="M72.6,69.9L66,66.8l-0.4-0.6l-3.7,3.7h-8.4l-8.4-8.4V19.1l8.4-8.4h4.2c7.2,0,13.4,2.6,17.9,7.6l7.6-7.6h8.4
		l8.4,8.4v42.4l-8.4,8.4h-8.3l0,0.1H72.6z"/>
	<path class="st2" d="M61.9,48.1l10.7,13.5h10.7l0-0.1h8.4V19.1h-8.4v42.4L70.4,45.3c1.2-1.5,2.2-3.1,2.7-4.8
		c0.6-1.7,0.8-3.5,0.8-5.2c0-4.1-1.5-7.9-4.4-11.2c-2.9-3.4-6.9-5-11.8-5h-4.2v42.5h8.4V48.1z M61.9,28.6c1.2,0.7,2.1,1.6,2.7,2.7
		c0.6,1.1,0.9,2.2,1,3.3c0,0.1,0,0.1,0,0.2c0,0.1,0,0.1,0,0.2c0,1.3-0.3,2.5-0.9,3.7c-0.6,1.2-1.6,2.2-2.8,3.1V28.6z"/>
	<polygon class="st2" points="98.5,69.9 90.2,61.5 90.2,32.9 84.6,27.4 84.6,19 93,10.6 112.5,10.6 120.9,19 120.9,27.4 115.3,33 
		115.3,61.5 106.9,69.9 	"/>
	<polygon class="st2" points="98.5,61.5 106.9,61.5 106.9,27.4 112.5,27.4 112.5,19 93,19 93,27.4 98.5,27.4 	"/>
	<polygon class="st2" points="114.3,69.9 106,61.5 106,19.1 114.3,10.7 122.7,10.7 131.1,19.1 131.1,61.5 122.7,69.9 	"/>
	<rect x="114.3" y="19.1" class="st2" width="8.4" height="42.4"/>
	<path class="st2" d="M147,70.9c-8.4,0-15.7-3-21.7-9c-6-6-9-13.3-9-21.7c0-8.4,3-15.7,9-21.7c6-6,13.3-9,21.7-9l8.4,8.4V21h1.2
		l8.4,8.4v31.3l-6.5,8.2c0,0-0.1,0-0.1,0.1c-0.7,0.3-1.5,0.5-2.4,0.7l-0.4,0.1l-0.8,0.2l-0.5,0.1c-1.1,0.3-2.3,0.5-3.4,0.6
		C149.6,70.8,148.3,70.9,147,70.9z"/>
	<path class="st2" d="M147,62.5c0.9,0,1.9-0.1,2.7-0.2c0.9-0.1,1.8-0.3,2.6-0.5c0.3-0.1,0.5-0.2,0.8-0.2c0.3-0.1,0.5-0.1,0.8-0.2
		c0.5-0.1,1-0.3,1.4-0.4c0.4-0.2,0.8-0.3,1.2-0.4V29.4h-15v8.4h6.7v16.4c-0.2,0-0.4,0.1-0.6,0.1c-0.2,0-0.4,0-0.6,0
		c-3.9,0-7.2-1.4-9.9-4.1c-2.7-2.7-4.1-6-4.1-9.9c0-3.9,1.4-7.2,4.1-9.9c2.7-2.7,6-4.1,9.9-4.1v-8.3c-6.1,0-11.4,2.2-15.8,6.6
		c-4.4,4.4-6.6,9.6-6.6,15.8c0,6.1,2.2,11.4,6.6,15.7C135.6,60.4,140.9,62.5,147,62.5z"/>
	<path class="st2" d="M174.1,69.9c-4.7,0-9-1.8-12.4-5.1c-3.4-3.4-5.2-7.7-5.2-12.4c-1.4-1.5-2.7-3.1-3.7-4.9
		c-2.1-3.7-3.2-7.8-3.2-12.1c0-6.6,2.5-12.6,7.2-17.3c4.7-4.7,10.7-7.2,17.4-7.2h4.6l8.4,8.4v8.3l-7.8,7.8l7.8,7.8v8.3l-0.9,0.9
		l0.9,0.9v8.3l-8.4,8.4H174.1z"/>
	<path class="st2" d="M165.4,48.9c-0.2,0.5-0.4,1-0.5,1.6c-0.1,0.6-0.2,1.1-0.2,1.7c0,2.5,0.9,4.7,2.7,6.5c1.8,1.8,4,2.7,6.6,2.7
		h4.6v-8.3h-4.6c-0.3,0-0.5-0.1-0.7-0.3c-0.2-0.2-0.3-0.4-0.3-0.6c0-0.3,0.1-0.5,0.2-0.6c0.1-0.1,0.2-0.2,0.4-0.3
		c0.1,0,0.2-0.1,0.3-0.1c0.1,0,0.2,0,0.2,0h4.6V43h-5.6c-2,0-3.6-0.8-4.9-2.4c-1.3-1.6-2-3.4-2-5.4c0-2.2,0.8-4,2.3-5.6
		c1.6-1.5,3.4-2.3,5.6-2.3h4.6v-8.3h-4.6c-4.5,0-8.3,1.6-11.5,4.7c-3.2,3.2-4.7,7-4.7,11.4c0,2.9,0.7,5.5,2.1,7.9
		C161.4,45.5,163.2,47.5,165.4,48.9z"/>
	<path class="st2" d="M199.4,69.9l-5.5-5.5l-5.5,5.5h-8.3l-8.4-8.4V19.1l8.4-8.4c2.9,0,5.7,0.1,8.3,0.3c2.9,0.2,5.7,0.9,8.5,2.1
		l2.4-2.4h8.4l8.4,8.4v42.4l-8.4,8.4H199.4z"/>
	<path class="st2" d="M188.4,27.9c3.2,0.8,5.9,2.5,7.9,5.1c2,2.6,3,5.6,3,8.9v19.6h8.4V19.1h-8.4v5.2c-0.7-0.6-1.5-1.2-2.3-1.6
		c-0.8-0.5-1.5-0.9-2.3-1.3c-2.3-1.1-4.7-1.8-7.1-2c-2.4-0.2-4.9-0.3-7.6-0.3v42.4h8.3V27.9z"/>
	<path class="st2" d="M60.6,158.6c-13.5,0-25.2-4.9-34.8-14.4c-9.6-9.6-14.5-21.3-14.5-34.8c0-13.5,4.9-25.3,14.5-34.9
		c9.6-9.6,21.3-14.4,34.8-14.4c13.5,0,25.3,4.9,34.9,14.5c9.6,9.6,14.5,21.3,14.5,34.9c0,13.5-4.9,25.2-14.5,34.7
		C85.8,153.8,74.1,158.6,60.6,158.6z M60.6,92.1c-4.9,0-8.7,1.6-12.2,5.1c-3.5,3.5-5.1,7.4-5.1,12.3c0,4.9,1.6,8.7,5,12.2
		c3.4,3.4,7.3,5.1,12.2,5.1c4.9,0,8.8-1.6,12.3-5.1c3.5-3.4,5.1-7.3,5.1-12.2c0-4.9-1.6-8.8-5.1-12.2C69.3,93.7,65.4,92.1,60.6,92.1
		z"/>
	<path class="st2" d="M60.6,68.5c-11.2,0-20.8,4-28.9,12c-8,8-12.1,17.6-12.1,28.9c0,11.2,4,20.8,12.1,28.8c8,8,17.7,12,28.9,12
		c11.3,0,20.9-4,28.9-12c8-8,12-17.6,12-28.8c0-11.3-4-20.9-12-28.9C81.5,72.5,71.8,68.5,60.6,68.5z M78.7,127.6
		c-5,5-11.1,7.5-18.2,7.5c-7.1,0-13.1-2.5-18.1-7.5c-5-5-7.5-11-7.5-18.1c0-7.1,2.5-13.1,7.5-18.2c5-5,11-7.6,18.1-7.6
		c7.1,0,13.1,2.5,18.2,7.6c5,5,7.6,11.1,7.6,18.2C86.3,116.5,83.8,122.6,78.7,127.6z"/>
	<path class="st2" d="M102,159.9l-6.5-13.6l3.9-11.1c1.8-0.9,3.1-2,4.1-3.7c1-1.7,1.5-3.4,1.5-5.2c0-0.3,0-0.6-0.1-0.9
		c0-0.3-0.1-0.7-0.2-1c-0.1-0.3-0.2-0.6-0.3-0.9c-0.1-0.4-0.3-0.8-0.5-1.2l-5.4-11.2c-0.9-1.9-1.6-3.8-2.2-5.7
		c-0.6-2-1.1-4.1-1.4-6.1l0-0.4l-0.2-2.4c-0.1-1-0.1-2.1-0.1-3.1c0-7.8,2.1-15.1,6.3-21.9c4.2-6.8,10.1-12.1,17.4-15.6l11.2,4
		l6.5,13.8l-4,11.2c-1.1,0.5-2.1,1.2-2.9,2.1c-0.8,0.9-1.5,2-1.9,3.2l-0.1,0.2c-0.1,0.4-0.2,0.7-0.3,1c-0.1,0.6-0.1,1.1-0.1,1.7
		c0,1.5,0.3,2.9,0.9,4.3c1,2.3,2,4.6,3.2,6.8c0.2,0.4,0.4,0.8,0.5,1.1l0.2,0.4c0.3,0.5,0.5,1,0.8,1.6c0.2,0.4,0.4,0.8,0.5,1.1
		l0.1,0.3c1,2.1,1.8,4.2,2.4,6.4c0.6,2.2,1.1,4.4,1.3,6.6c0.1,0.7,0.2,1.5,0.2,2.3c0,0.8,0.1,1.6,0.1,2.3l0,0.1
		c-0.1,7.7-2.2,15-6.3,21.8c-4.2,6.9-10.1,12.1-17.5,15.7L102,159.9z"/>
	<path class="st2" d="M103,142.7l6.5,13.6c6-2.9,10.7-7,14-12.5c3.3-5.5,5-11.3,5.1-17.5c0-0.6,0-1.2-0.1-1.8c0-0.6-0.1-1.2-0.2-1.8
		c-0.2-1.8-0.6-3.6-1.1-5.3c-0.5-1.8-1.1-3.5-1.9-5.2c-0.2-0.4-0.4-0.9-0.6-1.3c-0.2-0.5-0.4-0.9-0.6-1.3c-0.1-0.2-0.3-0.4-0.4-0.7
		c-0.1-0.2-0.2-0.5-0.4-0.8c-1.2-2.4-2.3-4.9-3.4-7.3c-1-2.4-1.6-5-1.6-7.6c0-1,0.1-2,0.2-2.9c0.1-1,0.4-1.9,0.8-2.8
		c0.8-2.2,2-4.2,3.5-5.9c1.6-1.8,3.4-3.1,5.6-4.1L122,63.5c-5.9,2.9-10.6,7-13.9,12.5c-3.4,5.5-5,11.3-5,17.5c0,0.8,0,1.6,0.1,2.4
		c0.1,0.8,0.1,1.6,0.2,2.4c0.2,1.6,0.6,3.1,1.1,4.7c0.5,1.6,1.1,3.1,1.8,4.7l5.4,11.1c0.3,0.6,0.5,1.3,0.8,1.9
		c0.2,0.6,0.4,1.2,0.5,1.9c0.1,0.6,0.2,1.3,0.3,1.9c0.1,0.6,0.1,1.2,0.1,1.9c0,3.4-0.9,6.5-2.7,9.5
		C108.7,138.8,106.2,141.1,103,142.7z"/>
	<path class="st2" d="M194,156.9l-8.4-8.4v-35.9c0-3.9-1.1-7.3-3.3-10.5v46.4l-8.4,8.4h-15.2l-5.6-5.6l-5.6,5.6h-15.3l-8.4-8.4V70.9
		l8.4-8.4h1.8c2.3,0,4.4,0,6.5,0.1c2.3,0,4.7,0.2,7,0.5c2.4,0.3,4.8,0.7,7.1,1.3c0.5,0.1,1.1,0.3,1.6,0.5l2.4-2.4h8.8
		c13.7,0,25.7,5,35.4,14.7c9.8,9.8,14.7,21.7,14.7,35.4v35.9l-8.4,8.4H194z"/>
	<path class="st2" d="M197,83.1c-8.2-8.2-18-12.3-29.5-12.3h-8.8v4c-2.1-1-4.2-1.8-6.2-2.3c-2-0.5-4-0.9-6-1.1
		c-2.1-0.3-4.1-0.4-6.2-0.5c-2,0-4.2-0.1-6.4-0.1c-0.3,0-0.6,0-0.9,0c-0.3,0-0.6,0-0.9,0v77.7h15.3V86.9c2.1,0.5,4.1,1.3,6,2.4
		c1.9,1.1,3.7,2.3,5.3,3.8v55.5h15.2V86.9c5.9,1.5,10.8,4.6,14.5,9.4c3.7,4.8,5.6,10.2,5.6,16.3v35.9h15.3v-35.9
		C209.3,101.2,205.2,91.3,197,83.1z"/>
	<polygon class="st2" points="26.8,236.6 18.4,228.2 18.4,178.1 17.3,178.1 8.9,169.8 8.9,155.5 17.3,147.1 50.7,147.1 59,155.5 
		59,169.8 50.7,178.1 49.4,178.1 49.4,228.2 41.1,236.6 	"/>
	<polygon class="st2" points="50.7,155.5 17.3,155.5 17.3,169.8 26.8,169.8 26.8,228.2 41.1,228.2 41.1,169.8 50.7,169.8 	"/>
	<path class="st2" d="M76.4,236.5c-6.5,0-12.4-2.4-17.1-7.1c-4.7-4.7-7.2-10.6-7.2-17.1c0-0.8,0-1.6,0.1-2.3c-2.8-2.6-5.3-5.6-7.3-9
		c-3.1-5.4-4.7-11.3-4.7-17.7c0-9.9,3.6-18.4,10.6-25.4c7-7,15.6-10.6,25.5-10.6h7.9l8.4,8.4v14.2l-8.4,8.4h-7.9
		c-1.5,0-2.5,0.4-3.7,1.5c-1,1-1.5,2-1.5,3.5c0,1.5,0.4,2.7,1.4,3.9c0.8,1,1.4,1.1,2,1.1h9.6l8.4,8.4v14.2l-1.6,1.6l1.6,1.6v14.2
		l-8.4,8.4H76.4z"/>
	<path class="st2" d="M56.8,163.7c-5.4,5.4-8.1,11.9-8.1,19.5c0,4.9,1.2,9.5,3.6,13.6c2.4,4.1,5.5,7.4,9.4,9.9
		c-0.3,0.9-0.6,1.8-0.8,2.8c-0.2,1-0.3,2-0.3,3c0,4.3,1.6,8.1,4.7,11.2c3.1,3.1,6.9,4.7,11.2,4.7h7.9v-14.2h-7.9
		c-0.5,0-0.9-0.2-1.2-0.5c-0.3-0.3-0.5-0.7-0.5-1.1c0-0.5,0.1-0.8,0.3-1.1c0.2-0.2,0.4-0.4,0.6-0.5c0.1-0.1,0.3-0.1,0.5-0.1
		c0.2,0,0.3,0,0.3,0h7.9v-14.2h-9.6c-3.3,0-6.1-1.4-8.4-4.1c-2.3-2.7-3.4-5.8-3.4-9.3c0-3.7,1.3-6.9,4-9.5c2.7-2.6,5.8-3.9,9.5-3.9
		h7.9v-14.2h-7.9C68.7,155.6,62.2,158.3,56.8,163.7z"/>
	<path class="st2" d="M121.1,236.5l-8.4-8.4v-4.6h-4v4.6l-8.4,8.4H86.2l-8.4-8.4v-71.8l7.7-8.3l9.3-0.7l0.6,0
		c13.2,0,24.6,4.8,34,14.2c9.4,9.4,14.2,20.8,14.2,34v32.7l-8.4,8.4H121.1z M112.5,192.5c-0.5-3-1.7-5.6-3.7-8c0,0,0,0,0,0v8.1
		H112.5z"/>
	<path class="st2" d="M95.5,155.6l-9.3,0.7v6.5v65.3h14.2v-13h20.7v13h14.2v-32.7c0-10.9-3.9-20.3-11.7-28.1
		C115.8,159.5,106.4,155.6,95.5,155.6z M121.1,200.9h-20.7v-30.5c6,1.1,11,4.1,14.9,8.8c3.9,4.7,5.9,10.1,5.9,16.3V200.9z"/>
	<path class="st2" d="M194.7,236.5l-5.3-5.3l-5.3,5.3H170l-8.4-8.4v-41.3c-1.3,2.4-2,4.9-2,7.8v33.5l-8.4,8.4H137l-8.4-8.4v-33.5
		c0-13,4.7-24.3,13.9-33.5c9.2-9.2,20.5-13.9,33.5-13.9h8.2l2.2,2.2c0.5-0.1,0.9-0.3,1.4-0.4c2.2-0.6,4.5-1,6.8-1.3
		c2.2-0.3,4.4-0.5,6.6-0.5c2,0,4-0.1,6.1-0.1h1.7l8.4,8.4v72.5l-8.4,8.4H194.7z"/>
	<path class="st2" d="M207.4,155.6c-2.1,0-4.1,0-6,0c-1.9,0-3.8,0.2-5.8,0.5c-1.9,0.2-3.7,0.6-5.6,1.1c-1.9,0.5-3.8,1.2-5.8,2.2
		v-3.7H176c-10.7,0-19.9,3.8-27.6,11.5c-7.6,7.6-11.5,16.8-11.5,27.6v33.5h14.3v-33.5c0-5.7,1.8-10.7,5.3-15.2
		c3.5-4.5,8-7.4,13.5-8.8v57.5h14.2v-51.8c1.5-1.3,3.2-2.5,5-3.5c1.8-1,3.6-1.7,5.6-2.2v57.5h14.3v-72.5c-0.3,0-0.5,0-0.9,0
		C207.9,155.6,207.6,155.6,207.4,155.6z"/>
	<path class="st3" d="M46.3,61.5c-2.2,0.7-4.4,1-6.7,1c-6.2,0-11.4-2.2-15.8-6.5c-4.4-4.3-6.6-9.6-6.6-15.8c0-6.2,2.2-11.4,6.6-15.8
		c4.4-4.4,9.6-6.6,15.8-6.6c2.2,0,4.3,0.3,6.4,0.9c2.1,0.6,4,1.5,5.8,2.7l-4.6,7c-1.1-0.8-2.3-1.4-3.7-1.7c-1.3-0.4-2.6-0.6-4-0.6
		c-3.9,0-7.2,1.4-9.9,4.1c-2.7,2.7-4.1,6-4.1,9.9c0,3.9,1.4,7.2,4.1,9.9c2.7,2.7,6,4.1,9.9,4.1c1.4,0,2.8-0.2,4.2-0.6
		c1.3-0.4,2.6-1.1,3.8-1.9l4.8,6.8C50.5,59.9,48.5,60.9,46.3,61.5z"/>
	<path class="st3" d="M72.6,61.5L61.9,48.1v13.5h-8.4V19.1h4.2c5,0,8.9,1.7,11.8,5c2.9,3.4,4.4,7.1,4.4,11.2c0,1.8-0.3,3.5-0.8,5.2
		c-0.6,1.7-1.5,3.3-2.7,4.8l12.9,16.2H72.6z M64.6,38.7c0.6-1.2,0.9-2.5,0.9-3.7c0-0.1,0-0.1,0-0.2c0-0.1,0-0.1,0-0.2
		c-0.1-1.1-0.4-2.2-1-3.3c-0.6-1.1-1.5-2-2.7-2.7v13.2C63.1,41,64,39.9,64.6,38.7z"/>
	<path class="st3" d="M83.2,61.5V19.1h8.4v42.4H83.2z"/>
	<path class="st3" d="M106.9,27.4v34.2h-8.4V27.4H93V19h19.5v8.4H106.9z"/>
	<path class="st3" d="M114.3,61.5V19.1h8.4v42.4H114.3z"/>
	<path class="st3" d="M155.4,61.1c-0.4,0.2-0.9,0.3-1.4,0.4c-0.2,0-0.5,0.1-0.8,0.2c-0.3,0.1-0.5,0.2-0.8,0.2
		c-0.9,0.2-1.7,0.4-2.6,0.5c-0.9,0.1-1.8,0.2-2.7,0.2c-6.1,0-11.4-2.2-15.8-6.6c-4.4-4.4-6.6-9.6-6.6-15.7c0-6.2,2.2-11.4,6.6-15.8
		c4.4-4.4,9.6-6.6,15.8-6.6v8.3c-3.9,0-7.2,1.4-9.9,4.1c-2.7,2.7-4.1,6.1-4.1,9.9c0,3.9,1.4,7.2,4.1,9.9c2.7,2.7,6,4.1,9.9,4.1
		c0.2,0,0.4,0,0.6,0c0.2,0,0.4,0,0.6-0.1V37.7h-6.7v-8.4h15v31.3C156.2,60.8,155.8,60.9,155.4,61.1z"/>
	<path class="st3" d="M174.1,61.5c-2.5,0-4.7-0.9-6.6-2.7c-1.8-1.8-2.7-4-2.7-6.5c0-0.6,0.1-1.2,0.2-1.7c0.1-0.6,0.3-1.1,0.5-1.6
		c-2.3-1.4-4.1-3.4-5.5-5.8c-1.4-2.4-2.1-5-2.1-7.9c0-4.4,1.6-8.2,4.7-11.4c3.2-3.2,7-4.7,11.5-4.7h4.6v8.3h-4.6
		c-2.1,0-4,0.8-5.6,2.3c-1.6,1.5-2.3,3.4-2.3,5.6c0,2,0.7,3.8,2,5.4c1.3,1.6,3,2.4,4.9,2.4h5.6v8.3h-4.6c0,0-0.1,0-0.2,0
		c-0.1,0-0.2,0-0.3,0.1c-0.1,0-0.2,0.1-0.4,0.3c-0.1,0.1-0.2,0.3-0.2,0.6c0,0.2,0.1,0.4,0.3,0.6c0.2,0.2,0.4,0.3,0.7,0.3h4.6v8.3
		H174.1z"/>
	<path class="st3" d="M199.4,61.5V41.9c0-3.3-1-6.3-3-8.9c-2-2.6-4.7-4.3-7.9-5.1v33.6h-8.3V19.1c2.7,0,5.2,0.1,7.6,0.3
		c2.4,0.2,4.8,0.9,7.1,2c0.7,0.4,1.5,0.8,2.3,1.3c0.8,0.5,1.5,1,2.3,1.6v-5.2h8.4v42.4H199.4z"/>
	<path class="st4" d="M89.5,138.3c-8,8-17.6,12-28.9,12c-11.2,0-20.8-4-28.9-12c-8-8-12.1-17.6-12.1-28.8c0-11.3,4-20.9,12.1-28.9
		c8-8,17.7-12,28.9-12c11.3,0,20.9,4,28.9,12c8,8,12,17.6,12,28.9C101.5,120.7,97.5,130.3,89.5,138.3z M78.7,91.3
		c-5-5-11.1-7.6-18.2-7.6c-7.1,0-13.1,2.5-18.1,7.6c-5,5-7.5,11.1-7.5,18.2c0,7.1,2.5,13.1,7.5,18.1c5,5,11,7.5,18.1,7.5
		c7.1,0,13.1-2.5,18.2-7.5c5-5,7.6-11,7.6-18.1C86.3,102.4,83.8,96.3,78.7,91.3z"/>
	<path class="st4" d="M118.6,90.2c-0.1,1-0.2,1.9-0.2,2.9c0,2.6,0.5,5.2,1.6,7.6c1,2.4,2.2,4.9,3.4,7.3c0.1,0.3,0.3,0.6,0.4,0.8
		c0.1,0.3,0.2,0.5,0.4,0.7c0.2,0.4,0.4,0.9,0.6,1.3c0.2,0.5,0.4,0.9,0.6,1.3c0.8,1.7,1.4,3.4,1.9,5.2c0.5,1.8,0.9,3.5,1.1,5.3
		c0.1,0.6,0.1,1.2,0.2,1.8c0,0.6,0.1,1.2,0.1,1.8c-0.1,6.2-1.8,12.1-5.1,17.5c-3.3,5.5-8,9.6-14,12.5l-6.5-13.6
		c3.2-1.6,5.7-3.9,7.6-6.9c1.8-3,2.7-6.2,2.7-9.5c0-0.6,0-1.3-0.1-1.9c-0.1-0.6-0.2-1.2-0.3-1.9c-0.1-0.6-0.3-1.3-0.5-1.9
		c-0.2-0.6-0.5-1.2-0.8-1.9l-5.4-11.1c-0.7-1.6-1.3-3.1-1.8-4.7c-0.5-1.6-0.9-3.1-1.1-4.7c-0.1-0.8-0.1-1.6-0.2-2.4
		c-0.1-0.8-0.1-1.6-0.1-2.4c0-6.2,1.7-12.1,5-17.5c3.4-5.5,8-9.6,13.9-12.5l6.5,13.8c-2.1,1-4,2.4-5.6,4.1c-1.6,1.8-2.8,3.7-3.5,5.9
		C119,88.3,118.8,89.2,118.6,90.2z"/>
	<path class="st4" d="M194,148.6v-35.9c0-6.1-1.9-11.5-5.6-16.3c-3.7-4.8-8.5-7.9-14.5-9.4v61.6h-15.2V93c-1.6-1.4-3.3-2.7-5.3-3.8
		c-1.9-1.1-3.9-1.9-6-2.4v61.6h-15.3V70.9c0.3,0,0.6,0,0.9,0c0.3,0,0.6,0,0.9,0c2.2,0,4.3,0,6.4,0.1c2,0,4.1,0.2,6.2,0.5
		c2,0.2,4,0.6,6,1.1c2,0.5,4.1,1.3,6.2,2.3v-4h8.8c11.5,0,21.3,4.1,29.5,12.3c8.2,8.2,12.3,18,12.3,29.5v35.9H194z"/>
	<path class="st3" d="M50.7,155.5v14.3h-9.6v58.4H26.8v-58.4h-9.5v-14.3H50.7z"/>
	<path class="st3" d="M76.4,228.1c-4.3,0-8.1-1.6-11.2-4.7c-3.1-3.1-4.7-6.8-4.7-11.2c0-1,0.1-2,0.3-3c0.2-1,0.5-1.9,0.8-2.8
		c-3.9-2.5-7-5.8-9.4-9.9c-2.4-4.1-3.6-8.6-3.6-13.6c0-7.6,2.7-14.1,8.1-19.5c5.4-5.4,11.9-8.1,19.6-8.1h7.9v14.2h-7.9
		c-3.7,0-6.8,1.3-9.5,3.9c-2.7,2.6-4,5.8-4,9.5c0,3.5,1.1,6.6,3.4,9.3c2.3,2.7,5.1,4.1,8.4,4.1h9.6v14.2h-7.9c-0.1,0-0.2,0-0.3,0
		c-0.2,0-0.3,0-0.5,0.1c-0.2,0.1-0.4,0.2-0.6,0.5c-0.2,0.2-0.3,0.6-0.3,1.1c0,0.4,0.2,0.8,0.5,1.1c0.3,0.3,0.7,0.5,1.2,0.5h7.9v14.2
		H76.4z"/>
	<path class="st3" d="M121.1,228.1v-13h-20.7v13H86.2v-65.3v-6.5l9.3-0.7c10.9,0,20.3,3.9,28.1,11.7c7.8,7.8,11.7,17.2,11.7,28.1
		v32.7H121.1z M121.1,195.4c0-6.1-2-11.6-5.9-16.3c-3.9-4.7-8.9-7.6-14.9-8.8v30.5h20.7V195.4z"/>
	<path class="st3" d="M194.7,228.1v-57.5c-1.9,0.5-3.8,1.2-5.6,2.2c-1.8,1-3.4,2.2-5,3.5v51.8H170v-57.5c-5.5,1.4-10,4.3-13.5,8.8
		c-3.5,4.5-5.3,9.5-5.3,15.2v33.5H137v-33.5c0-10.7,3.8-19.9,11.5-27.6c7.6-7.6,16.8-11.5,27.6-11.5h8.2v3.7c2-0.9,3.9-1.7,5.8-2.2
		c1.9-0.5,3.7-0.9,5.6-1.1c1.9-0.3,3.9-0.4,5.8-0.5c1.9,0,3.9,0,6,0c0.3,0,0.5,0,0.9,0c0.3,0,0.6,0,0.9,0v72.5H194.7z"/>
</g>
</svg>
