<?xml version="1.0" encoding="UTF-8"?>
<svg width="887px" height="835px" viewBox="0 0 887 835" version="1.1" xmlns="http://www.w3.org/2000/svg" xmlns:xlink="http://www.w3.org/1999/xlink">
    <title>Combined Shape</title>
    <g id="OSM-Quality-Site" stroke="none" stroke-width="1" fill="none" fill-rule="evenodd" opacity="0.0544149709">
        <g id="About-Desktop" transform="translate(0.000000, -1081.000000)" fill="#74B943">
            <g id="Background" transform="translate(0.000000, 1081.000000)">
                <g id="Group-118" transform="translate(99.750000, 438.250000) rotate(90.000000) translate(-99.750000, -438.250000) translate(-557.500000, -349.000000)">
                    <path d="M249.107811,1278.5 C271.798817,1304.67303 294.313326,1330.64182 316.804576,1356.5838 L336.080668,1378.81735 C361.784061,1408.46436 387.514258,1438.14255 413.5,1468.11678 C396.881348,1477.66034 380.337371,1487.16117 363.806495,1496.65457 L349.638945,1504.79077 C309.498504,1527.84287 269.331571,1550.91068 228.256181,1574.5 C225.42647,1567.75765 221.865124,1562.33683 220.9183,1556.53735 C210.618908,1493.40884 200.698782,1430.22189 190.837833,1367.02985 C190.345592,1363.87851 190.173443,1359.75635 191.873421,1357.36997 C210.331095,1331.46288 229.194934,1305.81248 249.107811,1278.5 Z M589.638011,1257 C594.20981,1266.93506 598.756505,1276.81492 603.298728,1286.68483 L608.748569,1298.52683 C618.740851,1320.23901 628.751431,1341.99056 639,1364.26309 C565.760983,1396.46815 493.094693,1428.41956 419.003309,1461 C398.530372,1437.39091 376.250524,1411.69941 353,1384.88173 C364.567667,1376.56143 375.28316,1367.4609 385.939809,1358.42174 L387.937434,1356.72783 C409.907991,1338.10718 431.839147,1319.97139 460.691308,1309.70448 C504.065219,1294.27538 545.922616,1275.05177 589.638011,1257 Z M373.834918,1119.58935 C428.805114,1128.61841 483.714328,1137.98357 538.619793,1147.37634 L575.223508,1153.63889 L575.223508,1153.63889 C576.013898,1153.77397 576.702474,1154.45445 578.950396,1155.75425 C578.092488,1161.90304 576.735162,1168.12106 575.349413,1174.37046 L574.725497,1177.18467 C569.398338,1201.27781 564.697099,1225.75192 587.5,1248.4475 C560.514224,1259.79649 536.593551,1269.9298 512.605897,1279.92038 C505.56875,1282.8513 498.453569,1285.6492 491.323694,1288.42106 L487.433595,1289.93105 C467.331153,1297.72593 447.203472,1305.46843 428.468255,1315.55262 C415.508132,1322.52819 404.051966,1332.04573 392.721709,1341.75071 L390.723278,1343.46483 C390.390331,1343.75068 390.057422,1344.03657 389.724517,1344.32244 L386.727528,1346.89322 C382.729151,1350.31598 378.716166,1353.71033 374.627987,1356.97276 C365.799737,1364.01714 357.311756,1371.44382 347.717231,1379.5 C317.634199,1344.58648 288.70326,1311.248 260.278707,1277.51959 C258.151353,1274.99645 257.870028,1268.52806 259.772322,1265.84946 C293.467032,1218.47829 327.534163,1171.34415 361.949602,1124.44447 C364.101069,1121.51356 370.18305,1118.98788 373.834918,1119.58935 Z M683.717262,1217.5 C700.746873,1252.63303 717.369244,1286.91725 734.5,1322.25299 C705.293072,1335.09912 676.881994,1347.59306 647.533995,1360.5 C631.08996,1324.53083 615.071798,1289.48395 598.5,1253.22846 C627.198542,1241.1982 654.968148,1229.55307 683.717262,1217.5 Z M695.71435,1175.5 C730.507787,1181.06636 764.723582,1186.54396 800.067668,1192.20161 C799.22334,1197.9543 797.997862,1203.70062 796.690426,1209.43557 L796.226063,1211.45919 C789.924362,1238.77145 782.561117,1265.8122 806.5,1292.041 C783.990887,1301.8246 764.251212,1310.4011 743.321165,1319.5 C731.063834,1294.58707 719.054835,1270.18132 707.045835,1245.77557 C704.975505,1241.57101 703.488213,1236.99366 700.737669,1233.22781 C687.7097,1215.37905 690.959206,1196.53418 695.438687,1176.71466 L695.71435,1175.5 L695.71435,1175.5 Z M809.04492,1193.5 C839.423101,1198.34025 868.932328,1203.04126 899.5,1207.91188 C898.105885,1221.30103 897.264001,1233.86998 895.203959,1246.26171 C894.646313,1249.62356 891.110944,1253.80308 887.76236,1255.30933 C863.001247,1266.44291 837.942361,1276.99677 813.516918,1287.5 C792.150949,1262.51704 797.955666,1237.53732 804.45442,1212.39235 L804.942715,1210.50616 C805.105637,1209.87733 805.26858,1209.24839 805.431129,1208.61934 L805.917182,1206.73187 C807.04662,1202.327 808.136498,1197.91667 809.04492,1193.5 Z M121.5,1004.5 C203.644843,1017.82466 284.368514,1030.91787 366.5,1044.23999 C361.835776,1070.30179 357.625686,1094.47388 353.057631,1118.58493 C352.4539,1121.76158 350.35954,1124.84414 348.38005,1127.59351 C316.70019,1171.6038 284.934846,1215.55305 253.153473,1259.49213 C252.445558,1260.47132 251.339608,1261.18855 247.698521,1264.5 C245.572105,1260.08218 244.182989,1256.11963 241.923004,1252.67084 C226.864452,1229.65852 211.560133,1206.78863 196.445482,1183.80938 C192.928108,1178.46306 189.1369,1173.21023 185.320294,1167.96487 L183.888362,1165.99804 L183.888362,1165.99804 L182.45696,1164.0309 L182.45696,1164.0309 L181.028999,1162.06245 C172.477386,1150.24576 164.268838,1138.30359 159.2332,1125.25616 C144.252118,1086.43941 134.135613,1045.92115 121.5,1004.5 Z M589.117013,1157.5 C619.798787,1162.40833 648.890314,1167.15439 678.02234,1171.652 C684.61552,1172.67119 687.709616,1175.38902 686.065371,1181.80331 C685.962774,1182.2115 685.906076,1182.64249 685.924976,1183.05828 C686.932042,1202.48623 678.727016,1214.4021 657.724419,1220.68963 C636.14404,1227.15209 615.843419,1237.39213 596.142178,1245.5 C570.570361,1218.46202 580.025453,1190.00109 588.115499,1161.11315 L588.61902,1159.3071 C588.786049,1158.70491 588.952156,1158.10254 589.117013,1157.5 Z M883.913526,1141.62862 C898.430921,1142.23901 906.865758,1151.73892 905.318205,1164.9539 C904.023643,1176.02122 902.634883,1187.0785 901.248813,1198.5 C871.121316,1193.70985 842.237244,1189.11563 812.5,1184.38828 C814.959937,1170.91709 816.375612,1159.24692 819.586448,1148.02386 C820.51498,1144.776 826.524869,1140.68918 830.290134,1140.6088 C848.150243,1140.23704 866.050724,1140.87757 883.913526,1141.62862 Z M603.145391,1085.5 C696.734442,1100.39807 789.617221,1115.18783 882.5,1129.97506 C882.421825,1130.96256 882.338258,1131.95005 882.257388,1132.93755 C863.198842,1132.49922 844.110644,1132.50426 825.092534,1131.41852 C816.630755,1130.93736 812.77861,1133.05594 811.592506,1141.07934 C809.940046,1152.29194 807.786188,1163.50707 804.629532,1174.41233 C803.753432,1177.44536 798.143696,1181.88404 795.437221,1181.47343 C727.716035,1171.16771 660.091894,1160.30023 591.5,1149.37984 C594.512018,1132.86545 597.258288,1117.79883 599.999829,1102.75759 L600.783223,1098.45955 C601.56694,1094.15975 602.3523,1089.85095 603.145391,1085.5 Z M937.648277,863 C967.475635,900.163618 997.056928,937.020235 1026.63091,973.867319 L1041.41839,992.291443 C1083.32081,1044.49868 1125.28841,1096.78628 1168,1150 C1115.33849,1144.3219 1066.3839,1138.99502 1017.41854,1133.78012 C994.250924,1131.31138 971.067152,1128.94953 947.864535,1126.7633 C947.470816,1126.72616 947.079361,1126.68935 946.690925,1126.65142 L946.110629,1126.59352 C939.850658,1125.95335 934.487377,1124.83032 933.257574,1117.06904 C932.837617,1114.4145 930.576311,1110.57905 928.258472,1109.85879 C913.70904,1105.32987 914.230033,1096.05821 915.714979,1086.64152 L915.832393,1085.90754 L915.832393,1085.90754 L916.072994,1084.43975 C916.415095,1082.36192 916.750604,1080.29447 916.927713,1078.2869 C922.863642,1011.10662 929.041853,943.94415 935.203913,876.779136 C935.537724,873.139652 936.466475,869.548525 937.648277,863 Z M1101.75708,985.5 C1133.16035,990.581615 1162.28588,995.29628 1193.5,1000.34753 C1186.92791,1046.91465 1180.20663,1094.52948 1173.01382,1145.5 C1149.39015,1115.9147 1127.47902,1088.54579 1105.88554,1061.30686 L1102.07794,1056.50091 C1100.80965,1054.8991 1099.54218,1053.29731 1098.27523,1051.69512 C1096.84999,1049.89074 1096.34916,1046.90453 1096.5383,1044.55099 C1098.04613,1025.71005 1099.82568,1006.88682 1101.75708,985.5 Z M419.619284,1052.79902 C474.797677,1061.6932 529.930319,1070.85137 585.106021,1079.7684 C591.804505,1080.84972 595.747165,1082.46407 594.143189,1090.21856 C590.466961,1108.0044 587.546971,1125.92983 584.191001,1144.5 C512.041679,1132.90761 443.320991,1121.86602 371.5,1110.3244 C385.104193,1090.19572 397.23359,1071.88954 409.990044,1053.97933 C411.2011,1052.27867 416.467847,1052.29136 419.619284,1052.79902 Z M912.204083,1111.34986 C922.026076,1113.07305 925.571563,1119.95084 924.92644,1128.78443 C921.894363,1137.63802 915.701186,1142.46998 905.908761,1140.60172 C896.170096,1138.74346 891.560157,1131.86567 893.396069,1123.0521 C895.253485,1114.13598 902.605195,1109.66667 912.204083,1111.34986 Z M613.202047,982 C713.359685,992.521821 812.616479,1002.95164 913,1013.49646 C910.359319,1042.81802 908.205363,1070.73394 904.903167,1098.52719 C904.467535,1102.17928 896.967679,1104.6072 894.768008,1108.60943 C886.355745,1123.90157 874.316353,1121.78749 861.883545,1119.11901 L860.973172,1118.92301 C860.821342,1118.89026 860.669465,1118.85749 860.517547,1118.82473 L859.14934,1118.53094 C857.324013,1118.14176 855.495328,1117.76712 853.67342,1117.45982 C776.122915,1104.38485 698.524006,1091.56546 620.941232,1078.66172 C615.743232,1077.79534 610.537164,1076.97241 604,1075.91435 C607.081691,1044.46133 610.05044,1014.16094 613.202047,982 Z M376.40572,1046.5 C384.216604,1047.8067 391.565399,1049.03608 400.5,1050.52835 C391.409619,1064.75241 382.622933,1078.50024 373.878449,1092.18626 L369.844578,1098.5 L369.844578,1098.5 C369.062177,1098.26804 368.279776,1098.03608 367.5,1097.80412 C370.403811,1081.05412 373.312873,1064.3067 376.40572,1046.5 Z M506.361007,921.550814 C530.723307,924.694577 555.00218,928.42244 579.273849,932.18922 L591.409436,934.073329 C595.454667,934.700763 599.500051,935.326755 603.54594,935.948779 C605.212429,936.205206 606.765663,937.101429 609.5,938.119518 C604.953557,983.057622 600.420597,1027.88655 595.80674,1073.5 C535.489521,1063.82434 476.720142,1054.3975 416.5,1044.73707 C418.163793,1041.27405 419.191192,1038.25786 420.9224,1035.65552 C444.77909,999.849748 468.546792,963.985586 492.937406,928.502256 C495.45332,924.846275 502.200176,921.012572 506.361007,921.550814 Z M468.208454,907.536736 L470.004713,908.276917 C470.603557,908.524455 471.202517,908.77275 471.801675,909.021641 L473.599823,909.769936 C475.098906,910.394734 476.599726,911.022242 478.103537,911.649933 L479.909626,912.403088 C480.210907,912.528574 480.512327,912.654028 480.813898,912.779428 L482.625197,913.531027 C484.740663,914.406768 486.86445,915.277914 489,916.137532 C486.901226,919.798275 485.283253,923.068335 483.25741,926.094854 C461.499854,958.577286 439.688276,991.029275 417.871295,1023.47365 C404.028033,1044.06058 404.011827,1044.05296 378,1035.96787 C386.681413,988.10677 395.379033,940.156875 404.114469,892.001492 C427.540281,891.880167 447.85302,899.177417 468.208454,907.536736 Z M941.261868,804.5 C996.483168,811.584729 1050.56373,818.524143 1106.5,825.700649 C1105.57065,836.05151 1104.64315,846.382467 1103.71624,856.707523 L1101.49213,881.483497 C1096.85818,933.106377 1092.21346,984.861781 1087.39935,1038.5 C1064.82294,1010.22992 1044.64582,984.988501 1024.50084,959.726688 C998.914598,927.635084 973.580066,895.357376 947.640354,863.52581 C940.174687,854.365885 935.416261,845.652102 938.40467,833.494106 C940.595099,824.584021 940.313932,815.123269 941.261868,804.5 Z M236.779022,865.5 C288.211591,873.795145 340.131507,882.166744 393.5,890.770249 C393.219978,894.03479 393.206515,897.686693 392.563002,901.236659 C390.705835,911.48008 388.826959,921.720157 386.943076,931.959477 L383.173585,952.437875 C378.779604,976.329952 374.418989,1000.2273 370.303917,1024.16281 C368.666863,1033.67611 365.581232,1036.86675 354.722288,1034.98345 C307.62468,1026.81828 260.360136,1019.52212 210.5,1011.48182 C217.035588,975.180636 223.318448,940.270582 229.594978,905.403659 L231.388313,895.44169 C233.181901,885.478566 234.976889,875.508482 236.779022,865.5 Z M119.36744,661 C127.64853,676.278987 135.787948,691.145579 143.783022,706.083449 C169.634028,754.374416 195.629378,802.59665 220.996563,851.116726 C224.113332,857.076091 225.741215,864.987969 224.671998,871.489557 C217.224898,916.603554 208.882328,961.585177 200.579855,1008 C174.53639,1003.77422 148.669346,999.871742 122.989415,995.068102 C119.4904,994.41387 115.424701,989.727329 114.181736,986.109962 C108.520229,969.621791 102.684975,953.067434 98.8972716,936.133775 C86.5008442,880.720667 60.3872423,830.941072 31.7591772,782.076277 L29.9852604,779.054838 C29.6891058,778.551445 29.3927086,778.04814 29.0960809,777.544916 C19.3100678,760.939645 10.2297383,743.955073 0,725.659492 C5.65539679,722.596348 11.3029381,719.537361 16.9477518,716.479777 L33.879138,707.308478 C62.1015701,692.020815 90.3840092,676.699383 119.36744,661 Z M624.70555,880.5 C651.264578,883.590131 677.784976,886.675568 704.29775,889.760018 L744.065069,894.386415 C803.719097,901.326292 863.413013,908.270556 923.5,915.261436 C920.735377,945.528843 918.097152,974.417574 915.259917,1005.5 C884.005791,1002.23659 852.830717,998.981616 821.669119,995.728096 L784.277473,991.824124 C728.187116,985.967877 672.055437,980.107312 615.5,974.201759 C618.573895,942.883206 621.537528,912.730054 624.70555,880.5 Z M1119.73839,827.5 C1151.12956,832.576786 1183.3823,837.790713 1217.5,843.3094 C1210.65559,890.575061 1203.59713,939.323885 1196.32996,989.5 C1187.08546,988.413024 1178.85236,987.516523 1170.638,986.465103 C1151.67005,984.037186 1132.64056,981.906409 1113.80907,978.729291 C1110.15408,978.114692 1104.29165,973.076002 1104.5057,970.447451 C1108.26504,924.126544 1112.80836,877.86405 1117.23662,831.591397 C1117.30619,830.865053 1118.05538,830.199661 1119.73839,827.5 Z M538.771915,870.024014 C564.154232,872.43953 589.46087,875.526862 616,878.546257 C614.389111,894.966734 612.894443,910.187001 611.245714,927 C575.460188,921.323537 541.096352,915.873529 505,910.149259 C513.194994,897.943354 520.738604,886.119906 529.04982,874.784594 C530.922884,872.233205 535.663655,869.727107 538.771915,870.024014 Z M424.808381,792.5 C467.213318,805.388095 506.436871,817.310344 547.5,829.792835 C541.97045,838.247162 537.192963,845.674801 532.282917,853.028925 C521.307681,869.473669 510.605675,886.100934 498.929777,902.104582 C496.846727,904.959027 489.859043,907.301395 486.415248,906.239217 C460.098487,898.116979 434.095535,889.094805 404.5,879.180301 C410.81137,852.240531 417.598865,823.272736 424.808381,792.5 Z M633.198435,780 C652.814602,782.03234 670.921419,783.814739 689.004065,785.801635 C753.774477,792.91861 818.544889,800.030536 883.275016,807.442895 C887.206843,807.892282 891.227298,810.462371 894.428622,812.939048 C897.455377,815.276869 899.007697,819.263284 901.964624,821.714715 C929.91981,844.855614 929.710328,873.712311 920.275553,906 C822.543858,894.583554 724.022575,883.07622 624,871.389637 C627.10464,840.538471 630.107224,810.729983 633.198435,780 Z M196.705051,393.5 C200.353437,396.641001 203.666739,399.205136 206.626194,402.086928 C288.826128,482.093512 370.886668,562.232242 453.338584,642.005031 C461.128599,649.542417 463.442014,655.918446 459.847241,666.246139 C444.200195,711.221412 428.730073,756.278006 414.694107,801.723413 C406.703043,827.583306 401.599055,854.243696 394.717786,882.5 C372.245765,878.871076 349.100897,875.132878 325.95871,871.39468 C298.680256,866.98813 271.353549,862.817918 244.166237,857.943775 C239.568896,857.120406 233.54544,854.253861 231.593915,850.663057 C197.048176,787.172141 163.035889,723.424557 128.152386,658.325022 C148.892697,647.077392 168.686732,636.505737 188.242189,625.54527 C190.877283,624.068796 192.292675,620.633008 194.273687,618.104452 C193.059345,617.067616 191.842323,616.02824 190.625301,614.988863 C168.59559,626.640554 146.565879,638.289704 123.782901,650.337832 C103.581404,612.775423 83.6560152,575.922026 64.1032394,538.893283 C62.9264271,536.664595 63.5483416,532.021707 65.301497,530.191998 C108.685391,484.754215 152.334671,439.545145 196.705051,393.5 Z M626.5,779.977397 C623.546635,809.012662 620.57432,838.253544 617.293405,870.5 C614.720918,870.205281 612.153358,869.911121 609.587628,869.617166 L599.327127,868.441607 C579.651733,866.187349 559.8412,863.917523 538.5,861.473125 C550.912487,842.728904 562.321304,825.473069 573.695275,808.345903 L576.31986,804.395146 L576.31986,804.395146 C578.691214,800.826027 581.281838,797.383833 583.693798,793.835022 C598.162852,772.572618 598.154731,772.570079 626.5,779.977397 Z M901.553114,800.501174 C938.748383,803.808248 934.526487,797.721931 928.619514,838.5 C917.933333,825.089091 908.711409,813.519337 899.5,801.959589 C900.922195,800.928942 901.261314,800.473657 901.553114,800.501174 Z M1122.62914,768.5 C1158.25405,772.298524 1191.9533,775.891723 1227.5,779.682547 C1224.40382,796.973532 1221.44789,813.489413 1218.04425,832.5 C1186.14122,827.328361 1152.97329,821.951396 1118.5,816.361405 C1119.73793,801.998877 1121.08105,786.448027 1122.62914,768.5 Z M472.157125,659.5 C496.967513,683.610154 521.06527,707.026897 545.079775,730.363234 L553.553051,738.597248 C564.848876,749.574144 576.142663,760.549204 587.5,771.586313 C576.881201,787.455547 566.827517,802.836652 556.238319,817.884713 C554.763635,819.979594 550.083936,822.049052 547.826163,821.367707 C509.148007,809.693321 470.615166,797.586738 430.5,785.088636 C444.590227,742.608818 458.034606,702.073884 472.157125,659.5 Z M947.506396,749.5 C1002.82189,755.393897 1056.96296,761.159776 1112.5,767.074156 C1110.94122,784.10808 1109.48653,800.018016 1107.88504,817.5 C1052.71101,810.302892 998.770121,803.267085 943.5,796.057175 C944.855929,780.318781 946.121107,765.614763 947.506396,749.5 Z M851,739 C866.848057,740.648996 882.037707,742.229523 897.155487,743.802564 L908.489512,744.981893 C918.568515,746.030631 928.680748,747.082818 939,748.156521 C937.560597,763.685005 936.220741,778.148955 934.985814,791.469609 C887.972484,800.529586 873.040357,767.605236 851,739 Z M641.5,718.5 C682.965908,722.808465 723.298412,726.991468 763.48308,731.178248 L775.535031,732.434524 C777.543279,732.643966 779.551404,732.853449 781.559528,733.06299 C789.565467,733.897713 797.627919,735.975588 805.545052,735.533976 C828.677506,734.247429 844.562904,743.699971 855.442908,762.56166 C860.300292,770.982922 866.282545,778.817071 873.5,789.5 C858.098995,787.011145 844.261504,784.415079 830.308296,782.582261 C774.027218,775.189725 717.740758,767.822715 661.381639,760.994319 C652.264288,759.891565 647.972028,757.001941 647.059755,748.116093 C646.080204,738.546128 643.566743,729.11656 641.5,718.5 Z M631.581073,718 C634.447178,731.610273 637.553247,742.092893 638.658706,752.764759 C639.807305,763.840687 645.655452,767.346829 656.602192,768.620394 C687.412525,772.208006 718.173335,776.185745 748.929823,780.193867 L767.383558,782.599508 C773.534871,783.400685 779.686373,784.2002 785.838425,784.995173 C791.584115,785.736808 797.281272,786.818571 803,787.741779 C802.929898,788.161186 802.854403,788.580593 802.784301,789 C736.187143,781.563196 669.587289,774.128949 600,766.35713 C610.758002,749.882614 620.219113,735.397724 631.581073,718 Z M980.717898,485 C1074.11442,500.025083 1168.15253,515.154103 1264,530.57465 C1258.41371,568.423443 1252.88211,605.903965 1247.35653,643.342218 L1243.21271,671.418075 C1238.37779,704.175882 1233.53816,736.963725 1228.66121,770 C1193.38417,766.324216 1159.01717,762.744763 1123.4502,759.038559 C1126.05148,729.480187 1128.47559,701.422548 1131.0017,673.37505 C1134.06741,639.319546 1136.89687,605.241227 1140.54511,571.238959 C1141.53032,562.067245 1137.94114,559.628552 1129.18698,558.614543 C1081.27667,553.060307 1033.42273,547.067512 985.555371,541.183722 C981.214531,540.648833 976.911274,539.81481 971,538.864176 C973.665174,524.096144 976.235853,509.847285 978.797255,495.647747 L980.717898,485 L980.717898,485 Z M537.639098,707.5 L543.01768,708.068717 C569.020657,710.818202 595.16497,713.582611 623.5,716.578333 C612.363957,733.042344 602.442952,747.712036 591.762548,763.5 C572.582299,745.007852 554.54115,727.611101 536.5,710.216892 C536.879699,709.312109 537.259399,708.404784 537.639098,707.5 Z M967.367636,547.5 C1003.39706,551.875855 1037.98036,556.075611 1072.40411,560.256549 L1082.23623,561.450727 L1082.23623,561.450727 L1092.06634,562.644695 C1105.17478,564.236877 1118.29562,565.830675 1131.5,567.434785 C1129.82444,586.004389 1128.1571,604.485945 1126.49079,622.958072 L1125.06261,638.790849 C1121.49195,678.376187 1117.91657,718.021375 1114.26562,758.5 C1058.78187,752.699356 1004.06661,746.98009 947.5,741.067553 C954.144937,676.337355 960.655524,612.919358 967.367636,547.5 Z M768.109003,449.5 C833.842091,460.032583 900.898846,470.77815 967.5,481.450187 C957.158691,568.340192 946.998005,653.683525 936.662088,740.5 C865.227262,733.045548 793.652251,725.575883 719.5,717.837452 C732.749112,644.706428 745.823323,572.522519 758.887102,500.406024 L763.497682,474.95451 C765.034576,466.47065 766.571594,457.986291 768.109003,449.5 Z M544.06431,505.525817 C592.999339,511.101225 641.895105,516.986483 690.784452,522.916929 L723.37676,526.874349 C728.808773,527.534066 734.240797,528.193616 739.672877,528.852634 C740.4944,528.952092 741.251491,529.533541 744.5,531.002465 C743.199965,538.251976 741.900524,545.498028 740.601276,552.742875 L736.703705,574.476061 C728.258477,621.566572 719.804383,668.701471 711.230972,716.5 C684.139481,713.666711 656.631859,710.80792 629.129605,707.908326 C597.589536,704.580295 566.011881,701.525138 534.552353,697.592706 C528.495629,696.835293 521.842897,693.665375 517.34331,689.69214 C504.918434,678.718565 493.116413,667.038581 481.923823,654.92761 C479.182725,651.96171 477.601426,645.496915 479.045805,641.947016 C496.770314,598.422498 515.012974,555.084145 533.663712,511.906455 C534.992647,508.830896 540.810431,505.156036 544.06431,505.525817 Z M532.150198,408 C535.297699,411.808046 538.642753,415.489495 541.504603,419.482373 C542.964893,421.515526 542.868787,424.875418 544.657443,426.32369 C555.049962,434.740257 552.509473,443.485735 548.565174,452.961736 L548.29727,453.601679 L548.29727,453.601679 L548.025898,454.243863 C547.707579,454.994395 547.383782,455.749557 547.060115,456.509546 C522.438062,514.298673 498.309892,572.277695 473.968151,630.173164 C472.371709,633.96855 470.420205,637.624679 467.841336,643 C457.902282,633.436841 448.809501,625.043442 440.296032,616.153781 C438.785018,614.576379 438.643528,610.507542 439.620614,608.287026 C468.703629,542.253884 498.013562,476.311893 527.283452,410.352177 C528.90659,409.569806 530.529729,408.784903 532.150198,408 Z M411.271547,348 C439.889786,379.619167 472.842076,402.540077 521,403.076253 C490.124274,472.179494 460.671629,538.101251 430.338672,606 C404.262193,580.786075 378.645262,556.015187 353.073762,531.287736 L333.897183,512.74405 C318.978626,498.317804 304.040299,483.872346 289,469.328356 C329.680673,428.96011 369.68626,389.265261 411.271547,348 Z M1300,283 C1287.93484,364.034194 1276.14457,443.215772 1264.41897,522 C1168.87328,506.713395 1074.81518,491.664693 979,476.332532 C982.797142,457.26477 980.635816,439.41943 993.663059,423.717758 C1018.74198,393.486218 1042.27942,362.133491 1066.94871,331.595713 C1070.37396,327.353933 1076.18959,323.220982 1081.57135,322.213686 C1134.02931,312.396344 1186.55549,302.899319 1239.08849,293.432191 L1274.11083,287.122013 C1279.94783,286.069993 1285.78475,285.017545 1291.62149,283.964271 C1293.71006,283.587168 1295.84982,283.468216 1300,283 Z M607.895088,421.044895 C657.49394,428.636479 707.011862,436.68554 758,444.869303 C753.211685,471.352164 748.792947,495.789084 744.053189,522 C676.617526,514.078016 608.666613,506.097576 539,497.916354 C546.674792,479.535927 553.030438,463.292936 560.424675,447.479466 C561.865216,444.406743 567.152595,441.600881 571.010224,441.107822 C582.793526,439.610854 592.453783,435.961201 598.822916,425.723872 C600.360573,423.250952 605.127307,420.622999 607.895088,421.044895 Z M317.143839,269 C346.708753,294.329962 374.743753,318.35019 404,343.417193 C389.630696,357.693878 375.330206,371.90219 361.040696,386.099838 L343.894852,403.135588 C323.88888,423.013274 303.859087,442.915297 283.646778,463 C267.733463,447.573511 252.178643,432.492605 236.657257,417.444379 L227.345837,408.416862 C219.58533,400.893027 211.816928,393.361716 204,385.783818 C242.008965,346.552465 279.21808,308.145386 317.143839,269 Z M681.374434,320.005371 C702.088329,320.373039 718.010763,323.489346 725.271607,347.52979 C728.101595,356.898286 736.275205,364.756657 744.652379,372.6417 L746.22423,374.120833 C750.415501,378.068023 754.577349,382.045893 758.067268,386.246543 C761.369599,390.222433 764.34518,396.084843 763.967541,400.834105 C763.014069,412.845452 760.070629,424.717339 757.86104,437 C724.805585,431.670076 692.869655,426.520182 659,421.055868 C665.119893,387.045271 671.063018,354.021039 677.172197,320.08144 C678.717571,320.051012 680.048681,319.980014 681.374434,320.005371 Z M576.659264,391.368648 C587.937904,393.542723 595.709717,404.425873 593.676347,415.204279 C591.600113,426.187063 580.645633,433.552349 569.101772,431.720608 C557.592737,429.893976 549.53159,419.468123 551.224726,408.595192 C552.982158,397.316059 565.061822,389.135814 576.659264,391.368648 Z M542.5,299.5 C565.542403,303.192847 587.694381,306.743557 609.766237,310.281111 L618.592627,311.695736 C634.773551,314.289051 650.969489,316.884538 667.5,319.533064 C661.767509,351.184697 655.930254,383.412459 649.757215,417.5 C636.221123,415.331941 621.83617,413.32813 607.650001,410.450019 C605.326381,409.980021 603.177369,405.891537 602.16196,403.086706 C597.8317,391.129534 589.157748,384.476273 576.062203,382.234935 C572.959566,381.704291 568.161896,380.27408 567.493016,378.267742 C559.133357,353.175875 551.391539,327.9046 542.5,299.5 Z M532.606427,300 C540.977176,327.248384 549.229953,353.59011 556.908949,380.085507 C557.547078,382.28556 554.688904,385.799498 552.766474,388.201884 C549.310389,392.527715 545.334149,396.474492 541.194355,400.994973 C526.949066,401.207551 520.747418,394.676544 517.816851,381.757957 C512.46783,358.166937 505.019418,335.011317 498,310.096168 C509.572119,306.720534 520.414948,303.557478 532.606427,300 Z M490.662674,319.275781 C498.163408,343.799983 505.021452,368.501528 512,392.949725 C471.482217,394.226604 446.413687,370.973381 422.04368,346.884649 L420.52133,345.37823 C420.014095,344.87587 419.507029,344.373362 419,343.87092 C432.126954,317.844359 457.355236,315.817565 482.41749,314.008652 C485.106078,313.816106 489.926258,316.876565 490.662674,319.275781 Z M214.536604,71.5 C264.451518,116.500521 313.464259,160.689261 363.5,205.801401 C347.032643,222.85893 331.730593,238.711473 315.445819,255.583814 C305.073505,246.430994 295.047562,237.681527 285.137075,228.817903 C249.783138,197.181312 214.528549,165.448322 179.026935,133.961402 C177.305072,132.433632 174.917834,131.57399 172.488144,130.7567 L171.576237,130.450979 C170.512863,130.09377 169.456267,129.729694 168.458613,129.306351 C167.596715,130.770092 166.734817,132.23637 165.870233,133.700111 C213.32565,176.219628 260.781067,218.739146 309.200413,262.123717 C271.556137,301.094234 234.389798,339.570072 196.785797,378.5 C146.690985,332.309714 98.263583,286.286858 61.5,229.28975 C111.922387,177.302848 162.809287,124.83395 214.536604,71.5 Z M454.371018,188.5 C465.507036,227.359544 476.200296,264.669063 487.5,304.095937 C486.898977,304.135296 486.298178,304.174579 485.697707,304.214013 L483.897379,304.332985 L483.897379,304.332985 L482.099635,304.454201 C453.95845,306.377873 426.996378,309.623703 411.922665,337.5 C390.807257,319.365715 370.66948,302.071052 350.611537,284.845884 L341.587821,277.09665 C335.571563,271.930156 329.550369,266.759519 323.5,261.563947 C339.933006,244.536461 355.426829,228.327044 371.175573,212.343039 C373.161273,210.32446 376.311558,208.931464 379.196189,208.164049 C403.652494,201.637226 428.16515,195.323151 454.371018,188.5 Z M752,213 C725.647986,242.004269 714.201865,275.668164 715.121618,315 C701.790536,312.835692 690.494142,311.004943 676,308.652213 C679.804679,287.391073 683.5746,265.870216 687.649323,244.400285 C687.972841,242.696847 690.098434,240.784618 691.889815,239.936718 C711.605699,230.612372 731.42051,221.48154 752,213 Z M1131.21925,103.5 C1190.08926,160.343387 1243.43085,222.767853 1314.5,271.500955 C1234.99006,285.987796 1158.27396,299.964716 1078.5,314.5 C1086.59055,295.39073 1093.79472,279.48376 1099.95626,263.219846 C1102.09273,257.582675 1102.45374,251.042944 1102.23013,244.962143 C1101.94789,237.347602 1101.45301,229.734713 1100.9407,222.123239 L1100.59872,217.04913 C1099.80474,205.210018 1099.07355,193.3742 1099.13993,181.540782 C1099.30158,152.442169 1112.28741,127.374477 1131.21925,103.5 Z M518,223 C572.166932,229.203929 624.257023,235.171204 678,241.329329 C676.805851,247.97641 675.627956,254.532343 674.450122,261.087746 L673.566504,266.005615 C671.061521,279.94732 668.538534,293.988934 665.842157,309 C655.52503,307.335779 645.113988,305.427269 634.630499,304.002249 C606.319442,300.149604 578.005702,296.291869 549.63293,292.920168 C542.025893,292.016807 537.99564,289.433957 535.956364,282.028938 C530.686445,262.882767 524.453236,243.973251 518,223 Z M495.282037,179 C507.248351,217.240788 518.936442,254.597147 531,293.149639 C519.379439,296.451677 508.771828,299.467352 496.332804,303 C485.279495,264.693323 474.328831,226.743966 463,187.494574 C473.899341,184.625881 484.036943,181.959923 495.282037,179 Z M439.319622,0 C456.946741,56.7391478 474.324647,112.662014 492,169.553264 C481.08019,172.450809 471.368929,175.026404 460.16507,178 C444.084143,121.696878 428.198834,66.0832859 412,9.3669534 C421.512963,6.10436368 429.396664,3.40201663 439.319622,0 Z" id="Combined-Shape"></path>
                </g>
            </g>
        </g>
    </g>
</svg>