<?xml version="1.0" encoding="UTF-8"?>
<svg width="48px" height="48px" viewBox="0 0 48 48" version="1.1" xmlns="http://www.w3.org/2000/svg" xmlns:xlink="http://www.w3.org/1999/xlink">
    <title>657E0AA9-53FA-46CE-8159-D46696C4AC89</title>
    <g id="OSM-Quality-Site" stroke="none" stroke-width="1" fill="none" fill-rule="evenodd">
        <g id="Quick-Stats-" transform="translate(-849.000000, -237.000000)">
            <g id="Group" transform="translate(824.000000, 143.000000)">
                <g id="Card-Content" transform="translate(24.000000, 24.000000)">
                    <g id="Average-Error" transform="translate(1.000000, 64.000000)">
                        <g id="warning-circle" transform="translate(0.000000, 6.000000)">
                            <path d="M24,4.48421053 C34.7782729,4.48421053 43.5157895,13.2217271 43.5157895,24 C43.5157895,34.7782729 34.7782729,43.5157895 24,43.5157895 C13.2217271,43.5157895 4.48421053,34.7782729 4.48421053,24 C4.48421053,13.2217271 13.2217271,4.48421053 24,4.48421053 Z M24,7.51578947 C14.8960219,7.51578947 7.51578947,14.8960219 7.51578947,24 C7.51578947,33.1039781 14.8960219,40.4842105 24,40.4842105 C33.1039781,40.4842105 40.4842105,33.1039781 40.4842105,24 C40.4842105,14.8960219 33.1039781,7.51578947 24,7.51578947 Z M24,30 C25.2426407,30 26.25,31.0073593 26.25,32.25 C26.25,33.4926407 25.2426407,34.5 24,34.5 C22.7573593,34.5 21.75,33.4926407 21.75,32.25 C21.75,31.0073593 22.7573593,30 24,30 Z M24,13.4842105 C24.7906392,13.4842105 25.4398956,14.0895425 25.5095949,14.8620323 L25.5157895,15 L25.5157895,25.5 C25.5157895,26.3371474 24.8371474,27.0157895 24,27.0157895 C23.2093608,27.0157895 22.5601044,26.4104575 22.4904051,25.6379677 L22.4842105,25.5 L22.4842105,15 C22.4842105,14.1628526 23.1628526,13.4842105 24,13.4842105 Z" id="Combined-Shape" fill-opacity="0.5" fill="#000000"></path>
                            <rect id="Rectangle" x="0" y="0" width="48" height="48"></rect>
                        </g>
                    </g>
                </g>
            </g>
        </g>
    </g>
</svg>