<?xml version="1.0" encoding="UTF-8"?>
<svg width="48px" height="48px" viewBox="0 0 48 48" version="1.1" xmlns="http://www.w3.org/2000/svg" xmlns:xlink="http://www.w3.org/1999/xlink">
    <title>B7080D62-297C-4A5D-AB3E-D231918A57F5</title>
    <g id="OSM-Quality-Site" stroke="none" stroke-width="1" fill="none" fill-rule="evenodd">
        <g id="Quick-Stats-" transform="translate(-849.000000, -524.000000)">
            <g id="Group" transform="translate(824.000000, 143.000000)">
                <g id="Card-Content" transform="translate(24.000000, 24.000000)">
                    <g id="Cell-Size" transform="translate(1.000000, 349.000000)">
                        <g id="grid-four" transform="translate(0.000000, 8.000000)">
                            <rect id="Rectangle" x="0" y="0" width="48" height="48"></rect>
                            <path d="M38.25,6.75 C39.9068542,6.75 41.25,8.09314575 41.25,9.75 L41.25,9.75 L41.25,38.25 C41.25,39.9068542 39.9068542,41.25 38.25,41.25 L38.25,41.25 L9.75,41.25 C8.09314575,41.25 6.75,39.9068542 6.75,38.25 L6.75,38.25 L6.75,9.75 C6.75,8.09314575 8.09314575,6.75 9.75,6.75 L9.75,6.75 Z M22.5,25.5 L9.75,25.5 L9.75,38.25 L22.5,38.25 L22.5,25.5 Z M38.25,25.5 L25.5,25.5 L25.5,38.25 L38.25,38.25 L38.25,25.5 Z M22.5,9.75 L9.75,9.75 L9.75,22.5 L22.5,22.5 L22.5,9.75 Z M38.25,9.75 L25.5,9.75 L25.5,22.5 L38.25,22.5 L38.25,9.75 Z" id="Combined-Shape" fill-opacity="0.5" fill="#000000" fill-rule="nonzero"></path>
                        </g>
                    </g>
                </g>
            </g>
        </g>
    </g>
</svg>