<svg enable-background="new 0 0 32 33" viewBox="0 0 32 33" xmlns="http://www.w3.org/2000/svg" xmlns:xlink="http://www.w3.org/1999/xlink"><clipPath id="a"><circle cx="15.5" cy="16.5" r="11.5"/></clipPath><clipPath id="b"><path d="m20 13.8c.5-.3.8-.8 1-1.3-.4.3-.9.5-1.4.6-.4-.5-1-.8-1.6-.8-1.2 0-2.3 1.1-2.3 2.4 0 .2 0 .4.1.5-1.9-.1-3.5-1-4.6-2.5-.2.4-.3.8-.3 1.2 0 .8.4 1.6 1 2-.4 0-.7-.1-1-.3 0 1.2.8 2.1 1.8 2.3-.2.1-.4.1-.6.1-.1 0-.3 0-.4 0 .3.9 1.1 1.6 2.1 1.6-.8.6-1.7 1-2.8 1-.2 0-.4 0-.5 0 1 .7 2.2 1.1 3.5 1.1 4.1 0 6.4-3.6 6.4-6.8 0-.1 0-.2 0-.3.4-.3.8-.8 1.1-1.2-.7.2-1.1.3-1.5.4z"/></clipPath><circle clip-path="url(#a)" cx="15.5" cy="16.5" fill="none" r="11.5" stroke="#fff" stroke-miterlimit="10" stroke-width="4"/><path clip-path="url(#b)" d="m5.3 7.3h21v19.4h-21z" fill="#fff"/></svg>