<?xml version="1.0" encoding="utf-8"?>
<!-- Generator: Adobe Illustrator 22.1.0, SVG Export Plug-In . SVG Version: 6.00 Build 0)  -->
<svg version="1.1" id="Layer_1" xmlns="http://www.w3.org/2000/svg" xmlns:xlink="http://www.w3.org/1999/xlink" x="0px" y="0px"
	 viewBox="0 0 32 33" style="enable-background:new 0 0 32 33;" xml:space="preserve">
<style type="text/css">
	.st0{clip-path:url(#SVGID_2_);fill:none;stroke:#FFFFFF;stroke-width:4;stroke-miterlimit:10;}
	.st1{clip-path:url(#SVGID_4_);fill:#FFFFFF;}
</style>
<g>
	<defs>
		<circle id="SVGID_1_" cx="15.5" cy="16.5" r="11.5"/>
	</defs>
	<clipPath id="SVGID_2_">
		<use xlink:href="#SVGID_1_"  style="overflow:visible;"/>
	</clipPath>
	<circle class="st0" cx="15.5" cy="16.5" r="11.5"/>
</g>
<g>
	<defs>
		<path id="SVGID_3_" d="M20,13.8c0.5-0.3,0.8-0.8,1-1.3c-0.4,0.3-0.9,0.5-1.4,0.6c-0.4-0.5-1-0.8-1.6-0.8c-1.2,0-2.3,1.1-2.3,2.4
			c0,0.2,0,0.4,0.1,0.5c-1.9-0.1-3.5-1-4.6-2.5c-0.2,0.4-0.3,0.8-0.3,1.2c0,0.8,0.4,1.6,1,2c-0.4,0-0.7-0.1-1-0.3v0
			c0,1.2,0.8,2.1,1.8,2.3c-0.2,0.1-0.4,0.1-0.6,0.1c-0.1,0-0.3,0-0.4,0c0.3,0.9,1.1,1.6,2.1,1.6c-0.8,0.6-1.7,1-2.8,1
			c-0.2,0-0.4,0-0.5,0c1,0.7,2.2,1.1,3.5,1.1c4.1,0,6.4-3.6,6.4-6.8c0-0.1,0-0.2,0-0.3c0.4-0.3,0.8-0.8,1.1-1.2
			C20.8,13.6,20.4,13.7,20,13.8z"/>
	</defs>
	<clipPath id="SVGID_4_">
		<use xlink:href="#SVGID_3_"  style="overflow:visible;"/>
	</clipPath>
	<rect x="5.3" y="7.3" class="st1" width="21" height="19.4"/>
</g>
</svg>
