<?xml version="1.0" encoding="utf-8"?>
<!-- Generator: Adobe Illustrator 22.1.0, SVG Export Plug-In . SVG Version: 6.00 Build 0)  -->
<svg version="1.1" id="Layer_1" xmlns="http://www.w3.org/2000/svg" xmlns:xlink="http://www.w3.org/1999/xlink" x="0px" y="0px"
	 viewBox="0 0 32 33" style="enable-background:new 0 0 32 33;" xml:space="preserve">
<style type="text/css">
	.st0{clip-path:url(#SVGID_2_);fill:none;stroke:#FFFFFF;stroke-width:4;stroke-miterlimit:10;}
	.st1{clip-path:url(#SVGID_4_);fill:#FFFFFF;}
</style>
<g>
	<defs>
		<circle id="SVGID_1_" cx="15.5" cy="18.5" r="11.5"/>
	</defs>
	<clipPath id="SVGID_2_">
		<use xlink:href="#SVGID_1_"  style="overflow:visible;"/>
	</clipPath>
	<circle class="st0" cx="15.5" cy="18.5" r="11.5"/>
</g>
<g>
	<defs>
		<path id="SVGID_3_" d="M19.7,21.7c0,0.6-0.4,1-1,1h-6.4c-0.6,0-1-0.4-1-1v-4.3h1.6c-0.1,0.3-0.2,0.7-0.2,1.1
			c0,1.6,1.3,2.9,2.9,2.9c1.6,0,2.9-1.3,2.9-2.9c0-0.4-0.1-0.7-0.2-1.1h1.6V21.7z M14,17.4c0.3-0.5,0.9-0.8,1.5-0.8s1.2,0.3,1.5,0.8
			c0.2,0.3,0.3,0.7,0.3,1.1c0,1-0.8,1.8-1.8,1.8c-1,0-1.8-0.8-1.8-1.8C13.7,18.1,13.8,17.7,14,17.4z M19.3,14.5l0.2,0v1.8l-1.8,0
			l0-1.8L19.3,14.5z M18.7,13.3h-6.4c-1.1,0-2,0.9-2,2v6.4c0,1.1,0.9,2,2,2h6.4c1.1,0,2-0.9,2-2v-6.4C20.7,14.2,19.8,13.3,18.7,13.3
			z"/>
	</defs>
	<clipPath id="SVGID_4_">
		<use xlink:href="#SVGID_3_"  style="overflow:visible;"/>
	</clipPath>
	<rect x="5.3" y="8.3" class="st1" width="20.5" height="20.5"/>
</g>
</svg>
