<svg viewBox="0 0 427 107" xmlns="http://www.w3.org/2000/svg"><g fill="#fff"><path d="M393.2 80.1l-23.6-35.9v35.9h-7.3V29.6h6.6l22.9 35v-35h7.4v50.5zm-120 .2c-7.1 0-12.9-2.3-17-6.6-4.2-4.5-6.4-10.9-6.4-19.1 0-7.9 2.4-14.5 7-19 4.1-4 9.9-6.3 16.3-6.3 6.2 0 11.2 1.5 14.9 4.6l1.1.9v5.6h-5.2l-.9-.9c-1.1-1.1-3.9-3-9.8-3-10.1.1-15.7 6.5-15.7 18 .1 12.3 5.2 18.3 15.7 18.4 4.9 0 7.7-.8 9.7-1.9V52.8h7.5v22.5l-1.5.9c-3.5 2-8.1 4.1-15.7 4.1zm-226.6 0c-6.3 0-11.9-2.4-15.7-6.8-3.9-4.5-6-11-6-18.8 0-7.7 2.3-14.2 6.5-18.7 3.9-4.2 9.4-6.5 15.4-6.5 8.4 0 12.3 3 15.6 6l1 .9v5.5H58l-.9-1.1c-1.8-2.1-4.2-4.1-10.2-4.1-9.1 0-14.5 6.7-14.6 17.9.2 11.9 5.2 18.4 14.3 18.4 5.2 0 8.9-1.6 11.4-4.8l.9-1.2h5.5v5.4l-.9.9c-3.1 3.3-7.9 7-16.9 7zm61.9-23.2c4.6-2.3 7.1-6.7 7-12.7 0-6.6-3-10-5.5-11.8-2.9-2-6.9-3-12.2-3H84v50.6h7.4V59h6.4c1 0 2.1 0 3.1-.1l11.4 21.3h6v-4.7zm-2.6-6.9c-1.5 1-4.1 1.5-8 1.5h-6.4V36.9H98c3.6 0 6.2.5 7.8 1.6 1.1.8 2.4 2.1 2.5 5.9-.2 3.8-1.3 5.1-2.4 5.8zm236.7 29.9H310V29.6h31.7v7.3h-24.3v13.5H336v7.2h-18.6v15.3h25.2zM222.8 29.6h7.4v50.5h-7.4zm-35 50.5h-7.4v-43H165v-7.5h38.1v7.5h-15.3zM138 29.6h7.4v50.5H138z"/><path d="M274.1 52.9h9v5.8h-9z"/></g></svg>