<?xml version="1.0" encoding="utf-8"?>
<!-- Generator: Adobe Illustrator 22.1.0, SVG Export Plug-In . SVG Version: 6.00 Build 0)  -->
<svg version="1.1" id="Layer_1" xmlns="http://www.w3.org/2000/svg" xmlns:xlink="http://www.w3.org/1999/xlink" x="0px" y="0px"
	 viewBox="0 0 427 107" style="enable-background:new 0 0 427 107;" xml:space="preserve">
<style type="text/css">
	.st0{fill:#ffffff;}
</style>
<g>
	<g>
		<g>
			<polygon class="st0" points="393.2,80.1 369.6,44.2 369.6,80.1 362.3,80.1 362.3,29.6 368.9,29.6 391.8,64.6 391.8,29.6 
				399.2,29.6 399.2,80.1 			"/>
		</g>
		<g>
			<path class="st0" d="M273.2,80.3L273.2,80.3c-7.1,0-12.9-2.3-17-6.6c-4.2-4.5-6.4-10.9-6.4-19.1c0-7.9,2.4-14.5,7-19
				c4.1-4,9.9-6.3,16.3-6.3c6.2,0,11.2,1.5,14.9,4.6l1.1,0.9v5.6h-5.2l-0.9-0.9c-1.1-1.1-3.9-3-9.8-3c-10.1,0.1-15.7,6.5-15.7,18
				c0.1,12.3,5.2,18.3,15.7,18.4c4.9,0,7.7-0.8,9.7-1.9l0-18.2h7.5v22.5l-1.5,0.9C285.4,78.2,280.8,80.3,273.2,80.3z"/>
		</g>
		<g>
			<path class="st0" d="M46.6,80.3L46.6,80.3c-6.3,0-11.9-2.4-15.7-6.8c-3.9-4.5-6-11-6-18.8c0-7.7,2.3-14.2,6.5-18.7
				c3.9-4.2,9.4-6.5,15.4-6.5c8.4,0,12.3,3,15.6,6l1,0.9v5.5h-5.4l-0.9-1.1c-1.8-2.1-4.2-4.1-10.2-4.1c-9.1,0-14.5,6.7-14.6,17.9
				C32.5,66.5,37.5,73,46.6,73c5.2,0,8.9-1.6,11.4-4.8l0.9-1.2h5.5v5.4l-0.9,0.9C60.4,76.6,55.6,80.3,46.6,80.3z"/>
		</g>
		<path class="st0" d="M108.5,57.1c4.6-2.3,7.1-6.7,7-12.7c0-6.6-3-10-5.5-11.8c-2.9-2-6.9-3-12.2-3H84v50.6h7.4V59h6.4
			c1,0,2.1,0,3.1-0.1l11.4,21.3h6v-4.7L108.5,57.1z M105.9,50.2c-1.5,1-4.1,1.5-8,1.5l0,0h-6.4V36.9h6.5c3.6,0,6.2,0.5,7.8,1.6
			c1.1,0.8,2.4,2.1,2.5,5.9C108.1,48.2,107,49.5,105.9,50.2z"/>
		<g>
			<polygon class="st0" points="342.6,80.1 310,80.1 310,29.6 341.7,29.6 341.7,36.9 317.4,36.9 317.4,50.4 336,50.4 336,57.6 
				317.4,57.6 317.4,72.9 342.6,72.9 			"/>
		</g>
		<g>
			<rect x="222.8" y="29.6" class="st0" width="7.4" height="50.5"/>
		</g>
		<g>
			<polygon class="st0" points="187.8,80.1 180.4,80.1 180.4,37.1 165,37.1 165,29.6 203.1,29.6 203.1,37.1 187.8,37.1 			"/>
		</g>
		<g>
			<rect x="138" y="29.6" class="st0" width="7.4" height="50.5"/>
		</g>
	</g>
	<rect x="274.1" y="52.9" class="st0" width="9" height="5.8"/>
</g>
</svg>
