<svg viewBox="0 0 230 250" xmlns="http://www.w3.org/2000/svg"><path d="M39.6 76.3c-9.9 0-18.5-3.5-25.5-10.5S3.5 50.2 3.5 40.3s3.6-18.5 10.6-25.5S29.7 4.2 39.6 4.2c3.5 0 7 .5 10.4 1.5 3.3 1 6.5 2.5 9.5 4.4l2.3 3.4 2.4 11.6-.8 4.1-4.6 7-3.5 2.3-8.4 1.7 8.4 1.5 3.5 2.2 4.8 6.8.9 4-2 11.7-2.2 3.5c-3.1 2.2-6.4 3.8-10 4.9-3.4 1-7 1.5-10.7 1.5zm0-35.8l1.2-.3-1.4-.3s.1.1.2.1.2.1.2.1h-.3l-.1.1v.2c.1 0 .2.1.2.1z" fill="#fff"/><path d="M39.6 68C32 68 25.4 65.2 20 59.9c-5.4-5.4-8.1-12-8.1-19.6s2.7-14.2 8.1-19.6 12-8.1 19.6-8.1c2.7 0 5.4.4 7.9 1.2 2.6.8 5 1.9 7.3 3.4l1.6 7.5-4.6 7-7.6 1.3c-.6-.4-1.3-.8-2.1-1s-1.7-.3-2.5-.3c-2.4 0-4.3.8-6 2.5s-2.5 3.6-2.5 6 .8 4.4 2.5 6.1 3.6 2.5 6 2.5c.9 0 1.7-.1 2.5-.4s1.6-.6 2.3-1.1l7.5 1.3 4.8 6.8-1.2 7.6c-2.3 1.7-4.9 2.9-7.6 3.7-2.6.8-5.4 1.3-8.3 1.3z" fill="#e57430"/><path d="M72.6 75.3l-2.4-.5-3.7-1.8-.8.8-3.8 1.6h-8.4l-3.8-1.6-8.4-8.4-1.6-3.8V19.1l1.6-3.8 8.4-8.4 3.8-1.6h4.2c6.7 0 12.8 1.9 17.7 5.6l4-4 3.8-1.6h8.4l3.8 1.6 8.4 8.4 1.6 3.8v42.4l-1.6 3.8-8.4 8.4-3.8 1.6h-8.2l-.1.1H72.6z" fill="#fff"/><path d="M72.6 67l-4.2-2-2-2.5-4.5 4.5h-8.4l-5.4-5.4V19.1l5.4-5.4h4.2c6.6 0 12 2.3 15.9 6.9 1.8 2.1 3.2 4.3 4.1 6.7v-8.1l5.4-5.4h8.4l5.4 5.4v42.4L91.5 67h-8.3v.1H72.6zm5.2-21v-2.5c-.2.5-.5 1-.8 1.5z" fill="#e57430"/><path d="M98.5 75.3l-3.8-1.5-8.4-8.4-1.6-3.9V35.2l-3.9-4-1.6-3.8V19l1.6-3.8 8.3-8.4L93 5.2h19.5l3.9 1.6 8.3 8.4 1.6 3.8v8.4l-1.6 3.8-4 4v26.3l-1.6 3.9-8.4 8.4-3.8 1.5z" fill="#fff"/><path d="M98.5 67l-5.4-5.5V32.8H93l-5.4-5.4V19l5.4-5.4h19.5l5.4 5.4v8.4l-5.4 5.4h-.2v28.7l-5.4 5.5z" fill="#e57430"/><path d="M114.3 75.3l-3.8-1.6-8.4-8.4-1.6-3.8V19.1l1.6-3.9 8.4-8.3 3.8-1.6h8.4l3.8 1.6 8.4 8.3 1.6 3.9v42.4l-1.6 3.8-8.4 8.4-3.8 1.6z" fill="#fff"/><path d="M114.3 66.9l-5.4-5.4V19.1l5.4-5.4h8.4l5.4 5.4v42.4l-5.4 5.4z" fill="#e57430"/><path d="M147 76.3c-9.9 0-18.5-3.6-25.5-10.6-7.1-7-10.6-15.6-10.6-25.5s3.6-18.5 10.6-25.6c7-7 15.6-10.6 25.5-10.6l3.8 1.6 8.4 8.4 1.4 3.3 8.2 8.2 1.6 3.8v31.3l-1.2 3.4-6.5 8.2-2.4 1.7h-.1c-.9.3-1.9.6-3 .9l-.3.1-.7.2-.6.2c-1.3.3-2.6.5-3.9.7-1.6.2-3.1.3-4.7.3z" fill="#fff"/><path d="M147 68c-7.6 0-14.2-2.7-19.6-8.1s-8.2-12-8.2-19.6 2.8-14.2 8.2-19.6 12-8.1 19.6-8.1l5.4 5.4v6h4.1l5.4 5.4v31.3l-4.2 5.3c-.1 0-.2.1-.5.2-.6.2-1.3.4-2 .6l-.4.1-.9.3-.3.1c-1 .2-2.1.4-3.1.6-1.1 0-2.3.1-3.5.1zm-8.5-27.7c0 2.4.8 4.3 2.5 6 .6.6 1.2 1.1 1.9 1.4v-4.6h-1.2l-3.1-3.1c-.1.1-.1.2-.1.3z" fill="#e57430"/><path d="M174.1 75.3c-6.2 0-11.8-2.3-16.3-6.7-3.9-3.9-6.2-8.7-6.7-14.1-1.1-1.4-2.2-2.8-3.1-4.4-2.6-4.5-3.9-9.5-3.9-14.8 0-8.1 3-15.4 8.8-21.2 5.7-5.7 13.1-8.8 21.2-8.8h4.6l3.8 1.6 8.4 8.4 1.6 3.8v8.3l-1.6 3.8-4 4 4 4 1.6 3.8v8.3l-.4.9.4.9v8.3l-1.6 3.8-8.4 8.4-3.8 1.6h-4.6z" fill="#fff"/><path d="M174.1 66.9c-3.9 0-7.5-1.5-10.4-4.3s-4.4-6.4-4.4-10.4V51c-1.6-1.5-3-3.2-4.1-5.2-1.9-3.2-2.8-6.8-2.8-10.6 0-5.9 2.1-11 6.3-15.2s9.3-6.3 15.3-6.3h4.6l5.4 5.4v8.3l-5.4 5.4H174c-.7 0-1.2.2-1.8.7-.5.5-.7 1-.7 1.7s.2 1.3.7 1.9c.4.4.5.4.8.4h5.6l5.4 5.4v8.3l-.9.9.9.9v8.3l-5.4 5.4h-4.5z" fill="#e57430"/><path d="M199.4 75.3l-3.8-1.6-1.6-1.6-1.6 1.6-3.8 1.6h-8.3l-3.8-1.6-8.4-8.4-1.6-3.8V19.1l1.6-3.8 8.4-8.4 3.8-1.6c3 0 6 .1 8.7.3 2.2.2 4.5.6 6.7 1.3l3.8-1.6h8.4l3.8 1.6 8.4 8.4 1.6 3.8v42.4l-1.6 3.8-8.4 8.4-3.8 1.6z" fill="#fff"/><path d="M199.4 66.9l-5.4-5.4V41.9c0-.4 0-.9-.1-1.3v20.9l-5.4 5.4h-8.3l-5.4-5.4V19.1l5.4-5.4c2.8 0 5.5.1 8.1.3 2.9.2 5.8 1 8.6 2.3l2.6-2.6h8.4l5.4 5.4v42.4l-5.4 5.4z" fill="#e57430"/><path d="M60.6 164.1c-14.9 0-27.9-5.4-38.6-16S5.9 124.5 5.9 109.5 11.3 81.4 22 70.8s23.7-16 38.6-16c15 0 28 5.4 38.7 16 10.6 10.6 16 23.7 16 38.7s-5.4 27.9-16 38.6c-10.7 10.6-23.7 16-38.7 16zm0-66.6c-3.4 0-5.9 1-8.3 3.5-2.5 2.5-3.5 5-3.5 8.4s1 5.9 3.5 8.4c2.4 2.4 4.9 3.5 8.4 3.5s6-1 8.4-3.5c2.4-2.4 3.5-4.9 3.5-8.3s-1.1-5.9-3.5-8.4c-2.6-2.5-5.1-3.6-8.5-3.6z" fill="#fff"/><path d="M60.6 155.7c-12.7 0-23.7-4.6-32.7-13.6-9.1-9-13.7-20-13.7-32.7s4.6-23.8 13.7-32.8S48 63 60.6 63c12.7 0 23.8 4.6 32.8 13.6s13.6 20 13.6 32.8c0 12.7-4.6 23.6-13.6 32.7-9.1 9-20.1 13.6-32.8 13.6zm0-66.6c-5.6 0-10.3 1.9-14.3 6-4 4-5.9 8.7-5.9 14.3s1.9 10.3 5.9 14.3 8.6 5.9 14.3 5.9c5.6 0 10.3-1.9 14.3-5.9s6-8.6 6-14.3c0-5.6-2-10.3-6-14.3s-8.7-6-14.3-6z" fill="#e57430"/><path d="M100.2 165l-3.1-2.8-6.5-13.6-.2-4.1 3.9-11.1 2.7-3.1c.9-.4 1.4-.9 1.8-1.6.5-.8.7-1.6.7-2.4v-.3c0-.1 0-.3-.1-.5 0-.1 0-.2-.1-.3-.1-.2-.2-.5-.3-.7l-5.4-11.2c-.9-2.1-1.8-4.2-2.4-6.3-.7-2.3-1.3-4.7-1.6-7l-.1-.6-.2-2.4c-.1-1.2-.2-2.4-.2-3.6 0-8.8 2.4-17.1 7.1-24.7C101 61 107.7 55 116 51l4.2-.2 11.2 4 3.1 2.8 6.5 13.8.2 4.2-4 11.2-2.8 3.1c-.5.2-.8.5-1.1.8-.4.4-.6.8-.8 1.3l-.1.3c0 .3-.1.6-.1.9 0 .8.1 1.5.4 2.2.9 2.2 1.9 4.4 3 6.5.2.4.4.7.5 1.1l.1.1.2.3c.3.6.6 1.1.8 1.7.2.4.3.7.5 1l.2.4c1.1 2.3 2 4.7 2.7 7.2s1.2 5 1.5 7.5c.1.8.2 1.7.2 2.6.1.9.1 1.8.1 2.6v.1c-.1 8.7-2.5 17-7.1 24.5-4.7 7.8-11.4 13.8-19.8 17.8l-4.1.2z" fill="#fff"/><path d="M104.6 158.6L98.1 145l2.5-7.2c2.3-1.1 4-2.7 5.3-4.8 1.3-2.2 1.9-4.4 1.9-6.7 0-.4 0-.8-.1-1.3 0-.4-.1-.9-.2-1.3s-.2-.8-.4-1.2-.3-.9-.6-1.4l-5.4-11.2c-.8-1.8-1.5-3.6-2.1-5.3-.6-1.9-1-3.7-1.3-5.6v-.2l-.2-2.4c-.1-.9-.1-1.9-.1-2.8 0-7.2 2-14.1 5.8-20.4 3.9-6.3 9.3-11.2 16.2-14.5l7.3 2.6 6.5 13.8-2.6 7.2c-1.5.7-2.7 1.6-3.8 2.8s-1.9 2.6-2.5 4.1l-.1.1c-.2.6-.4 1.1-.4 1.7-.1.7-.2 1.4-.2 2.2 0 1.9.4 3.7 1.1 5.5 1 2.3 2.1 4.7 3.2 7 .2.4.4.7.5 1.1l.3.4c.2.5.5 1 .7 1.5l.6 1.2.1.2c.9 2 1.6 4 2.2 6s1 4.1 1.2 6.2c.1.7.1 1.4.2 2.1 0 .7.1 1.4.1 2.1-.1 7.2-2.1 14.1-5.9 20.3-3.9 6.4-9.3 11.3-16.3 14.6z" fill="#e57430"/><path d="M194 162.4l-3.8-1.6-6.2-6.2-6.2 6.2-3.8 1.6h-15.2l-3.8-1.6-1.8-1.8-1.8 1.8-3.8 1.6h-15.3l-3.8-1.6-8.4-8.4-1.6-3.8V70.9l1.6-3.8 8.4-8.4 3.8-1.6h1.8c2.3 0 4.5 0 6.6.1 2.5 0 5.1.2 7.6.6 2.2.2 4.4.6 6.5 1.1l.2-.2 3.8-1.6h8.8c15.2 0 28.5 5.5 39.3 16.3s16.3 24 16.3 39.3v35.9l-1.6 3.8-8.4 8.4-3.8 1.6z" fill="#fff"/><path d="M194 154l-5.4-5.4v-35.9c0-4.9-1.5-9.1-4.4-13-1.4-1.8-3-3.3-4.8-4.5v53.4L174 154h-15.2l-5.4-5.4v-53c-.1-.1-.3-.2-.4-.3v53.2l-5.4 5.4h-15.3l-5.4-5.4V70.9l5.4-5.4h1.8c2.2 0 4.4 0 6.5.1 2.2 0 4.5.2 6.7.5 2.2.2 4.5.7 6.7 1.3.8.2 1.5.4 2.3.7l2.5-2.5h8.8c12.9 0 24.2 4.7 33.4 13.9s13.9 20.4 13.9 33.4v35.9l-5.4 5.4H194z" fill="#e57430"/><path d="M26.8 242l-3.9-1.6-8.4-8.4-1.5-3.8v-46.7l-8-7.9-1.5-3.8v-14.3l1.5-3.9 8.4-8.3 3.9-1.6h33.4l3.8 1.6 8.4 8.3 1.6 3.9v14.3l-1.6 3.8-8 8v46.6l-1.6 3.8-8.4 8.4-3.8 1.6z" fill="#fff"/><path d="M26.8 233.6l-5.5-5.4v-53h-4l-5.5-5.4v-14.3l5.5-5.5h33.4l5.4 5.5v14.3l-5.4 5.4h-4.2v53l-5.4 5.4z" fill="#e57430"/><path d="M76.4 241.9c-8 0-15.2-3-20.9-8.6-5.8-5.7-8.8-12.9-8.8-21v-.2c-2.5-2.5-4.6-5.4-6.4-8.5-3.6-6.2-5.4-13.1-5.4-20.5 0-11.4 4.1-21.2 12.1-29.3 8.1-8.1 17.9-12.1 29.4-12.1h7.9l3.8 1.6 8.4 8.4 1.6 3.8v14.2l-1.6 3.8-8.4 8.4-2.8 1.1 2.8 1.1 8.4 8.4 1.6 3.8v14.2l-.7 1.6.7 1.6v14.2l-1.6 3.8-8.4 8.4-3.8 1.6h-7.9z" fill="#fff"/><path d="M76.4 233.5c-5.8 0-10.8-2.1-15-6.2s-6.3-9.2-6.3-15c0-1.2.1-2.4.3-3.5-3.1-2.6-5.7-5.7-7.8-9.3-2.8-4.9-4.3-10.4-4.3-16.3 0-9.1 3.3-16.9 9.7-23.3s14.3-9.7 23.4-9.7h7.9l5.4 5.4v14.2l-5.4 5.4h-7.9c-2.2 0-4.1.7-5.7 2.4-1.6 1.6-2.4 3.4-2.4 5.6s.7 4 2.1 5.8c1.2 1.5 2.5 2.1 4.2 2.1h9.6l5.4 5.4v14.2l-1.6 1.6 1.6 1.6v14.2l-5.4 5.4z" fill="#e57430"/><path d="M121.1 241.9l-3.8-1.6-6.5-6.5-6.5 6.5-3.8 1.6H86.2l-3.8-1.6-8.4-8.4-1.6-3.8v-71.8l1.4-3.7 7.7-8.3 3.6-1.7 9.3-.7h1c14.7 0 27.4 5.3 37.9 15.7 10.4 10.5 15.7 23.2 15.7 37.9v32.7l-1.6 3.8-8.4 8.4-3.8 1.6h-14.1z" fill="#fff"/><path d="M121.1 233.5l-5.4-5.4v-7.6h-9.9v7.6l-5.4 5.4H86.2l-5.4-5.4v-71.8l5-5.4 9.3-.7h.4c12.4 0 23.1 4.5 32 13.3 8.8 8.8 13.3 19.6 13.3 32v32.7l-5.4 5.4h-14.3zm-5.4-38c0-5-1.5-9.1-4.6-12.9-1.6-1.9-3.3-3.4-5.3-4.5v17.4z" fill="#e57430"/><path d="M194.7 241.9l-3.8-1.6-1.4-1.4-1.4 1.4-3.8 1.6H170l-3.8-1.6-5.5-5.5-5.5 5.5-3.8 1.6H137l-3.8-1.6-8.4-8.4-1.6-3.8v-33.5c0-14.5 5.2-27 15.5-37.3s22.8-15.5 37.3-15.5h8.2l3.8 1.6c1.9-.5 3.9-.8 5.9-1 2.4-.3 4.8-.5 7.2-.5 2 0 4.1-.1 6.2-.1h1.7l3.8 1.6 8.4 8.4 1.6 3.8v72.5l-1.6 3.8-8.4 8.4-3.8 1.6z" fill="#fff"/><g fill="#e57430"><path d="M194.7 233.5l-5.3-5.3-5.3 5.3H170l-5.4-5.4V179c-1.4 1-2.6 2.3-3.8 3.7-2.8 3.5-4.1 7.4-4.1 11.9v33.5l-5.4 5.4H137l-5.4-5.4v-33.5c0-12.2 4.4-22.7 13-31.4 8.7-8.7 19.2-13 31.4-13h8.2l2.4 2.4c.7-.2 1.4-.4 2-.6 2.1-.6 4.2-1 6.3-1.2 2.1-.3 4.2-.5 6.3-.5 1.9 0 4-.1 6.1-.1h1.7l5.4 5.4v72.5l-5.4 5.4zM39.6 70.9c-8.4 0-15.7-3-21.7-9s-9-13.3-9-21.7 3-15.7 9-21.7 13.3-9 21.7-9c3 0 5.9.4 8.8 1.3 2.8.9 5.5 2.1 8 3.8l2.4 11.6-4.6 7-11.8 2.3c-.4-.3-.8-.4-1.2-.6-.6-.2-1.1-.2-1.7-.2-1.6 0-2.8.5-4 1.6s-1.6 2.3-1.6 4c0 1.6.5 2.8 1.7 4s2.3 1.7 3.9 1.7c.6 0 1.1-.1 1.6-.2.5-.2 1-.4 1.5-.8l11.6 2 4.8 6.8-2 11.7c-2.6 1.8-5.4 3.2-8.4 4.2-2.8.8-5.8 1.2-9 1.2z"/><path d="M39.6 62.5c2.3 0 4.5-.3 6.7-1s4.2-1.7 6.1-3l-4.8-6.8c-1.2.8-2.4 1.4-3.8 1.9-1.3.4-2.7.6-4.2.6-3.9 0-7.2-1.4-9.9-4.1s-4.1-6.1-4.1-9.9c0-3.9 1.4-7.2 4.1-9.9s6-4.1 9.9-4.1c1.4 0 2.7.2 4 .6s2.5.9 3.7 1.7l4.6-7c-1.8-1.2-3.8-2.1-5.8-2.7-2.1-.6-4.2-.9-6.4-.9-6.2 0-11.4 2.2-15.8 6.6s-6.6 9.6-6.6 15.8 2.2 11.4 6.6 15.8c4.3 4.3 9.6 6.4 15.7 6.4z"/><path d="M72.6 69.9L66 66.8l-.4-.6-3.7 3.7h-8.4l-8.4-8.4V19.1l8.4-8.4h4.2c7.2 0 13.4 2.6 17.9 7.6l7.6-7.6h8.4l8.4 8.4v42.4l-8.4 8.4h-8.3v.1H72.6z"/><path d="M61.9 48.1l10.7 13.5h10.7v-.1h8.4V19.1h-8.4v42.4L70.4 45.3c1.2-1.5 2.2-3.1 2.7-4.8.6-1.7.8-3.5.8-5.2 0-4.1-1.5-7.9-4.4-11.2-2.9-3.4-6.9-5-11.8-5h-4.2v42.5h8.4zm0-19.5c1.2.7 2.1 1.6 2.7 2.7s.9 2.2 1 3.3v.4c0 1.3-.3 2.5-.9 3.7s-1.6 2.2-2.8 3.1z"/><path d="M98.5 69.9l-8.3-8.4V32.9l-5.6-5.5V19l8.4-8.4h19.5l8.4 8.4v8.4l-5.6 5.6v28.5l-8.4 8.4z"/><path d="M98.5 61.5h8.4V27.4h5.6V19H93v8.4h5.5z"/><path d="M114.3 69.9l-8.3-8.4V19.1l8.3-8.4h8.4l8.4 8.4v42.4l-8.4 8.4z"/><path d="M114.3 19.1h8.4v42.4h-8.4z"/><path d="M147 70.9c-8.4 0-15.7-3-21.7-9s-9-13.3-9-21.7 3-15.7 9-21.7 13.3-9 21.7-9l8.4 8.4V21h1.2l8.4 8.4v31.3l-6.5 8.2s-.1 0-.1.1c-.7.3-1.5.5-2.4.7l-.4.1-.8.2-.5.1c-1.1.3-2.3.5-3.4.6-1.3.1-2.6.2-3.9.2z"/><path d="M147 62.5c.9 0 1.9-.1 2.7-.2.9-.1 1.8-.3 2.6-.5.3-.1.5-.2.8-.2.3-.1.5-.1.8-.2.5-.1 1-.3 1.4-.4.4-.2.8-.3 1.2-.4V29.4h-15v8.4h6.7v16.4c-.2 0-.4.1-.6.1h-.6c-3.9 0-7.2-1.4-9.9-4.1s-4.1-6-4.1-9.9 1.4-7.2 4.1-9.9 6-4.1 9.9-4.1V18c-6.1 0-11.4 2.2-15.8 6.6s-6.6 9.6-6.6 15.8c0 6.1 2.2 11.4 6.6 15.7s9.7 6.4 15.8 6.4z"/><path d="M174.1 69.9c-4.7 0-9-1.8-12.4-5.1-3.4-3.4-5.2-7.7-5.2-12.4-1.4-1.5-2.7-3.1-3.7-4.9-2.1-3.7-3.2-7.8-3.2-12.1 0-6.6 2.5-12.6 7.2-17.3s10.7-7.2 17.4-7.2h4.6l8.4 8.4v8.3l-7.8 7.8 7.8 7.8v8.3l-.9.9.9.9v8.3l-8.4 8.4h-4.7z"/><path d="M165.4 48.9c-.2.5-.4 1-.5 1.6s-.2 1.1-.2 1.7c0 2.5.9 4.7 2.7 6.5s4 2.7 6.6 2.7h4.6v-8.3H174c-.3 0-.5-.1-.7-.3s-.3-.4-.3-.6c0-.3.1-.5.2-.6s.2-.2.4-.3c.1 0 .2-.1.3-.1h4.8V43h-5.6c-2 0-3.6-.8-4.9-2.4s-2-3.4-2-5.4c0-2.2.8-4 2.3-5.6 1.6-1.5 3.4-2.3 5.6-2.3h4.6V19h-4.6c-4.5 0-8.3 1.6-11.5 4.7-3.2 3.2-4.7 7-4.7 11.4 0 2.9.7 5.5 2.1 7.9 1.4 2.5 3.2 4.5 5.4 5.9z"/><path d="M199.4 69.9l-5.5-5.5-5.5 5.5h-8.3l-8.4-8.4V19.1l8.4-8.4c2.9 0 5.7.1 8.3.3 2.9.2 5.7.9 8.5 2.1l2.4-2.4h8.4l8.4 8.4v42.4l-8.4 8.4z"/><path d="M188.4 27.9c3.2.8 5.9 2.5 7.9 5.1s3 5.6 3 8.9v19.6h8.4V19.1h-8.4v5.2c-.7-.6-1.5-1.2-2.3-1.6-.8-.5-1.5-.9-2.3-1.3-2.3-1.1-4.7-1.8-7.1-2s-4.9-.3-7.6-.3v42.4h8.3V27.9zM60.6 158.6c-13.5 0-25.2-4.9-34.8-14.4-9.6-9.6-14.5-21.3-14.5-34.8s4.9-25.3 14.5-34.9 21.3-14.4 34.8-14.4S85.9 65 95.5 74.6 110 95.9 110 109.5c0 13.5-4.9 25.2-14.5 34.7-9.7 9.6-21.4 14.4-34.9 14.4zm0-66.5c-4.9 0-8.7 1.6-12.2 5.1s-5.1 7.4-5.1 12.3 1.6 8.7 5 12.2c3.4 3.4 7.3 5.1 12.2 5.1s8.8-1.6 12.3-5.1c3.5-3.4 5.1-7.3 5.1-12.2s-1.6-8.8-5.1-12.2c-3.5-3.6-7.4-5.2-12.2-5.2z"/><path d="M60.6 68.5c-11.2 0-20.8 4-28.9 12-8 8-12.1 17.6-12.1 28.9 0 11.2 4 20.8 12.1 28.8 8 8 17.7 12 28.9 12 11.3 0 20.9-4 28.9-12s12-17.6 12-28.8c0-11.3-4-20.9-12-28.9s-17.7-12-28.9-12zm18.1 59.1c-5 5-11.1 7.5-18.2 7.5s-13.1-2.5-18.1-7.5-7.5-11-7.5-18.1 2.5-13.1 7.5-18.2c5-5 11-7.6 18.1-7.6s13.1 2.5 18.2 7.6c5 5 7.6 11.1 7.6 18.2 0 7-2.5 13.1-7.6 18.1z"/><path d="M102 159.9l-6.5-13.6 3.9-11.1c1.8-.9 3.1-2 4.1-3.7s1.5-3.4 1.5-5.2c0-.3 0-.6-.1-.9 0-.3-.1-.7-.2-1l-.3-.9c-.1-.4-.3-.8-.5-1.2l-5.4-11.2c-.9-1.9-1.6-3.8-2.2-5.7-.6-2-1.1-4.1-1.4-6.1v-.4l-.2-2.4c-.1-1-.1-2.1-.1-3.1 0-7.8 2.1-15.1 6.3-21.9s10.1-12.1 17.4-15.6l11.2 4 6.5 13.8-4 11.2c-1.1.5-2.1 1.2-2.9 2.1s-1.5 2-1.9 3.2l-.1.2c-.1.4-.2.7-.3 1-.1.6-.1 1.1-.1 1.7 0 1.5.3 2.9.9 4.3 1 2.3 2 4.6 3.2 6.8.2.4.4.8.5 1.1l.2.4c.3.5.5 1 .8 1.6.2.4.4.8.5 1.1l.1.3c1 2.1 1.8 4.2 2.4 6.4s1.1 4.4 1.3 6.6c.1.7.2 1.5.2 2.3s.1 1.6.1 2.3v.1c-.1 7.7-2.2 15-6.3 21.8-4.2 6.9-10.1 12.1-17.5 15.7z"/><path d="M103 142.7l6.5 13.6c6-2.9 10.7-7 14-12.5s5-11.3 5.1-17.5c0-.6 0-1.2-.1-1.8 0-.6-.1-1.2-.2-1.8-.2-1.8-.6-3.6-1.1-5.3-.5-1.8-1.1-3.5-1.9-5.2-.2-.4-.4-.9-.6-1.3-.2-.5-.4-.9-.6-1.3-.1-.2-.3-.4-.4-.7-.1-.2-.2-.5-.4-.8-1.2-2.4-2.3-4.9-3.4-7.3-1-2.4-1.6-5-1.6-7.6 0-1 .1-2 .2-2.9.1-1 .4-1.9.8-2.8.8-2.2 2-4.2 3.5-5.9 1.6-1.8 3.4-3.1 5.6-4.1l-6.4-14c-5.9 2.9-10.6 7-13.9 12.5-3.4 5.5-5 11.3-5 17.5 0 .8 0 1.6.1 2.4s.1 1.6.2 2.4c.2 1.6.6 3.1 1.1 4.7s1.1 3.1 1.8 4.7l5.4 11.1c.3.6.5 1.3.8 1.9.2.6.4 1.2.5 1.9.1.6.2 1.3.3 1.9s.1 1.2.1 1.9c0 3.4-.9 6.5-2.7 9.5-2 2.9-4.5 5.2-7.7 6.8z"/><path d="M194 156.9l-8.4-8.4v-35.9c0-3.9-1.1-7.3-3.3-10.5v46.4l-8.4 8.4h-15.2l-5.6-5.6-5.6 5.6h-15.3l-8.4-8.4V70.9l8.4-8.4h1.8c2.3 0 4.4 0 6.5.1 2.3 0 4.7.2 7 .5 2.4.3 4.8.7 7.1 1.3.5.1 1.1.3 1.6.5l2.4-2.4h8.8c13.7 0 25.7 5 35.4 14.7 9.8 9.8 14.7 21.7 14.7 35.4v35.9l-8.4 8.4z"/><path d="M197 83.1c-8.2-8.2-18-12.3-29.5-12.3h-8.8v4c-2.1-1-4.2-1.8-6.2-2.3s-4-.9-6-1.1c-2.1-.3-4.1-.4-6.2-.5-2 0-4.2-.1-6.4-.1h-1.8v77.7h15.3V86.9c2.1.5 4.1 1.3 6 2.4s3.7 2.3 5.3 3.8v55.5h15.2V86.9c5.9 1.5 10.8 4.6 14.5 9.4s5.6 10.2 5.6 16.3v35.9h15.3v-35.9c0-11.4-4.1-21.3-12.3-29.5zM26.8 236.6l-8.4-8.4v-50.1h-1.1l-8.4-8.3v-14.3l8.4-8.4h33.4l8.3 8.4v14.3l-8.3 8.3h-1.3v50.1l-8.3 8.4z"/><path d="M50.7 155.5H17.3v14.3h9.5v58.4h14.3v-58.4h9.6z"/><path d="M76.4 236.5c-6.5 0-12.4-2.4-17.1-7.1s-7.2-10.6-7.2-17.1c0-.8 0-1.6.1-2.3-2.8-2.6-5.3-5.6-7.3-9-3.1-5.4-4.7-11.3-4.7-17.7 0-9.9 3.6-18.4 10.6-25.4s15.6-10.6 25.5-10.6h7.9l8.4 8.4v14.2l-8.4 8.4h-7.9c-1.5 0-2.5.4-3.7 1.5-1 1-1.5 2-1.5 3.5s.4 2.7 1.4 3.9c.8 1 1.4 1.1 2 1.1h9.6l8.4 8.4v14.2l-1.6 1.6 1.6 1.6v14.2l-8.4 8.4h-7.7z"/><path d="M56.8 163.7c-5.4 5.4-8.1 11.9-8.1 19.5 0 4.9 1.2 9.5 3.6 13.6s5.5 7.4 9.4 9.9c-.3.9-.6 1.8-.8 2.8s-.3 2-.3 3c0 4.3 1.6 8.1 4.7 11.2s6.9 4.7 11.2 4.7h7.9v-14.2h-7.9c-.5 0-.9-.2-1.2-.5s-.5-.7-.5-1.1c0-.5.1-.8.3-1.1.2-.2.4-.4.6-.5.1-.1.3-.1.5-.1h8.2v-14.2h-9.6c-3.3 0-6.1-1.4-8.4-4.1s-3.4-5.8-3.4-9.3c0-3.7 1.3-6.9 4-9.5s5.8-3.9 9.5-3.9h7.9v-14.2h-7.9c-7.8-.1-14.3 2.6-19.7 8z"/><path d="M121.1 236.5l-8.4-8.4v-4.6h-4v4.6l-8.4 8.4H86.2l-8.4-8.4v-71.8l7.7-8.3 9.3-.7h.6c13.2 0 24.6 4.8 34 14.2s14.2 20.8 14.2 34v32.7l-8.4 8.4h-14.1zm-8.6-44c-.5-3-1.7-5.6-3.7-8v8.1h3.7z"/><path d="M95.5 155.6l-9.3.7v71.8h14.2v-13h20.7v13h14.2v-32.7c0-10.9-3.9-20.3-11.7-28.1s-17.2-11.7-28.1-11.7zm25.6 45.3h-20.7v-30.5c6 1.1 11 4.1 14.9 8.8s5.9 10.1 5.9 16.3v5.4z"/><path d="M194.7 236.5l-5.3-5.3-5.3 5.3H170l-8.4-8.4v-41.3c-1.3 2.4-2 4.9-2 7.8v33.5l-8.4 8.4H137l-8.4-8.4v-33.5c0-13 4.7-24.3 13.9-33.5s20.5-13.9 33.5-13.9h8.2l2.2 2.2c.5-.1.9-.3 1.4-.4 2.2-.6 4.5-1 6.8-1.3 2.2-.3 4.4-.5 6.6-.5 2 0 4-.1 6.1-.1h1.7l8.4 8.4V228l-8.4 8.4h-14.3z"/><path d="M207.4 155.6h-6c-1.9 0-3.8.2-5.8.5-1.9.2-3.7.6-5.6 1.1s-3.8 1.2-5.8 2.2v-3.7H176c-10.7 0-19.9 3.8-27.6 11.5-7.6 7.6-11.5 16.8-11.5 27.6v33.5h14.3v-33.5c0-5.7 1.8-10.7 5.3-15.2s8-7.4 13.5-8.8v57.5h14.2v-51.8c1.5-1.3 3.2-2.5 5-3.5s3.6-1.7 5.6-2.2v57.5h14.3v-72.5h-.9c-.3-.2-.6-.2-.8-.2z"/></g><path d="M39.6 70.9c-8.4 0-15.7-3-21.7-9s-9-13.3-9-21.7 3-15.7 9-21.7 13.3-9 21.7-9c3 0 5.9.4 8.8 1.3 2.8.9 5.5 2.1 8 3.8l2.4 11.6-4.6 7-11.8 2.3c-.4-.3-.8-.4-1.2-.6-.6-.2-1.1-.2-1.7-.2-1.6 0-2.8.5-4 1.6s-1.6 2.3-1.6 4c0 1.6.5 2.8 1.7 4s2.3 1.7 3.9 1.7c.6 0 1.1-.1 1.6-.2.5-.2 1-.4 1.5-.8l11.6 2 4.8 6.8-2 11.7c-2.6 1.8-5.4 3.2-8.4 4.2-2.8.8-5.8 1.2-9 1.2z" fill="#543425"/><path d="M39.6 62.5c2.3 0 4.5-.3 6.7-1s4.2-1.7 6.1-3l-4.8-6.8c-1.2.8-2.4 1.4-3.8 1.9-1.3.4-2.7.6-4.2.6-3.9 0-7.2-1.4-9.9-4.1s-4.1-6.1-4.1-9.9c0-3.9 1.4-7.2 4.1-9.9s6-4.1 9.9-4.1c1.4 0 2.7.2 4 .6s2.5.9 3.7 1.7l4.6-7c-1.8-1.2-3.8-2.1-5.8-2.7-2.1-.6-4.2-.9-6.4-.9-6.2 0-11.4 2.2-15.8 6.6s-6.6 9.6-6.6 15.8 2.2 11.4 6.6 15.8c4.3 4.3 9.6 6.4 15.7 6.4z" fill="#543425"/><path d="M72.6 69.9L66 66.8l-.4-.6-3.7 3.7h-8.4l-8.4-8.4V19.1l8.4-8.4h4.2c7.2 0 13.4 2.6 17.9 7.6l7.6-7.6h8.4l8.4 8.4v42.4l-8.4 8.4h-8.3v.1H72.6z" fill="#543425"/><path d="M61.9 48.1l10.7 13.5h10.7v-.1h8.4V19.1h-8.4v42.4L70.4 45.3c1.2-1.5 2.2-3.1 2.7-4.8.6-1.7.8-3.5.8-5.2 0-4.1-1.5-7.9-4.4-11.2-2.9-3.4-6.9-5-11.8-5h-4.2v42.5h8.4zm0-19.5c1.2.7 2.1 1.6 2.7 2.7s.9 2.2 1 3.3v.4c0 1.3-.3 2.5-.9 3.7s-1.6 2.2-2.8 3.1z" fill="#543425"/><path d="M98.5 69.9l-8.3-8.4V32.9l-5.6-5.5V19l8.4-8.4h19.5l8.4 8.4v8.4l-5.6 5.6v28.5l-8.4 8.4z" fill="#543425"/><path d="M98.5 61.5h8.4V27.4h5.6V19H93v8.4h5.5z" fill="#543425"/><path d="M114.3 69.9l-8.3-8.4V19.1l8.3-8.4h8.4l8.4 8.4v42.4l-8.4 8.4z" fill="#543425"/><path d="M114.3 19.1h8.4v42.4h-8.4z" fill="#543425"/><path d="M147 70.9c-8.4 0-15.7-3-21.7-9s-9-13.3-9-21.7 3-15.7 9-21.7 13.3-9 21.7-9l8.4 8.4V21h1.2l8.4 8.4v31.3l-6.5 8.2s-.1 0-.1.1c-.7.3-1.5.5-2.4.7l-.4.1-.8.2-.5.1c-1.1.3-2.3.5-3.4.6-1.3.1-2.6.2-3.9.2z" fill="#543425"/><path d="M147 62.5c.9 0 1.9-.1 2.7-.2.9-.1 1.8-.3 2.6-.5.3-.1.5-.2.8-.2.3-.1.5-.1.8-.2.5-.1 1-.3 1.4-.4.4-.2.8-.3 1.2-.4V29.4h-15v8.4h6.7v16.4c-.2 0-.4.1-.6.1h-.6c-3.9 0-7.2-1.4-9.9-4.1s-4.1-6-4.1-9.9 1.4-7.2 4.1-9.9 6-4.1 9.9-4.1V18c-6.1 0-11.4 2.2-15.8 6.6s-6.6 9.6-6.6 15.8c0 6.1 2.2 11.4 6.6 15.7s9.7 6.4 15.8 6.4z" fill="#543425"/><path d="M174.1 69.9c-4.7 0-9-1.8-12.4-5.1-3.4-3.4-5.2-7.7-5.2-12.4-1.4-1.5-2.7-3.1-3.7-4.9-2.1-3.7-3.2-7.8-3.2-12.1 0-6.6 2.5-12.6 7.2-17.3s10.7-7.2 17.4-7.2h4.6l8.4 8.4v8.3l-7.8 7.8 7.8 7.8v8.3l-.9.9.9.9v8.3l-8.4 8.4h-4.7z" fill="#543425"/><path d="M165.4 48.9c-.2.5-.4 1-.5 1.6s-.2 1.1-.2 1.7c0 2.5.9 4.7 2.7 6.5s4 2.7 6.6 2.7h4.6v-8.3H174c-.3 0-.5-.1-.7-.3s-.3-.4-.3-.6c0-.3.1-.5.2-.6s.2-.2.4-.3c.1 0 .2-.1.3-.1h4.8V43h-5.6c-2 0-3.6-.8-4.9-2.4s-2-3.4-2-5.4c0-2.2.8-4 2.3-5.6 1.6-1.5 3.4-2.3 5.6-2.3h4.6V19h-4.6c-4.5 0-8.3 1.6-11.5 4.7-3.2 3.2-4.7 7-4.7 11.4 0 2.9.7 5.5 2.1 7.9 1.4 2.5 3.2 4.5 5.4 5.9z" fill="#543425"/><path d="M199.4 69.9l-5.5-5.5-5.5 5.5h-8.3l-8.4-8.4V19.1l8.4-8.4c2.9 0 5.7.1 8.3.3 2.9.2 5.7.9 8.5 2.1l2.4-2.4h8.4l8.4 8.4v42.4l-8.4 8.4z" fill="#543425"/><path d="M188.4 27.9c3.2.8 5.9 2.5 7.9 5.1s3 5.6 3 8.9v19.6h8.4V19.1h-8.4v5.2c-.7-.6-1.5-1.2-2.3-1.6-.8-.5-1.5-.9-2.3-1.3-2.3-1.1-4.7-1.8-7.1-2s-4.9-.3-7.6-.3v42.4h8.3V27.9zM60.6 158.6c-13.5 0-25.2-4.9-34.8-14.4-9.6-9.6-14.5-21.3-14.5-34.8s4.9-25.3 14.5-34.9 21.3-14.4 34.8-14.4S85.9 65 95.5 74.6 110 95.9 110 109.5c0 13.5-4.9 25.2-14.5 34.7-9.7 9.6-21.4 14.4-34.9 14.4zm0-66.5c-4.9 0-8.7 1.6-12.2 5.1s-5.1 7.4-5.1 12.3 1.6 8.7 5 12.2c3.4 3.4 7.3 5.1 12.2 5.1s8.8-1.6 12.3-5.1c3.5-3.4 5.1-7.3 5.1-12.2s-1.6-8.8-5.1-12.2c-3.5-3.6-7.4-5.2-12.2-5.2z" fill="#543425"/><path d="M60.6 68.5c-11.2 0-20.8 4-28.9 12-8 8-12.1 17.6-12.1 28.9 0 11.2 4 20.8 12.1 28.8 8 8 17.7 12 28.9 12 11.3 0 20.9-4 28.9-12s12-17.6 12-28.8c0-11.3-4-20.9-12-28.9s-17.7-12-28.9-12zm18.1 59.1c-5 5-11.1 7.5-18.2 7.5s-13.1-2.5-18.1-7.5-7.5-11-7.5-18.1 2.5-13.1 7.5-18.2c5-5 11-7.6 18.1-7.6s13.1 2.5 18.2 7.6c5 5 7.6 11.1 7.6 18.2 0 7-2.5 13.1-7.6 18.1z" fill="#543425"/><path d="M102 159.9l-6.5-13.6 3.9-11.1c1.8-.9 3.1-2 4.1-3.7s1.5-3.4 1.5-5.2c0-.3 0-.6-.1-.9 0-.3-.1-.7-.2-1l-.3-.9c-.1-.4-.3-.8-.5-1.2l-5.4-11.2c-.9-1.9-1.6-3.8-2.2-5.7-.6-2-1.1-4.1-1.4-6.1v-.4l-.2-2.4c-.1-1-.1-2.1-.1-3.1 0-7.8 2.1-15.1 6.3-21.9s10.1-12.1 17.4-15.6l11.2 4 6.5 13.8-4 11.2c-1.1.5-2.1 1.2-2.9 2.1s-1.5 2-1.9 3.2l-.1.2c-.1.4-.2.7-.3 1-.1.6-.1 1.1-.1 1.7 0 1.5.3 2.9.9 4.3 1 2.3 2 4.6 3.2 6.8.2.4.4.8.5 1.1l.2.4c.3.5.5 1 .8 1.6.2.4.4.8.5 1.1l.1.3c1 2.1 1.8 4.2 2.4 6.4s1.1 4.4 1.3 6.6c.1.7.2 1.5.2 2.3s.1 1.6.1 2.3v.1c-.1 7.7-2.2 15-6.3 21.8-4.2 6.9-10.1 12.1-17.5 15.7z" fill="#543425"/><path d="M103 142.7l6.5 13.6c6-2.9 10.7-7 14-12.5s5-11.3 5.1-17.5c0-.6 0-1.2-.1-1.8 0-.6-.1-1.2-.2-1.8-.2-1.8-.6-3.6-1.1-5.3-.5-1.8-1.1-3.5-1.9-5.2-.2-.4-.4-.9-.6-1.3-.2-.5-.4-.9-.6-1.3-.1-.2-.3-.4-.4-.7-.1-.2-.2-.5-.4-.8-1.2-2.4-2.3-4.9-3.4-7.3-1-2.4-1.6-5-1.6-7.6 0-1 .1-2 .2-2.9.1-1 .4-1.9.8-2.8.8-2.2 2-4.2 3.5-5.9 1.6-1.8 3.4-3.1 5.6-4.1l-6.4-14c-5.9 2.9-10.6 7-13.9 12.5-3.4 5.5-5 11.3-5 17.5 0 .8 0 1.6.1 2.4s.1 1.6.2 2.4c.2 1.6.6 3.1 1.1 4.7s1.1 3.1 1.8 4.7l5.4 11.1c.3.6.5 1.3.8 1.9.2.6.4 1.2.5 1.9.1.6.2 1.3.3 1.9s.1 1.2.1 1.9c0 3.4-.9 6.5-2.7 9.5-2 2.9-4.5 5.2-7.7 6.8z" fill="#543425"/><path d="M194 156.9l-8.4-8.4v-35.9c0-3.9-1.1-7.3-3.3-10.5v46.4l-8.4 8.4h-15.2l-5.6-5.6-5.6 5.6h-15.3l-8.4-8.4V70.9l8.4-8.4h1.8c2.3 0 4.4 0 6.5.1 2.3 0 4.7.2 7 .5 2.4.3 4.8.7 7.1 1.3.5.1 1.1.3 1.6.5l2.4-2.4h8.8c13.7 0 25.7 5 35.4 14.7 9.8 9.8 14.7 21.7 14.7 35.4v35.9l-8.4 8.4z" fill="#543425"/><path d="M197 83.1c-8.2-8.2-18-12.3-29.5-12.3h-8.8v4c-2.1-1-4.2-1.8-6.2-2.3s-4-.9-6-1.1c-2.1-.3-4.1-.4-6.2-.5-2 0-4.2-.1-6.4-.1h-1.8v77.7h15.3V86.9c2.1.5 4.1 1.3 6 2.4s3.7 2.3 5.3 3.8v55.5h15.2V86.9c5.9 1.5 10.8 4.6 14.5 9.4s5.6 10.2 5.6 16.3v35.9h15.3v-35.9c0-11.4-4.1-21.3-12.3-29.5zM26.8 236.6l-8.4-8.4v-50.1h-1.1l-8.4-8.3v-14.3l8.4-8.4h33.4l8.3 8.4v14.3l-8.3 8.3h-1.3v50.1l-8.3 8.4z" fill="#543425"/><path d="M50.7 155.5H17.3v14.3h9.5v58.4h14.3v-58.4h9.6z" fill="#543425"/><path d="M76.4 236.5c-6.5 0-12.4-2.4-17.1-7.1s-7.2-10.6-7.2-17.1c0-.8 0-1.6.1-2.3-2.8-2.6-5.3-5.6-7.3-9-3.1-5.4-4.7-11.3-4.7-17.7 0-9.9 3.6-18.4 10.6-25.4s15.6-10.6 25.5-10.6h7.9l8.4 8.4v14.2l-8.4 8.4h-7.9c-1.5 0-2.5.4-3.7 1.5-1 1-1.5 2-1.5 3.5s.4 2.7 1.4 3.9c.8 1 1.4 1.1 2 1.1h9.6l8.4 8.4v14.2l-1.6 1.6 1.6 1.6v14.2l-8.4 8.4h-7.7z" fill="#543425"/><path d="M56.8 163.7c-5.4 5.4-8.1 11.9-8.1 19.5 0 4.9 1.2 9.5 3.6 13.6s5.5 7.4 9.4 9.9c-.3.9-.6 1.8-.8 2.8s-.3 2-.3 3c0 4.3 1.6 8.1 4.7 11.2s6.9 4.7 11.2 4.7h7.9v-14.2h-7.9c-.5 0-.9-.2-1.2-.5s-.5-.7-.5-1.1c0-.5.1-.8.3-1.1.2-.2.4-.4.6-.5.1-.1.3-.1.5-.1h8.2v-14.2h-9.6c-3.3 0-6.1-1.4-8.4-4.1s-3.4-5.8-3.4-9.3c0-3.7 1.3-6.9 4-9.5s5.8-3.9 9.5-3.9h7.9v-14.2h-7.9c-7.8-.1-14.3 2.6-19.7 8z" fill="#543425"/><path d="M121.1 236.5l-8.4-8.4v-4.6h-4v4.6l-8.4 8.4H86.2l-8.4-8.4v-71.8l7.7-8.3 9.3-.7h.6c13.2 0 24.6 4.8 34 14.2s14.2 20.8 14.2 34v32.7l-8.4 8.4h-14.1zm-8.6-44c-.5-3-1.7-5.6-3.7-8v8.1h3.7z" fill="#543425"/><path d="M95.5 155.6l-9.3.7v71.8h14.2v-13h20.7v13h14.2v-32.7c0-10.9-3.9-20.3-11.7-28.1s-17.2-11.7-28.1-11.7zm25.6 45.3h-20.7v-30.5c6 1.1 11 4.1 14.9 8.8s5.9 10.1 5.9 16.3v5.4z" fill="#543425"/><path d="M194.7 236.5l-5.3-5.3-5.3 5.3H170l-8.4-8.4v-41.3c-1.3 2.4-2 4.9-2 7.8v33.5l-8.4 8.4H137l-8.4-8.4v-33.5c0-13 4.7-24.3 13.9-33.5s20.5-13.9 33.5-13.9h8.2l2.2 2.2c.5-.1.9-.3 1.4-.4 2.2-.6 4.5-1 6.8-1.3 2.2-.3 4.4-.5 6.6-.5 2 0 4-.1 6.1-.1h1.7l8.4 8.4V228l-8.4 8.4h-14.3z" fill="#543425"/><path d="M207.4 155.6h-6c-1.9 0-3.8.2-5.8.5-1.9.2-3.7.6-5.6 1.1s-3.8 1.2-5.8 2.2v-3.7H176c-10.7 0-19.9 3.8-27.6 11.5-7.6 7.6-11.5 16.8-11.5 27.6v33.5h14.3v-33.5c0-5.7 1.8-10.7 5.3-15.2s8-7.4 13.5-8.8v57.5h14.2v-51.8c1.5-1.3 3.2-2.5 5-3.5s3.6-1.7 5.6-2.2v57.5h14.3v-72.5h-.9c-.3-.2-.6-.2-.8-.2z" fill="#543425"/><path d="M46.3 61.5c-2.2.7-4.4 1-6.7 1-6.2 0-11.4-2.2-15.8-6.5s-6.6-9.6-6.6-15.8 2.2-11.4 6.6-15.8 9.6-6.6 15.8-6.6c2.2 0 4.3.3 6.4.9s4 1.5 5.8 2.7l-4.6 7c-1.1-.8-2.3-1.4-3.7-1.7-1.3-.4-2.6-.6-4-.6-3.9 0-7.2 1.4-9.9 4.1s-4.1 6-4.1 9.9 1.4 7.2 4.1 9.9 6 4.1 9.9 4.1c1.4 0 2.8-.2 4.2-.6 1.3-.4 2.6-1.1 3.8-1.9l4.8 6.8c-1.8 1.5-3.8 2.5-6 3.1zm26.3 0L61.9 48.1v13.5h-8.4V19.1h4.2c5 0 8.9 1.7 11.8 5 2.9 3.4 4.4 7.1 4.4 11.2 0 1.8-.3 3.5-.8 5.2-.6 1.7-1.5 3.3-2.7 4.8l12.9 16.2zm-8-22.8c.6-1.2.9-2.5.9-3.7v-.4c-.1-1.1-.4-2.2-1-3.3s-1.5-2-2.7-2.7v13.2c1.3-.8 2.2-1.9 2.8-3.1z" fill="#f6b30b" stroke="#fff" stroke-miterlimit="10" stroke-width="1.058"/><path d="M83.2 61.5V19.1h8.4v42.4zm23.7-34.1v34.2h-8.4V27.4H93V19h19.5v8.4zm7.4 34.1V19.1h8.4v42.4zm41.1-.4c-.4.2-.9.3-1.4.4-.2 0-.5.1-.8.2s-.5.2-.8.2c-.9.2-1.7.4-2.6.5s-1.8.2-2.7.2c-6.1 0-11.4-2.2-15.8-6.6s-6.6-9.6-6.6-15.7c0-6.2 2.2-11.4 6.6-15.8s9.6-6.6 15.8-6.6v8.3c-3.9 0-7.2 1.4-9.9 4.1s-4.1 6.1-4.1 9.9c0 3.9 1.4 7.2 4.1 9.9s6 4.1 9.9 4.1h.6c.2 0 .4 0 .6-.1V37.7h-6.7v-8.4h15v31.3c-.4.2-.8.3-1.2.5zm18.7.4c-2.5 0-4.7-.9-6.6-2.7-1.8-1.8-2.7-4-2.7-6.5 0-.6.1-1.2.2-1.7.1-.6.3-1.1.5-1.6-2.3-1.4-4.1-3.4-5.5-5.8s-2.1-5-2.1-7.9c0-4.4 1.6-8.2 4.7-11.4 3.2-3.2 7-4.7 11.5-4.7h4.6v8.3h-4.6c-2.1 0-4 .8-5.6 2.3s-2.3 3.4-2.3 5.6c0 2 .7 3.8 2 5.4s3 2.4 4.9 2.4h5.6v8.3h-4.8c-.1 0-.2 0-.3.1-.1 0-.2.1-.4.3-.1.1-.2.3-.2.6 0 .2.1.4.3.6s.4.3.7.3h4.6v8.3h-4.5zm25.3 0V41.9c0-3.3-1-6.3-3-8.9s-4.7-4.3-7.9-5.1v33.6h-8.3V19.1c2.7 0 5.2.1 7.6.3s4.8.9 7.1 2c.7.4 1.5.8 2.3 1.3s1.5 1 2.3 1.6v-5.2h8.4v42.4z" fill="#f6b30b" stroke="#fff" stroke-miterlimit="10" stroke-width="1.058"/><path d="M89.5 138.3c-8 8-17.6 12-28.9 12-11.2 0-20.8-4-28.9-12-8-8-12.1-17.6-12.1-28.8 0-11.3 4-20.9 12.1-28.9 8-8 17.7-12 28.9-12 11.3 0 20.9 4 28.9 12s12 17.6 12 28.9c0 11.2-4 20.8-12 28.8zm-10.8-47c-5-5-11.1-7.6-18.2-7.6s-13.1 2.5-18.1 7.6c-5 5-7.5 11.1-7.5 18.2s2.5 13.1 7.5 18.1 11 7.5 18.1 7.5 13.1-2.5 18.2-7.5c5-5 7.6-11 7.6-18.1s-2.5-13.2-7.6-18.2zm39.9-1.1c-.1 1-.2 1.9-.2 2.9 0 2.6.5 5.2 1.6 7.6 1 2.4 2.2 4.9 3.4 7.3.1.3.3.6.4.8.1.3.2.5.4.7.2.4.4.9.6 1.3.2.5.4.9.6 1.3.8 1.7 1.4 3.4 1.9 5.2s.9 3.5 1.1 5.3c.1.6.1 1.2.2 1.8 0 .6.1 1.2.1 1.8-.1 6.2-1.8 12.1-5.1 17.5-3.3 5.5-8 9.6-14 12.5l-6.5-13.6c3.2-1.6 5.7-3.9 7.6-6.9 1.8-3 2.7-6.2 2.7-9.5 0-.6 0-1.3-.1-1.9s-.2-1.2-.3-1.9c-.1-.6-.3-1.3-.5-1.9s-.5-1.2-.8-1.9l-5.4-11.1c-.7-1.6-1.3-3.1-1.8-4.7s-.9-3.1-1.1-4.7c-.1-.8-.1-1.6-.2-2.4s-.1-1.6-.1-2.4c0-6.2 1.7-12.1 5-17.5 3.4-5.5 8-9.6 13.9-12.5l6.5 13.8c-2.1 1-4 2.4-5.6 4.1-1.6 1.8-2.8 3.7-3.5 5.9-.4 1.2-.6 2.1-.8 3.1zm75.4 58.4v-35.9c0-6.1-1.9-11.5-5.6-16.3s-8.5-7.9-14.5-9.4v61.6h-15.2V93c-1.6-1.4-3.3-2.7-5.3-3.8-1.9-1.1-3.9-1.9-6-2.4v61.6h-15.3V70.9h1.8c2.2 0 4.3 0 6.4.1 2 0 4.1.2 6.2.5 2 .2 4 .6 6 1.1s4.1 1.3 6.2 2.3v-4h8.8c11.5 0 21.3 4.1 29.5 12.3s12.3 18 12.3 29.5v35.9z" fill="#ff7900" stroke="#fff" stroke-miterlimit="10" stroke-width="1.058"/><path d="M50.7 155.5v14.3h-9.6v58.4H26.8v-58.4h-9.5v-14.3z" fill="#f6b30b" stroke="#fff" stroke-miterlimit="10" stroke-width="1.058"/><path d="M76.4 228.1c-4.3 0-8.1-1.6-11.2-4.7s-4.7-6.8-4.7-11.2c0-1 .1-2 .3-3s.5-1.9.8-2.8c-3.9-2.5-7-5.8-9.4-9.9s-3.6-8.6-3.6-13.6c0-7.6 2.7-14.1 8.1-19.5s11.9-8.1 19.6-8.1h7.9v14.2h-7.9c-3.7 0-6.8 1.3-9.5 3.9s-4 5.8-4 9.5c0 3.5 1.1 6.6 3.4 9.3s5.1 4.1 8.4 4.1h9.6v14.2H76c-.2 0-.3 0-.5.1s-.4.2-.6.5c-.2.2-.3.6-.3 1.1 0 .4.2.8.5 1.1s.7.5 1.2.5h7.9V228h-7.8zm44.7 0v-13h-20.7v13H86.2v-71.8l9.3-.7c10.9 0 20.3 3.9 28.1 11.7s11.7 17.2 11.7 28.1v32.7zm0-32.7c0-6.1-2-11.6-5.9-16.3s-8.9-7.6-14.9-8.8v30.5H121v-5.4zm73.6 32.7v-57.5c-1.9.5-3.8 1.2-5.6 2.2s-3.4 2.2-5 3.5v51.8H170v-57.5c-5.5 1.4-10 4.3-13.5 8.8s-5.3 9.5-5.3 15.2v33.5H137v-33.5c0-10.7 3.8-19.9 11.5-27.6 7.6-7.6 16.8-11.5 27.6-11.5h8.2v3.7c2-.9 3.9-1.7 5.8-2.2s3.7-.9 5.6-1.1c1.9-.3 3.9-.4 5.8-.5h7.8v72.5h-14.6z" fill="#f6b30b" stroke="#fff" stroke-miterlimit="10" stroke-width="1.058"/></svg>