<?xml version="1.0" encoding="UTF-8"?>
<svg width="48px" height="48px" viewBox="0 0 48 48" version="1.1" xmlns="http://www.w3.org/2000/svg" xmlns:xlink="http://www.w3.org/1999/xlink">
    <title>A0037980-2FF2-4E7C-8E65-08994B773CD2</title>
    <g id="OSM-Quality-Site" stroke="none" stroke-width="1" fill="none" fill-rule="evenodd">
        <g id="Quick-Stats-" transform="translate(-849.000000, -427.000000)">
            <g id="Group" transform="translate(824.000000, 143.000000)">
                <g id="Card-Content" transform="translate(24.000000, 24.000000)">
                    <g id="Road-Error" transform="translate(1.000000, 254.000000)">
                        <g id="Road" transform="translate(0.000000, 6.000000)">
                            <rect id="Rectangle" x="0" y="0" width="48" height="48"></rect>
                            <path d="M24.9641563,5.99724496 C25.7923611,5.97805583 26.4793097,6.63389266 26.4984988,7.46209752 L26.5361009,8.93952712 L26.5794579,10.3745076 L26.6285645,11.7670196 L26.6834155,13.1170438 C26.6930358,13.3385061 26.7028951,13.5581973 26.7129936,13.776117 L26.7764515,15.0623733 L26.845641,16.3060936 L26.9205567,17.5072585 L27.0011936,18.6658487 C27.0151095,18.8553981 27.0292636,19.0431728 27.0436558,19.2291723 L27.1328645,20.3238642 L27.2277814,21.3759331 L27.3284011,22.3853597 C27.362891,22.714726 27.3983304,23.0369821 27.4347186,23.3521246 L27.4900124,23.8195029 C27.6616477,25.2354943 27.9301143,26.8069786 28.2955043,28.5331812 L28.5263698,29.5874628 C28.6072024,29.9450746 28.6919127,30.3088689 28.7805014,30.6788395 L29.0579034,31.8072742 L29.3585802,32.9727297 C29.4626855,33.3673809 29.5706706,33.768196 29.6825364,34.1751688 L30.0297762,35.4145544 L30.4003042,36.6908491 C30.4639998,36.9066386 30.5286659,37.1239644 30.5943026,37.3428258 L30.9997711,38.6744147 L31.4285387,40.0428198 C31.6792886,40.8323868 31.242491,41.6757302 30.452924,41.92648 C29.663357,42.1772298 28.8200136,41.7404322 28.5692638,40.9508652 C28.4188824,40.4773407 28.2724358,40.0099151 28.1299248,39.548582 L27.7141992,38.1828547 C27.6468796,37.9582777 27.5805441,37.7352224 27.5151928,37.5136879 L27.1348956,36.2027246 C27.0734813,35.9872703 27.0130513,35.7733354 26.9536058,35.5609189 L26.6087469,34.304636 L26.2875191,33.0847602 C25.410855,29.6799871 24.8188015,26.7131683 24.5118111,24.1804971 L24.3998083,23.210907 L24.2937458,22.199205 C24.2765635,22.0270776 24.2596284,21.8531947 24.2429405,21.6775559 L24.1457787,20.6026498 L24.0545441,19.4855834 L23.9692316,18.3263374 L23.889836,17.1248926 L23.8163521,15.8812296 L23.7487747,14.595329 L23.6870986,13.2671717 L23.6313186,11.8967381 L23.5814296,10.4840091 L23.5374264,9.02896537 L23.4993037,7.53158748 C23.4801146,6.70338263 24.1359514,6.01643408 24.9641563,5.99724496 Z M12.0336462,5.99724496 C12.8618511,6.01643408 13.5176879,6.70338263 13.4984985,7.53158748 L13.4603761,9.02896537 L13.4163729,10.4840091 L13.3664839,11.8967381 L13.3107039,13.2671717 L13.2490278,14.595329 L13.1814504,15.8812296 L13.069008,17.7308911 L12.9866546,18.9112341 L12.8983817,20.0493878 C12.8679702,20.421743 12.8365713,20.7870699 12.8041841,21.1453717 L12.7040567,22.199205 L12.5979942,23.210907 C12.5616502,23.5411213 12.5243163,23.8643169 12.4859914,24.1804971 C12.2331757,26.2662263 11.7870302,28.6463947 11.1478073,31.3231285 L10.8620343,32.4884634 C10.8124356,32.6857141 10.7618519,32.8844795 10.7102834,33.0847602 L10.3890556,34.304636 L10.0441967,35.5609189 L9.6757111,36.8536461 C9.48556239,37.5091269 9.28655535,38.1782883 9.07869246,38.8611512 L8.65115963,40.2451518 C8.57793644,40.4788654 8.50372944,40.714103 8.42853875,40.9508652 C8.17778892,41.7404322 7.33444551,42.1772298 6.54487853,41.92648 C5.75531154,41.6757302 5.31851393,40.8323868 5.56926375,40.0428198 L5.99803139,38.6744147 L6.40349985,37.3428258 C6.46913658,37.1239644 6.53380269,36.9066386 6.59749827,36.6908491 L6.96802626,35.4145544 L7.31526612,34.1751688 C7.48306475,33.5647096 7.64213199,32.9681052 7.79247033,32.3853767 L8.08150921,31.2384269 C8.22021011,30.6742088 8.35018377,30.1238804 8.47143267,29.5874628 L8.70229819,28.5331812 C9.03114916,26.9795989 9.2814922,25.5513383 9.45339444,24.2489644 L9.56308385,23.3521246 L9.66940137,22.3853597 L9.77002115,21.3759331 C9.78631601,21.2041413 9.80237325,21.0305727 9.81819277,20.8552277 L9.91025621,19.7818449 C9.92512437,19.5993961 9.93975458,19.4151718 9.95414674,19.2291723 L10.0376422,18.0918767 L10.1154191,16.9119967 L10.1874723,15.6895517 L10.2537967,14.424561 L10.314387,13.1170438 L10.369238,11.7670196 L10.4183446,10.3745076 L10.4812223,8.20611725 C10.4874894,7.95987885 10.4935165,7.71187214 10.4993037,7.46209752 C10.5184928,6.63389266 11.2054414,5.97805583 12.0336462,5.99724496 Z M18.25,36.9375 C19.0784271,36.9375 19.75,37.6090729 19.75,38.4375 L19.75,38.4375 L19.75,40.4375 C19.75,41.2659271 19.0784271,41.9375 18.25,41.9375 C17.4215729,41.9375 16.75,41.2659271 16.75,40.4375 L16.75,40.4375 L16.75,38.4375 C16.75,37.6090729 17.4215729,36.9375 18.25,36.9375 Z M18.25,29.9375 C19.0784271,29.9375 19.75,30.6090729 19.75,31.4375 L19.75,31.4375 L19.75,33.4375 C19.75,34.2659271 19.0784271,34.9375 18.25,34.9375 C17.4215729,34.9375 16.75,34.2659271 16.75,33.4375 L16.75,33.4375 L16.75,31.4375 C16.75,30.6090729 17.4215729,29.9375 18.25,29.9375 Z M38.25,29 C39.4926407,29 40.5,30.0073593 40.5,31.25 C40.5,32.4926407 39.4926407,33.5 38.25,33.5 C37.0073593,33.5 36,32.4926407 36,31.25 C36,30.0073593 37.0073593,29 38.25,29 Z M18.25,22.9375 C19.0784271,22.9375 19.75,23.6090729 19.75,24.4375 L19.75,24.4375 L19.75,26.4375 C19.75,27.2659271 19.0784271,27.9375 18.25,27.9375 C17.4215729,27.9375 16.75,27.2659271 16.75,26.4375 L16.75,26.4375 L16.75,24.4375 C16.75,23.6090729 17.4215729,22.9375 18.25,22.9375 Z M38.25,12.4842105 C39.0406392,12.4842105 39.6898956,13.0895425 39.7595949,13.8620323 L39.7657895,14 L39.7657895,24.5 C39.7657895,25.3371474 39.0871474,26.0157895 38.25,26.0157895 C37.4593608,26.0157895 36.8101044,25.4104575 36.7404051,24.6379677 L36.7342105,24.5 L36.7342105,14 C36.7342105,13.1628526 37.4128526,12.4842105 38.25,12.4842105 Z M18.25,15.9375 C19.0784271,15.9375 19.75,16.6090729 19.75,17.4375 L19.75,17.4375 L19.75,19.4375 C19.75,20.2659271 19.0784271,20.9375 18.25,20.9375 C17.4215729,20.9375 16.75,20.2659271 16.75,19.4375 L16.75,19.4375 L16.75,17.4375 C16.75,16.6090729 17.4215729,15.9375 18.25,15.9375 Z M18.25,8.9375 C19.0784271,8.9375 19.75,9.60907288 19.75,10.4375 L19.75,10.4375 L19.75,12.4375 C19.75,13.2659271 19.0784271,13.9375 18.25,13.9375 C17.4215729,13.9375 16.75,13.2659271 16.75,12.4375 L16.75,12.4375 L16.75,10.4375 C16.75,9.60907288 17.4215729,8.9375 18.25,8.9375 Z" id="Combined-Shape" fill-opacity="0.5" fill="#000000" fill-rule="nonzero"></path>
                        </g>
                    </g>
                </g>
            </g>
        </g>
    </g>
</svg>